<svg width="24" height="24" viewBox="0 0 24 24" fill="none" xmlns="http://www.w3.org/2000/svg">
<path d="M15.0664 5.90625C15.6289 5.22656 16.0273 4.30078 16.0273 3.36328C16.0273 3.23438 16.0156 3.10547 15.9922 3C15.0781 3.03516 13.9766 3.60938 13.3203 4.38281C12.8047 4.96875 12.3242 5.90625 12.3242 6.84375C12.3242 6.98438 12.3477 7.125 12.3594 7.17188C12.418 7.18359 12.5117 7.19531 12.6055 7.19531C13.4258 7.19531 14.457 6.64453 15.0664 5.90625ZM15.7109 7.39453C14.3398 7.39453 13.2266 8.22656 12.5117 8.22656C11.75 8.22656 10.7539 7.44141 9.55859 7.44141C7.29688 7.44141 5 9.31641 5 12.8438C5 15.0469 5.84375 17.3672 6.89844 18.8672C7.80078 20.1328 8.58594 21.1758 9.72266 21.1758C10.8477 21.1758 11.3398 20.4258 12.7344 20.4258C14.1523 20.4258 14.4688 21.1523 15.7109 21.1523C16.9414 21.1523 17.7617 20.0273 18.5352 18.9141C19.4023 17.6367 19.7656 16.3945 19.7773 16.3359C19.707 16.3125 17.3516 15.3516 17.3516 12.6562C17.3516 10.3242 19.2031 9.28125 19.3086 9.19922C18.0898 7.44141 16.2266 7.39453 15.7109 7.39453Z" fill="white"/>
</svg>
