<svg width="25" height="24" viewBox="0 0 25 24" fill="none" xmlns="http://www.w3.org/2000/svg">
<path d="M21.2453 12.2051C21.2453 11.5472 21.186 10.9178 21.076 10.3125H12.5615V13.7803L17.4652 13.7814C17.2663 14.9352 16.6262 15.9188 15.6455 16.5745V18.8244H18.5644C20.2688 17.2576 21.2453 14.9415 21.2453 12.2051Z" fill="#4285F4"/>
<path d="M15.6465 16.5747C14.834 17.1191 13.7877 17.4375 12.5636 17.4375C10.1991 17.4375 8.19319 15.8549 7.47483 13.7217H4.46387V16.042C5.9556 18.9822 9.02157 20.9999 12.5636 20.9999C15.0118 20.9999 17.0684 20.2002 18.5655 18.8236L15.6465 16.5747Z" fill="#34A853"/>
<path d="M7.19123 12.0006C7.19123 11.4016 7.29174 10.8226 7.47477 10.2783V7.95801H4.4638C3.84701 9.17384 3.5 10.5463 3.5 12.0006C3.5 13.455 3.84807 14.8274 4.4638 16.0432L7.47477 13.723C7.29174 13.1786 7.19123 12.5996 7.19123 12.0006Z" fill="#FABB05"/>
<path d="M12.5636 6.56238C13.8998 6.56238 15.0964 7.0195 16.0412 7.91272L18.6279 5.3455C17.0568 3.89217 15.0086 3 12.5636 3C9.02263 3 5.9556 5.01763 4.46387 7.95791L7.47483 10.2782C8.19319 8.14496 10.1991 6.56238 12.5636 6.56238Z" fill="#E94235"/>
</svg>
