<svg xmlns="http://www.w3.org/2000/svg" width="12" height="13" viewBox="0 0 12 13" fill="none">
    <path d="M6 7.375C5.795 7.375 5.625 7.205 5.625 7V4.375C5.625 4.17 5.795 4 6 4C6.205 4 6.375 4.17 6.375 4.375V7C6.375 7.205 6.205 7.375 6 7.375Z" fill="white" fill-opacity="0.6"/>
    <path d="M6 9.12511C5.865 9.12511 5.73999 9.07512 5.64499 8.98012C5.59999 8.93012 5.565 8.87511 5.535 8.81511C5.51 8.75511 5.5 8.69011 5.5 8.62511C5.5 8.49511 5.55499 8.3651 5.64499 8.2701C5.82999 8.0851 6.17001 8.0851 6.35501 8.2701C6.44501 8.3651 6.5 8.49511 6.5 8.62511C6.5 8.69011 6.48499 8.75511 6.45999 8.81511C6.43499 8.87511 6.40001 8.93012 6.35501 8.98012C6.26001 9.07512 6.135 9.12511 6 9.12511Z" fill="white" fill-opacity="0.6"/>
    <path d="M5.99814 11.875C5.66314 11.875 5.32313 11.79 5.02313 11.615L2.05313 9.90004C1.45313 9.55004 1.07812 8.90504 1.07812 8.21004V4.79006C1.07812 4.09506 1.45313 3.45005 2.05313 3.10005L5.02313 1.38506C5.62313 1.03506 6.36814 1.03506 6.97314 1.38506L9.94315 3.10005C10.5431 3.45005 10.9182 4.09506 10.9182 4.79006V8.21004C10.9182 8.90504 10.5431 9.55004 9.94315 9.90004L6.97314 11.615C6.67314 11.79 6.33314 11.875 5.99814 11.875ZM5.99814 1.87505C5.79314 1.87505 5.58313 1.93005 5.39813 2.03505L2.42813 3.75005C2.05813 3.96505 1.82812 4.36006 1.82812 4.79006V8.21004C1.82812 8.63504 2.05813 9.03505 2.42813 9.25005L5.39813 10.965C5.76813 11.18 6.22814 11.18 6.59314 10.965L9.56314 9.25005C9.93314 9.03505 10.1631 8.64004 10.1631 8.21004V4.79006C10.1631 4.36506 9.93314 3.96505 9.56314 3.75005L6.59314 2.03505C6.41314 1.93005 6.20314 1.87505 5.99814 1.87505Z" fill="white" fill-opacity="0.6"/>
</svg>