<svg width="20" height="12" viewBox="0 0 20 12" fill="none" xmlns="http://www.w3.org/2000/svg">
<path opacity="0.6" fill-rule="evenodd" clip-rule="evenodd" d="M4.99284 0.000101578C4.53378 0.00727145 4.16721 0.384449 4.1735 0.84314V5.69345C4.15864 5.78327 4.15864 5.87491 4.1735 5.96472V10.8232C4.16925 11.1231 4.32696 11.4021 4.58623 11.5533C4.84551 11.7045 5.16618 11.7045 5.42545 11.5533C5.68472 11.4021 5.84243 11.1231 5.83819 10.8232V6.66481H14.1616V10.8232C14.1574 11.1231 14.3151 11.4021 14.5744 11.5533C14.8337 11.7045 15.1543 11.7045 15.4136 11.5533C15.6729 11.4021 15.8306 11.1231 15.8263 10.8232V5.97284C15.8412 5.88303 15.8412 5.79139 15.8263 5.70157V0.84314C15.8294 0.61834 15.7413 0.401868 15.582 0.243049C15.4228 0.0842291 15.206 -0.0034095 14.981 0.000101578C14.5219 0.00727145 14.1554 0.384449 14.1616 0.84314V5.00148H5.83819V0.84314C5.84127 0.61834 5.75314 0.401868 5.59389 0.243049C5.43463 0.0842291 5.21781 -0.0034095 4.99284 0.000101578Z" fill="white"/>
<path fill-rule="evenodd" clip-rule="evenodd" d="M2.49589 1.66319C2.03683 1.67036 1.67026 2.04753 1.67655 2.50623V5.00123H0.8442C0.544026 4.99699 0.26482 5.15457 0.113494 5.41363C-0.0378314 5.67269 -0.0378314 5.9931 0.113494 6.25216C0.26482 6.51123 0.544026 6.66881 0.8442 6.66456H1.67655V9.15957C1.6723 9.4595 1.83001 9.73848 2.08928 9.88968C2.34856 10.0409 2.66923 10.0409 2.9285 9.88968C3.18777 9.73848 3.34548 9.4595 3.34124 9.15957V5.97259C3.35609 5.88278 3.35609 5.79114 3.34124 5.70132V2.50623C3.34432 2.28143 3.25619 2.06495 3.09693 1.90613C2.93768 1.74732 2.72086 1.65968 2.49589 1.66319ZM17.4781 1.66325C17.0191 1.67042 16.6525 2.04759 16.6588 2.50628V5.69326C16.6439 5.78307 16.6439 5.87471 16.6588 5.96453V9.15963C16.6545 9.45956 16.8122 9.73853 17.0715 9.88974C17.3308 10.0409 17.6514 10.0409 17.9107 9.88974C18.17 9.73853 18.3277 9.45956 18.3235 9.15963V6.66462H19.1558C19.456 6.66886 19.7352 6.51128 19.8865 6.25222C20.0378 5.99316 20.0378 5.67275 19.8865 5.41369C19.7352 5.15463 19.456 4.99705 19.1558 5.00129H18.3235V2.50628C18.3265 2.28148 18.2384 2.06501 18.0792 1.90619C17.9199 1.74737 17.7031 1.65973 17.4781 1.66325Z" fill="white"/>
</svg>
