<svg width="24" height="24" viewBox="0 0 24 24" fill="none" xmlns="http://www.w3.org/2000/svg">
<g id="Component 1/location">
<path id="Vector" d="M11.9717 4.50001C13.5539 4.50703 15.0661 5.13711 16.1723 6.24324C17.2854 7.35638 17.9085 8.86156 17.9015 10.4228V10.4578C17.8595 12.579 16.6693 14.5323 15.1851 16.0584C14.345 16.9196 13.4139 17.6826 12.3988 18.3267C12.1258 18.5578 11.7267 18.5578 11.4537 18.3267C9.94849 17.3466 8.61832 16.1145 7.54019 14.6793C6.59507 13.4331 6.05601 11.9349 6 10.3738C6.014 7.11835 8.68833 4.49303 11.9717 4.50001ZM11.9717 8.65154C10.9286 8.65154 10.0885 9.48464 10.0885 10.5208C10.0885 11.5436 10.9146 12.369 11.9507 12.383H11.9717C12.4688 12.383 12.9449 12.194 13.2949 11.8509C13.6589 11.4939 13.8627 11.0185 13.8627 10.5208C13.8627 9.48464 13.0149 8.65154 11.9717 8.65154Z" fill="#EDE8D7"/>
</g>
</svg>
