<svg width="200" height="200" viewBox="0 0 200 200" fill="none" xmlns="http://www.w3.org/2000/svg">
<rect width="200" height="200" fill="#232323"/>
<g id="Dashboard | My event" clip-path="url(#clip0_10382_162491)">
<rect width="375" height="812" transform="translate(-88 -118)" fill="#202020"/>
<g id="qrcode 1" clip-path="url(#clip1_10382_162491)">
<path id="Vector" d="M75 0H0V75H75V0ZM62.5 62.5H12.5V12.5H62.5V62.5Z" fill="#EFEFEF"/>
<path id="Vector_2" d="M25 25H50V50H25V25ZM0 200H75V125H0V200ZM12.5 137.5H62.5V187.5H12.5V137.5Z" fill="#EFEFEF"/>
<path id="Vector_3" d="M25 150H50V175H25V150ZM125 0V75H200V0H125ZM187.5 62.5H137.5V12.5H187.5V62.5Z" fill="#EFEFEF"/>
<path id="Vector_4" d="M150 25H175V50H150V25ZM25 87.5H0V112.5H37.5V100H25V87.5ZM87.5 112.5H112.5V137.5H87.5V112.5ZM37.5 87.5H62.5V100H37.5V87.5ZM112.5 150H87.5V162.5H100V175H112.5V162.5V150ZM75 87.5V100H62.5V112.5H87.5V87.5H75ZM100 50H112.5V75H100V50ZM112.5 100V112.5H137.5V87.5H100V100H112.5ZM87.5 75H100V87.5H87.5V75ZM112.5 175H137.5V200H112.5V175ZM87.5 175H100V200H87.5V175ZM112.5 137.5H125V150H112.5V137.5ZM112.5 37.5V12.5H100V0H87.5V50H100V37.5H112.5ZM150 175H162.5V200H150V175ZM150 150H175V162.5H150V150ZM137.5 162.5H150V175H137.5V162.5ZM125 150H137.5V162.5H125V150ZM175 125V137.5H187.5V150H200V125H187.5H175ZM187.5 162.5H175V200H200V175H187.5V162.5ZM125 125V137.5H162.5V112.5H137.5V125H125ZM150 87.5V100H175V112.5H200V87.5H175H150Z" fill="#EFEFEF"/>
</g>
</g>
<defs>
<clipPath id="clip0_10382_162491">
<rect width="375" height="812" fill="white" transform="translate(-88 -118)"/>
</clipPath>
<clipPath id="clip1_10382_162491">
<rect width="200" height="200" fill="white"/>
</clipPath>
</defs>
</svg>
