<svg width="25" height="24" viewBox="0 0 25 24" xmlns="http://www.w3.org/2000/svg">
<path d="M6.91926 16.9377H19.7238V17.9575H6.91926V16.9377Z" />
<path d="M15.4178 7.53258C15.4178 9.09712 14.1495 10.3654 12.585 10.3654C11.0204 10.3654 9.75212 9.09712 9.75212 7.53258C9.75212 5.96803 11.0204 4.69972 12.585 4.69972C14.1495 4.69972 15.4178 5.96803 15.4178 7.53258ZM11.1686 7.53258C11.1686 8.31485 11.8027 8.94901 12.585 8.94901C13.3673 8.94901 14.0014 8.31485 14.0014 7.53258C14.0014 6.7503 13.3673 6.11615 12.585 6.11615C11.8027 6.11615 11.1686 6.7503 11.1686 7.53258Z" />
<path d="M13.7181 7.53258C13.7181 8.1584 13.2108 8.66572 12.585 8.66572C11.9592 8.66572 11.4518 8.1584 11.4518 7.53258C11.4518 6.90676 11.9592 6.39943 12.585 6.39943C13.2108 6.39943 13.7181 6.90676 13.7181 7.53258Z" />
<path d="M10.5453 14.3314C10.5453 15.3328 9.7336 16.1445 8.73229 16.1445C7.73099 16.1445 6.91926 15.3328 6.91926 14.3314C6.91926 13.3301 7.73099 12.5184 8.73229 12.5184C9.7336 12.5184 10.5453 13.3301 10.5453 14.3314Z" />
<path d="M11.9051 10.5921C11.9618 10.7054 13.2082 10.7054 13.2649 10.5921C13.3082 10.5054 13.2852 13.3384 13.272 14.6733C13.2683 15.05 12.9618 15.3513 12.585 15.3513C12.2082 15.3513 11.9017 15.05 11.8979 14.6733C11.8847 13.3384 11.8617 10.5054 11.9051 10.5921Z" />
<path d="M11.1119 14.3314C11.2819 14.0482 11.5652 13.8215 11.6218 13.8782C11.6785 13.9348 11.5652 14.9547 11.6218 15.068C11.6785 15.1813 11.7918 15.3229 11.7351 15.238C11.6785 15.153 11.9344 15.5219 12.1317 15.6346C12.329 15.7473 12.4717 15.6346 12.585 15.6346C12.6983 15.6346 12.8683 15.5212 12.9816 15.4646C13.0949 15.4079 13.3215 15.1813 13.3215 15.068V13.9348C13.3215 13.7082 13.2649 13.3116 13.3215 13.3116H13.4915C13.6048 13.3116 14.0581 13.1983 14.1714 13.1983H15.9278C16.0411 13.1983 16.6643 13.3116 16.6643 13.3116C16.6643 13.3116 17.0042 13.3683 17.2309 13.4816C17.4575 13.5949 17.7975 13.9348 17.7975 13.9348C17.7975 13.9348 17.9108 14.1615 17.9108 14.2748C17.9108 14.3881 18.0241 14.3881 18.0241 14.3881H21.1402C21.2535 14.3881 21.7068 14.3314 21.8201 14.3881C21.9334 14.4448 21.8768 14.3881 22.1601 14.6147C22.4433 14.8414 22.3867 14.9547 22.3867 14.9547V15.5779C22.3867 15.7479 22.4433 16.711 22.4433 16.711V17.5609L22.5 18.8074V21.017C22.5 21.017 22.3867 21.187 22.2734 21.3003C22.1601 21.4136 22.2905 21.3569 21.9334 21.6402H21.3102C21.1402 21.6402 21.0269 21.4703 20.9703 21.4136C20.9136 21.3569 20.6572 21.0154 20.4603 20.7337V16.3711H12.1317C11.8484 16.3711 11.5085 16.2578 11.5085 16.2578C11.5085 16.2578 11.0552 15.9745 10.9419 15.8045C10.8286 15.6346 10.8286 15.1246 10.8286 15.1246C10.8286 15.1246 10.9419 14.6147 11.1119 14.3314Z" />
<path d="M8.16572 4.81303C8.16572 5.81434 7.354 6.62606 6.35269 6.62606C5.35138 6.62606 4.53966 5.81434 4.53966 4.81303C4.53966 3.81172 5.35138 3 6.35269 3C7.354 3 8.16572 3.81172 8.16572 4.81303Z" />
<path d="M4.8796 7.53258L5.44618 8.15581L5.89943 8.60907L6.35269 8.83569C6.35269 8.83569 6.80595 9.06232 6.97592 9.17564C7.14589 9.28895 7.71246 9.45892 7.71246 9.45892H9.29887C9.29887 9.45892 9.86544 9.40227 10.0354 9.34561C10.2054 9.28895 10.3754 9.85552 10.3754 9.85552C10.3754 9.85552 10.7153 9.96884 10.772 10.1955C10.8286 10.4221 10.4887 10.5921 10.4887 10.5921L9.86544 10.7054L8.95892 10.8187H7.88244C7.88244 10.8187 7.25921 10.7054 6.97592 10.5921C6.69263 10.4788 6.01275 10.1955 6.01275 10.1955L5.04958 9.57224L4.31303 8.83569L3.97309 8.15581C3.97309 8.15581 3.97309 7.87252 4.19972 7.64589C4.42635 7.41926 4.8796 7.53258 4.8796 7.53258Z" />
<path d="M5.84278 8.26912C5.84278 8.26912 5.78612 8.32578 5.72946 8.26912C5.6728 8.21246 5.44618 7.87252 5.44618 7.87252C5.44618 7.87252 5.2762 7.64589 5.16289 7.53258C5.04958 7.41926 4.99292 7.41926 4.8796 7.36261C4.76629 7.30595 4.59632 7.30595 4.483 7.30595C4.36969 7.30595 4.14306 7.47592 4.0864 7.53258C4.02975 7.58923 3.85977 7.70255 3.80312 7.92918C3.74646 8.15581 3.85977 8.32578 3.91643 8.49575C3.97309 8.66572 4.25637 8.94901 4.25637 8.94901L4.65297 9.40227L4.99292 9.68555C4.99292 9.68555 5.2762 9.91218 5.33286 9.96884C5.38952 10.0255 5.44618 10.0255 5.44618 10.0822C5.44618 10.1388 5.33286 10.6487 5.33286 10.8187V12.5751C5.33286 12.6317 5.44618 12.8584 5.50283 12.9717C5.55949 13.085 5.61615 13.3683 5.6728 13.5382C5.72946 13.7082 5.72946 13.9348 5.78612 14.1615C5.84278 14.3881 5.89943 14.5581 5.95609 14.7847C6.01275 15.0113 6.01275 15.5212 6.01275 15.5212L6.06941 16.2578V17.3909C6.06941 17.5042 6.01275 17.7875 6.01275 18.1841C6.01275 18.5807 5.89943 18.9773 5.84278 19.204C5.78612 19.4306 5.61615 19.9972 5.55949 20.2238C5.50283 20.4504 5.44618 20.847 5.38952 20.9603C5.33286 21.0737 5.21955 21.187 5.04958 21.3569C4.8796 21.5269 4.65297 21.5836 4.53966 21.6402C4.42635 21.6969 4.19972 21.6969 4.0864 21.6402C3.97309 21.5836 3.97309 21.5836 3.91643 21.5269C3.85977 21.4703 3.51983 21.187 3.46317 21.0737C3.40652 20.9603 3.34986 20.7904 3.34986 20.6204C3.34986 20.4504 3.40652 20.3938 3.46317 20.2238C3.51983 20.0538 3.6898 19.6572 3.74646 19.4873C3.80312 19.3173 3.91643 18.5241 3.91643 18.5241L4.02975 17.7875V16.5411C4.02975 16.3144 4.02975 16.3144 3.97309 15.9745C3.91643 15.6346 3.91643 15.5212 3.91643 15.3513V14.9547C3.91643 14.7847 3.85977 14.5581 3.80312 14.3881C3.74646 14.2181 3.57649 13.7649 3.57649 13.7649L3.2932 13.6516C3.2932 13.6516 2.95326 13.5382 2.83994 13.3683C2.72663 13.1983 2.78329 13.3116 2.72663 13.1983C2.66997 13.085 2.61331 12.9717 2.55666 12.8017C2.5 12.6317 2.5 12.4051 2.5 12.4051V9.57224C2.5 9.45892 2.55666 9.28895 2.55666 9.28895L2.61331 9.06232C2.66997 8.83569 2.72663 8.66572 2.72663 8.66572L2.83994 8.26912C2.83994 8.26912 2.95326 7.87252 3.00991 7.70255C3.06657 7.53258 3.2932 7.30595 3.2932 7.30595C3.2932 7.30595 3.51983 7.02266 3.6898 6.90935C3.85977 6.79603 3.97309 6.73938 4.0864 6.68272C4.19972 6.62606 4.31303 6.62606 4.53966 6.62606H4.8796C4.99292 6.62606 5.16289 6.68272 5.21955 6.73938C5.2762 6.79603 5.40655 6.93267 5.50283 7.02266C5.59911 7.11265 5.6728 7.24929 5.72946 7.36261C5.78612 7.47592 5.84278 7.64589 5.84278 7.75921V8.26912Z" />
</svg>
