<svg xmlns="http://www.w3.org/2000/svg" fill="currentColor" viewBox="0 0 24 24">
  <path d="M11.678 3a7.69 7.69 0 0 1 5.4 2.241 7.56 7.56 0 0 1 2.224 5.374v.045c-.054 2.727-1.584 5.239-3.492 7.2a19.91 19.91 0 0 1-3.583 2.917.94.94 0 0 1-1.215 0 19.802 19.802 0 0 1-5.032-4.69A9.728 9.728 0 0 1 4 10.553C4.018 6.366 7.456 2.991 11.678 3Zm0 5.338a2.407 2.407 0 0 0-2.421 2.403c0 1.315 1.062 2.376 2.394 2.394h.027c.639 0 1.251-.243 1.701-.684.468-.459.73-1.07.73-1.71 0-1.332-1.09-2.403-2.431-2.403Z"/>
</svg>