<svg xmlns="http://www.w3.org/2000/svg" fill="currentColor" viewBox="0 0 24 24">
  <path d="M15.062 3c-.96.066-2.082.68-2.735 1.48-.596.726-1.087 1.804-.896 2.851 1.049.033 2.132-.596 2.76-1.41.587-.757 1.032-1.828.87-2.921Z"/>
  <path d="M18.854 9.039c-.921-1.155-2.216-1.826-3.44-1.826-1.614 0-2.296.773-3.418.773-1.157 0-2.035-.77-3.431-.77-1.372 0-2.832.837-3.758 2.27-1.301 2.019-1.079 5.813 1.03 9.046.756 1.156 1.764 2.457 3.082 2.468 1.173.011 1.504-.753 3.094-.76 1.59-.01 1.891.77 3.062.758 1.32-.01 2.383-1.452 3.138-2.608.54-.83.742-1.247 1.162-2.183-3.052-1.162-3.542-5.502-.521-7.168Z"/>
</svg>