<svg width="24" height="25" viewBox="0 0 24 25" fill="currentColor" xmlns="http://www.w3.org/2000/svg">
<path fill-rule="evenodd" clip-rule="evenodd" d="M11.6262 17.8021C10.2762 19.1309 8.0827 19.1318 6.73623 17.8057C6.41701 17.4931 6.16331 17.119 5.99012 16.7058C5.81693 16.2926 5.72778 15.8486 5.72794 15.4001C5.7281 14.9516 5.81758 14.5077 5.99107 14.0945C6.16457 13.6815 6.41855 13.3076 6.73799 12.9952L13.0442 6.78659C13.4255 6.41155 13.937 6.20138 14.47 6.20088C15.0028 6.20038 15.5149 6.4096 15.8968 6.78392C16.6848 7.55989 16.6866 8.81228 15.9004 9.58647L9.98594 15.4084C9.87733 15.5138 9.73205 15.5721 9.58127 15.5707C9.43049 15.5694 9.28624 15.5086 9.17947 15.4013C9.12526 15.3499 9.08207 15.2877 9.05254 15.2187C9.02303 15.1499 9.0078 15.0756 9.0078 15.0004C9.0078 14.9254 9.02303 14.8511 9.05254 14.7821C9.08207 14.7133 9.12526 14.6511 9.17947 14.5996L14.6757 9.18916C14.7558 9.11116 14.8194 9.01772 14.8629 8.91442C14.9064 8.81112 14.9288 8.70006 14.9288 8.58785C14.9288 8.47564 14.9064 8.36458 14.8629 8.26127C14.8194 8.15797 14.7558 8.06454 14.6757 7.98654C14.5119 7.82688 14.293 7.73763 14.0651 7.73763C13.8372 7.73763 13.6182 7.82688 13.4545 7.98654L7.95741 13.397C7.74318 13.6045 7.57275 13.8535 7.45635 14.1289C7.33993 14.4044 7.27992 14.7006 7.27992 15C7.27992 15.2994 7.33993 15.5957 7.45635 15.8712C7.57275 16.1466 7.74318 16.3956 7.95741 16.603C8.39162 17.0301 8.9739 17.2697 9.58066 17.2712C10.1874 17.2726 10.7709 17.0358 11.2071 16.611L17.1216 10.7891C17.4682 10.4512 17.7439 10.0465 17.9321 9.59905C18.1203 9.1516 18.2171 8.67057 18.2168 8.18463C18.2166 7.69868 18.1192 7.21776 17.9307 6.77051C17.742 6.32326 17.4659 5.91883 17.1189 5.58131C16.4094 4.8874 15.4593 4.4995 14.4704 4.5C13.4816 4.5005 12.5318 4.88936 11.823 5.58397L5.51593 11.7926C5.03639 12.2611 4.6551 12.8219 4.3947 13.4416C4.1343 14.0613 4.00009 14.7273 4 15.4003C3.99992 16.0732 4.13398 16.7393 4.39423 17.3591C4.65448 17.9789 5.03562 18.5397 5.51505 19.0083C7.53564 20.9984 10.8224 20.9975 12.8474 19.0038L18.7469 13.197C18.827 13.119 18.8906 13.0256 18.9341 12.9222C18.9776 12.8189 19 12.7079 19 12.5957C19 12.4835 18.9776 12.3724 18.9341 12.2691C18.8906 12.1658 18.827 12.0724 18.7469 11.9943C18.5831 11.8347 18.3642 11.7455 18.1363 11.7455C17.9083 11.7455 17.6894 11.8347 17.5257 11.9943L11.6262 17.8021Z"/>
</svg>
