<svg width="14" height="18" viewBox="0 0 14 18" fill="none" xmlns="http://www.w3.org/2000/svg">
    <path fill-rule="evenodd" clip-rule="evenodd"
          d="M4.9455 5.03459C4.80463 5.20919 4.68038 5.36579 4.5745 5.50439C4.35838 5.78789 4.1545 6.06509 3.962 6.33419C2.46138 8.44469 1.75 10.0836 1.75 11.1429C1.75 13.9149 4.08188 16.2 7 16.2C9.91813 16.2 12.25 13.9158 12.25 11.1429C12.25 9.44369 10.5263 6.52589 7.0245 2.63519C5.9815 3.81149 5.285 4.61519 4.9455 5.03459ZM7 18C3.13425 18 0 14.9301 0 11.1429C0 9.6192 0.849625 7.6626 2.54975 5.2722C2.88468 4.7964 3.23548 4.33262 3.6015 3.8817C4.08888 3.2805 5.222 1.9863 7 0C11.6664 4.9041 14 8.6184 14 11.1429C14 14.9301 10.8658 18 7 18Z"
          fill="white"/>
</svg>
