<svg xmlns="http://www.w3.org/2000/svg" fill="currentColor" viewBox="0 0 49 48">
  <path fill="#EB4336" fill-rule="evenodd" d="M46.066 5.434a.8.8 0 0 1 0 1.132l-6 6a.8.8 0 1 1-1.132-1.132l6-6a.8.8 0 0 1 1.132 0Z" clip-rule="evenodd"/>
  <path fill="#EB4336" fill-rule="evenodd" d="M38.934 5.434a.8.8 0 0 1 1.132 0l6 6a.8.8 0 1 1-1.132 1.132l-6-6a.8.8 0 0 1 0-1.132Z" clip-rule="evenodd"/>
  <path fill-rule="evenodd" d="M15.987 13c-.826.014-1.486.712-1.475 1.561v8.98a1.585 1.585 0 0 0 0 .502v8.995a1.549 1.549 0 0 0 .743 1.352c.467.28 1.044.28 1.51 0 .468-.28.751-.796.744-1.352V25.34H32.49v7.7a1.549 1.549 0 0 0 .743 1.351c.467.28 1.044.28 1.51 0 .467-.28.751-.796.743-1.352v-8.98a1.584 1.584 0 0 0 0-.502v-8.995a1.563 1.563 0 0 0-.44-1.111 1.478 1.478 0 0 0-1.081-.45c-.827.014-1.486.712-1.475 1.561v7.699H17.509V14.56a1.562 1.562 0 0 0-.44-1.111 1.477 1.477 0 0 0-1.082-.45Zm-4.494 3.08c-.827.013-1.486.712-1.475 1.56v4.62H8.52a1.49 1.49 0 0 0-1.316.764 1.577 1.577 0 0 0 0 1.552c.273.48.775.771 1.316.764h1.498v4.619a1.549 1.549 0 0 0 .743 1.352c.466.28 1.044.28 1.51 0 .467-.28.75-.797.743-1.352v-5.9a1.578 1.578 0 0 0 0-.503v-5.915a1.562 1.562 0 0 0-.44-1.111 1.477 1.477 0 0 0-1.081-.45Zm26.968 0c-.827.013-1.486.712-1.475 1.56v5.901a1.584 1.584 0 0 0 0 .503v5.915a1.55 1.55 0 0 0 .743 1.352c.467.28 1.044.28 1.51 0 .467-.28.751-.797.743-1.352v-4.62h1.499a1.49 1.49 0 0 0 1.315-.763 1.577 1.577 0 0 0 0-1.552 1.49 1.49 0 0 0-1.315-.764h-1.499v-4.62a1.562 1.562 0 0 0-.44-1.11 1.477 1.477 0 0 0-1.081-.45Z" clip-rule="evenodd"/>
</svg>