<svg width="39" height="38" viewBox="0 0 39 38" fill="none" xmlns="http://www.w3.org/2000/svg">
<path d="M31.6551 2.60376C31.0983 1.61453 30.0363 1 28.8834 1H19.5675C17.8226 1 16.403 2.4194 16.403 4.16406V8.38281C16.403 10.1275 17.8226 11.5469 19.5675 11.5469H25.8966C26.4783 11.5469 26.9515 12.02 26.9515 12.6016V20.8867C23.9099 20.0553 20.7037 19.9526 17.6217 20.5794C15.2734 18.3327 11.9474 17.4187 8.6261 18.2491C5.30529 19.0792 2.54924 21.7887 1.76043 25.1612C1.08209 28.0622 1.74341 31.0502 3.57505 33.3591C5.41042 35.6729 8.13806 37 11.0584 37C24.8288 37 34.361 31.7683 36.9169 30.4903C37.2743 30.3116 37.5 29.9464 37.5 29.5469V24.9715C37.5 17.1308 35.4788 9.39616 31.6551 2.60376ZM35.3903 28.897C31.9634 30.6229 23.2881 34.8906 11.0584 34.8906C8.78595 34.8906 6.66084 33.8546 5.22786 32.0482C3.79889 30.2468 3.28377 27.9116 3.81471 25.6414C4.4112 23.0906 6.55044 20.9422 9.13778 20.2953C11.2621 19.7642 13.3919 20.1274 15.1116 21.2623C14.2891 21.5449 13.4821 21.8825 12.6964 22.2753C12.1753 22.5358 11.9641 23.1693 12.2246 23.6903C12.4851 24.2113 13.1187 24.4225 13.6398 24.162C18.6506 21.657 24.6334 21.657 29.6443 24.162C30.1662 24.423 30.7994 24.2104 31.0595 23.6903C31.32 23.1693 31.1089 22.5358 30.5878 22.2753C30.0871 22.025 29.5776 21.7975 29.0612 21.5919V12.6016C29.0612 10.8569 27.6416 9.4375 25.8966 9.4375H24.8418V6.27344C24.8418 5.69097 24.3695 5.21875 23.7869 5.21875H21.6772C21.0947 5.21875 20.6224 5.69097 20.6224 6.27344C20.6224 6.85591 21.0947 7.32812 21.6772 7.32812H22.7321V9.4375H19.5675C18.9859 9.4375 18.5127 8.96437 18.5127 8.38281V4.16406C18.5127 3.58251 18.9859 3.10938 19.5675 3.10938H28.8835C29.2754 3.10938 29.633 3.31209 29.8167 3.63834C33.4631 10.1156 35.3904 17.4924 35.3904 24.9715V28.897H35.3903Z" fill="#3D3D3D" stroke="#3D3D3D" stroke-width="1.20019"/>
</svg>
