<svg xmlns="http://www.w3.org/2000/svg" fill="currentColor" viewBox="0 0 24 24">
  <path d="M11.5 18.282c-3.556 0-6.961-2.616-9.209-5.332a1.272 1.272 0 0 1 0-1.62c.565-.684 1.75-2.001 3.332-3.153 3.984-2.9 7.762-2.906 11.755 0 1.858 1.353 3.33 3.127 3.33 3.152.39.47.39 1.151 0 1.62-2.246 2.716-5.651 5.333-9.208 5.333Zm0-11.115c-3.94 0-7.354 3.757-8.307 4.908a.1.1 0 0 0 0 .129c.953 1.151 4.367 4.908 8.307 4.908 3.94 0 7.355-3.757 8.307-4.908.056-.068-.003-.129 0-.129-.953-1.151-4.367-4.908-8.307-4.908Z"/>
  <path d="M11.5 16.235a4.1 4.1 0 0 1-4.095-4.095A4.1 4.1 0 0 1 11.5 8.043a4.1 4.1 0 0 1 4.095 4.095 4.1 4.1 0 0 1-4.095 4.096Zm0-7.02a2.928 2.928 0 0 0-2.925 2.925 2.928 2.928 0 0 0 2.925 2.925 2.928 2.928 0 0 0 2.925-2.925A2.928 2.928 0 0 0 11.5 9.213Z"/>
</svg>