<svg width="61" height="60" viewBox="0 0 61 60" fill="none" xmlns="http://www.w3.org/2000/svg">
<path d="M52.0388 15.2121C51.5719 15.2121 51.0895 15.0267 50.76 14.6971L45.8041 9.74121C45.4745 9.41156 45.2891 8.96531 45.2891 8.49844C45.2891 8.03156 45.4745 7.5491 45.8041 7.21957L50.76 2.26196C51.4191 1.60278 52.5864 1.60278 53.2456 2.26196L58.2392 7.25555C58.5688 7.5852 58.7542 8.03145 58.7542 8.49832C58.7542 8.96519 58.5688 9.41156 58.2392 9.74109L53.2816 14.6969C52.9521 15.0267 52.5057 15.2121 52.0388 15.2121Z" fill="#3D3D3D"/>
<path d="M16.4447 36.5961L23.9023 44.0537L44.5533 23.4027L37.0957 15.9451L16.4447 36.5961Z" fill="#3D3D3D"/>
<path d="M9.0053 58.2446C8.55554 58.2446 8.10577 58.0729 7.76253 57.7295L2.76894 52.7376C2.4393 52.4079 2.25391 51.9617 2.25391 51.4948C2.25391 51.0279 2.4393 50.5816 2.76894 50.2521L7.72655 45.2962C8.41316 44.6096 9.52562 44.6096 10.2122 45.2962L15.2042 50.2881C15.8908 50.9747 15.8908 52.0872 15.2042 52.7738L10.2483 57.7297C9.90483 58.0729 9.45507 58.2446 9.0053 58.2446Z" fill="#3D3D3D"/>
<path d="M7.76218 57.7295C8.10554 58.0728 8.55531 58.2445 9.00496 58.2445C9.4546 58.2445 9.90449 58.0728 10.2477 57.7295L15.2036 52.7736C15.8902 52.087 15.8902 50.9746 15.2036 50.288L12.7076 47.792L5.26562 55.234L7.76218 57.7295Z" fill="#3D3D3D"/>
<path d="M50.7592 14.6971C51.0888 15.0267 51.5712 15.2121 52.038 15.2121C52.5049 15.2121 52.9513 15.0267 53.2808 14.6971L58.2384 9.74124C58.5681 9.41159 58.7535 8.96535 58.7535 8.49847C58.7535 8.0316 58.5681 7.58523 58.2384 7.2557L55.7416 4.75879L48.2812 12.2192L50.7592 14.6971Z" fill="#3D3D3D"/>
<path d="M40.8268 19.6752L20.1758 40.3262L23.9041 44.0545L44.5551 23.4035L40.8268 19.6752Z" fill="#3D3D3D"/>
<path d="M55.7404 27.1318L33.3672 4.75863L37.0961 1.02973C38.4691 -0.343242 40.695 -0.343242 42.0679 1.02973L59.4693 18.4311C60.8422 19.8041 60.8422 22.03 59.4693 23.4029L55.7404 27.1318Z" fill="#3D3D3D"/>
<path d="M50.7686 34.5892L25.9094 9.73003C25.2229 9.04355 25.2229 7.93062 25.9094 7.24414L28.3953 4.75824C29.7683 3.38527 31.9942 3.38527 33.3671 4.75824L55.7404 27.1315C57.1133 28.5045 57.1133 30.7305 55.7404 32.1033L53.2545 34.5892C52.568 35.2757 51.4551 35.2757 50.7686 34.5892Z" fill="#3D3D3D"/>
<path d="M5.25863 32.8682L27.6319 55.2415L23.903 58.9704C22.53 60.3433 20.3041 60.3433 18.9312 58.9704L1.52973 41.5689C0.156758 40.1959 0.156758 37.9699 1.52973 36.5971L5.25863 32.8682Z" fill="#3D3D3D"/>
<path d="M10.232 25.4104L35.0912 50.2695C35.7777 50.956 35.7777 52.0689 35.0912 52.7554L32.6053 55.2413C31.2323 56.6143 29.0063 56.6143 27.6335 55.2413L5.26019 32.8682C3.88723 31.4952 3.88723 29.2692 5.26019 27.8964L7.74609 25.4105C8.43257 24.7239 9.5455 24.7239 10.232 25.4104Z" fill="#3D3D3D"/>
<path d="M18.9307 58.9699C20.3035 60.3428 22.5295 60.3428 23.9025 58.9699L27.6314 55.241L16.4453 44.0547L10.2305 50.2695L18.9307 58.9699Z" fill="#3D3D3D"/>
<path d="M44.5547 15.9453L55.7408 27.1316L59.4697 23.4027C60.8426 22.0299 60.8426 19.8039 59.4697 18.4309L50.7695 9.73047L44.5547 15.9453Z" fill="#3D3D3D"/>
<path d="M27.6314 55.2409C29.0043 56.6137 31.2303 56.6137 32.6033 55.2409L35.0892 52.7547C35.7757 52.0683 35.7757 50.9553 35.0892 50.2689L22.6601 37.8398L16.4453 44.0546L27.6314 55.2409Z" fill="#3D3D3D"/>
<path d="M50.769 34.5896C51.4554 35.2761 52.5684 35.2761 53.2549 34.5896L55.7408 32.1035C57.1136 30.7306 57.1136 28.5046 55.7408 27.1317L44.5546 15.9453L38.3398 22.1601L50.769 34.5896Z" fill="#3D3D3D"/>
</svg>
