<svg width="24" height="24" viewBox="0 0 24 24" fill="currentColor" xmlns="http://www.w3.org/2000/svg">
<path fill-rule="evenodd" clip-rule="evenodd" d="M12 7.83675L10.7996 6.74927C10.1614 6.1712 9.32316 5.82188 8.39999 5.82188C6.41176 5.82188 4.79999 7.45324 4.79999 9.46563C4.79999 12.1981 6.00576 14.2134 7.529 15.7056C9.07893 17.224 10.9018 18.1362 11.8971 18.5562C11.9663 18.5854 12.0336 18.5854 12.1029 18.5562C13.0982 18.1362 14.921 17.224 16.471 15.7056C17.9942 14.2133 19.2 12.1981 19.2 9.46566C19.2 7.45328 17.5882 5.82188 15.6 5.82188C14.6768 5.82188 13.8385 6.1712 13.2004 6.74927L12 7.83675ZM12 5.39172C11.0446 4.52626 9.78304 4 8.4 4C5.41766 4 3 6.44704 3 9.46562C3 16.162 9.00431 19.3093 11.2044 20.2378C11.7169 20.4541 12.283 20.4541 12.7956 20.2378C14.9956 19.3093 21 16.1621 21 9.46567C21 6.44709 18.5823 4 15.6 4C14.217 4 12.9553 4.52626 12 5.39172Z"/>
</svg>
