<svg xmlns="http://www.w3.org/2000/svg" fill="currentColor" viewBox="0 0 24 24">
  <path fill-rule="evenodd" d="M12 5.392A5.344 5.344 0 0 0 8.4 4C5.418 4 3 6.447 3 9.466c0 6.696 6.004 9.843 8.204 10.772a2.032 2.032 0 0 0 1.592 0C14.996 19.309 21 16.162 21 9.466 21 6.447 18.582 4 15.6 4A5.344 5.344 0 0 0 12 5.392Z" clip-rule="evenodd"/>
  <path fill-rule="evenodd" d="m12 7.837-1.2-1.088a3.556 3.556 0 0 0-2.4-.927c-1.988 0-3.6 1.631-3.6 3.644 0 2.732 1.206 4.747 2.73 6.24 1.549 1.518 3.372 2.43 4.367 2.85.07.03.137.03.206 0 .995-.42 2.818-1.332 4.368-2.85 1.523-1.493 2.729-3.508 2.729-6.24 0-2.013-1.612-3.644-3.6-3.644-.923 0-1.761.35-2.4.927L12 7.837Z" clip-rule="evenodd"/>
</svg>