<svg xmlns="http://www.w3.org/2000/svg" fill="currentColor" viewBox="0 0 24 24">
  <path d="M7.126 10.164a.952.952 0 0 0 .35 1.08l1.69 1.229c.113.082.16.226.117.36l-.646 1.988a.952.952 0 0 0 .35 1.08c.345.25.79.25 1.134 0l1.69-1.23a.32.32 0 0 1 .378 0l1.69 1.23a.96.96 0 0 0 .566.188.962.962 0 0 0 .567-.188.952.952 0 0 0 .35-1.08l-.645-1.989a.32.32 0 0 1 .117-.36l1.69-1.229a.952.952 0 0 0 .35-1.08.95.95 0 0 0-.917-.666h-2.089a.32.32 0 0 1-.306-.223l-.645-1.989A.95.95 0 0 0 12 6.618a.95.95 0 0 0-.917.667l-.646 1.99a.32.32 0 0 1-.305.222H8.043a.95.95 0 0 0-.917.667Zm13.853 2.57c-.267.697-.672 1.17-1.275 1.49a2.551 2.551 0 0 1-1.56.273 9.49 9.49 0 0 1-.533.949c.127-.03.258-.054.394-.067.677-.06 1.274.117 1.876.559a.322.322 0 0 1 .043.481c-.514.542-1.07.823-1.747.884a2.567 2.567 0 0 1-1.652-.407c-.982 1.132-2.255 2.214-3.728 2.983a8.311 8.311 0 0 0 2.739.477h.482a.16.16 0 0 1 .16.161v.322a.16.16 0 0 1-.16.161h-.482c-1.25 0-2.438-.282-3.536-.745-1.098.463-2.287.745-3.536.745h-.482a.16.16 0 0 1-.16-.16v-.323a.16.16 0 0 1 .16-.16h.482a8.31 8.31 0 0 0 2.74-.477c-1.474-.77-2.747-1.852-3.729-2.985a2.567 2.567 0 0 1-1.652.408c-.677-.061-1.233-.342-1.747-.884a.322.322 0 0 1 .043-.481c.602-.442 1.2-.619 1.876-.559.137.013.267.036.394.067a9.486 9.486 0 0 1-.533-.949 2.545 2.545 0 0 1-1.558-.273c-.605-.32-1.01-.792-1.277-1.49a.322.322 0 0 1 .225-.427c.725-.176 1.344-.111 1.947.204l.007.005c-.055-.3-.086-.6-.1-.898-.62-.138-1.098-.423-1.486-.889-.437-.522-.631-1.114-.613-1.861a.322.322 0 0 1 .37-.31c.739.114 1.286.41 1.722.933.064.077.122.157.176.237.077-.353.18-.697.308-1.03-.522-.366-.854-.814-1.035-1.394-.202-.65-.155-1.272.15-1.955a.322.322 0 0 1 .46-.143c.638.389 1.029.873 1.231 1.524.036.115.062.23.082.344a6.77 6.77 0 0 1 .574-.684c-.283-.49-.398-1-.348-1.552.064-.683.345-1.238.884-1.75a.322.322 0 0 1 .48.044c.442.605.62 1.202.559 1.878a2.456 2.456 0 0 1-.362 1.11.677.677 0 0 1-.077.086 5.928 5.928 0 0 0-.502.446l-.007.006C6.4 7.887 5.732 9.508 5.732 11.345c0 .633.107 1.278.318 1.918 0 .003.003.005.004.008.077.24.172.488.283.74.84 1.882 2.933 4.314 5.663 5.55 2.73-1.235 4.823-3.667 5.662-5.55.111-.251.207-.5.284-.74 0-.003.003-.005.004-.007.21-.64.318-1.286.318-1.919 0-1.838-.669-3.458-1.934-4.687l-.007-.006a5.94 5.94 0 0 0-.502-.446.672.672 0 0 1-.077-.085 2.456 2.456 0 0 1-.362-1.11c-.06-.677.117-1.274.559-1.88a.322.322 0 0 1 .48-.043c.54.512.82 1.067.884 1.748a2.558 2.558 0 0 1-.348 1.554c.207.217.399.445.574.684a2.9 2.9 0 0 1 .081-.344c.203-.65.594-1.135 1.232-1.524a.32.32 0 0 1 .46.143c.305.683.352 1.305.15 1.955-.18.58-.513 1.028-1.035 1.394.127.333.23.677.308 1.03.054-.08.112-.16.176-.237.436-.523.983-.82 1.721-.933a.322.322 0 0 1 .37.31c.02.747-.175 1.339-.611 1.862-.39.465-.867.75-1.488.888a6.575 6.575 0 0 1-.099.897l.006-.003c.604-.316 1.223-.38 1.948-.206a.322.322 0 0 1 .225.429Z"/>
</svg>