<svg xmlns="http://www.w3.org/2000/svg" fill="currentColor" viewBox="0 0 24 24">
  <path d="M22.35 11.625c0-.1-1.1-1.6-2.9-3.1-.4-.4-.9-.7-1.3-1l4.1-4.1c.2-.2.3-.4.3-.6 0-.2-.1-.5-.3-.6-.3-.3-.9-.3-1.3 0l-4.4 4.4c-.1-.1-.2-.1-.3-.1-2.7-1.3-5.4-1.3-8.1 0-1 .4-2.1 1.1-3.1 2-1.8 1.5-2.9 3-2.9 3.1-.2.3-.2.7 0 1 0 .1 1.1 1.6 2.9 3.1.4.4.9.7 1.3 1l-4.1 4.1c-.3.3-.3.9 0 1.3.2.2.4.3.6.3.2 0 .5-.1.6-.3l4.5-4.4c.1 0 .2.1.2.1 2.7 1.3 5.4 1.3 8.1 0 1.1-.5 2.1-1.2 3.2-2.1 1.8-1.5 2.9-3 2.9-3.1.3-.3.3-.7 0-1Zm-10.1 3.1c-.4 0-.8-.1-1.1-.3l3.5-3.5c.2.4.3.7.3 1.1-.1 1.6-1.2 2.7-2.7 2.7Zm0-5.2c.4 0 .8.1 1.1.3l-3.5 3.5c-.2-.3-.3-.7-.3-1.1.1-1.6 1.2-2.7 2.7-2.7Zm2.4-1.1c-.7-.5-1.6-.7-2.4-.7-2.4 0-4.4 2-4.4 4.4 0 .9.3 1.7.7 2.4l-.9.9c-.5-.3-1-.7-1.4-1.1-1-.9-1.8-1.7-2.2-2.3 1.1-1.4 4.5-5 8.3-5 1 0 2 .2 3 .7l-.7.7Zm-4.8 7.4c.7.5 1.6.7 2.4.7 2.4 0 4.4-2 4.4-4.4 0-.9-.3-1.7-.7-2.4l.9-.9c.5.3 1 .7 1.4 1.1 1 .9 1.8 1.7 2.2 2.3-1.1 1.4-4.5 5-8.3 5-1 0-2-.2-3-.7l.7-.7Z"/>
</svg>