<svg width="25" height="24" viewBox="0 0 25 24" fill="none" xmlns="http://www.w3.org/2000/svg">
<path d="M9.34675 20.3904L9.65962 18.4089L8.96269 18.3928H5.63477L7.9475 3.77119C7.95468 3.72705 7.97801 3.68589 8.01211 3.65666C8.04621 3.62743 8.08988 3.61133 8.13535 3.61133H13.7467C15.6096 3.61133 16.8952 3.99785 17.5664 4.76075C17.881 5.11864 18.0814 5.49264 18.1783 5.90422C18.28 6.33607 18.2818 6.85203 18.1825 7.48132L18.1754 7.52725V7.93047L18.49 8.10823C18.755 8.2484 18.9656 8.40885 19.1271 8.59257C19.3963 8.89857 19.5704 9.28748 19.644 9.74856C19.72 10.2228 19.6948 10.787 19.5704 11.4259C19.4268 12.1607 19.1947 12.8008 18.8813 13.3245C18.5929 13.807 18.2256 14.2073 17.7895 14.5175C17.3731 14.8121 16.8784 15.0358 16.3191 15.179C15.7771 15.3197 15.1591 15.3907 14.4813 15.3907H14.0446C13.7323 15.3907 13.429 15.5028 13.1909 15.7039C12.9523 15.9091 12.7943 16.1894 12.7459 16.496L12.713 16.6743L12.1602 20.1668L12.1351 20.295C12.1285 20.3356 12.1171 20.3558 12.1004 20.3696C12.0854 20.3821 12.0639 20.3904 12.0429 20.3904H9.34675Z" fill="#253B80"/>
<path d="M18.788 7.57324C18.7713 7.68001 18.7521 7.78917 18.7306 7.90131C17.9906 11.6896 15.4589 12.9983 12.2255 12.9983H10.5792C10.1838 12.9983 9.85054 13.2846 9.78892 13.6735L8.94602 19.0037L8.70733 20.5146C8.66725 20.7699 8.86467 21.0001 9.1231 21.0001H12.043C12.3888 21.0001 12.6825 20.7496 12.737 20.4096L12.7657 20.2617L13.3155 16.783L13.3508 16.5921C13.4046 16.2509 13.6989 16.0004 14.0447 16.0004H14.4814C17.3104 16.0004 19.525 14.8551 20.1723 11.5411C20.4427 10.1566 20.3027 9.00063 19.5872 8.18762C19.3707 7.94247 19.1021 7.73906 18.788 7.57324Z" fill="#179BD7"/>
<path d="M18.0141 7.26582C17.901 7.23301 17.7843 7.20318 17.6647 7.17634C17.5444 7.1501 17.4212 7.12683 17.2944 7.10655C16.8505 7.03498 16.3642 7.00098 15.8431 7.00098H11.4449C11.3367 7.00098 11.2338 7.02543 11.1416 7.06957C10.9389 7.1668 10.7881 7.35827 10.7516 7.59269L9.81598 13.5015L9.78906 13.6738C9.85068 13.2849 10.1839 12.9986 10.5793 12.9986H12.2256C15.459 12.9986 17.9907 11.6893 18.7307 7.90167C18.7529 7.78953 18.7714 7.68037 18.7882 7.5736C18.6009 7.47459 18.3981 7.38988 18.1798 7.31771C18.1259 7.29982 18.0703 7.28252 18.0141 7.26582Z" fill="#222D65"/>
<path d="M10.7513 7.59234C10.7878 7.35792 10.9386 7.16645 11.1414 7.06981C11.2341 7.02567 11.3364 7.00122 11.4447 7.00122H15.8428C16.3639 7.00122 16.8502 7.03522 17.2941 7.1068C17.4209 7.12708 17.5442 7.15034 17.6644 7.17659C17.7841 7.20343 17.9007 7.23325 18.0138 7.26606C18.07 7.28276 18.1256 7.30006 18.1801 7.31736C18.3984 7.38953 18.6012 7.47483 18.7885 7.57325C19.0086 6.1733 18.7867 5.22012 18.0275 4.357C17.1906 3.4068 15.6801 3 13.7472 3H8.13589C7.74106 3 7.40426 3.28631 7.34324 3.67582L5.00598 18.4478C4.95991 18.74 5.18604 19.0037 5.48156 19.0037H8.94588L9.8157 13.5011L10.7513 7.59234Z" fill="#253B80"/>
</svg>
