<svg width="24" height="24" viewBox="0 0 24 24" fill="currentColor" xmlns="http://www.w3.org/2000/svg">
<path fill-rule="evenodd" clip-rule="evenodd" d="M15.3 11.72C16.3796 10.7855 17 9.42794 17 8C17 5.23858 14.7614 3 12 3C9.23858 3 7 5.23858 7 8C6.99998 9.42794 7.62035 10.7855 8.7 11.72C5.84094 13.0146 4.00301 15.8615 4 19C4 19.5523 4.44772 20 5 20C5.55228 20 6 19.5523 6 19C6 15.6863 8.68629 13 12 13C15.3137 13 18 15.6863 18 19C18 19.5523 18.4477 20 19 20C19.5523 20 20 19.5523 20 19C19.997 15.8615 18.1591 13.0146 15.3 11.72V11.72ZM12 11.0001C10.3431 11.0001 9 9.65692 9 8.00006C9 6.34321 10.3431 5.00006 12 5.00006C13.6569 5.00006 15 6.34321 15 8.00006C15 8.79571 14.6839 9.55877 14.1213 10.1214C13.5587 10.684 12.7956 11.0001 12 11.0001Z"/>
</svg>
