<svg width="24" height="25" viewBox="0 0 24 25" fill="none" xmlns="http://www.w3.org/2000/svg">
    <path d="M3.64286 9.28571C3.81335 9.28571 3.97687 9.21798 4.09743 9.09743C4.21798 8.97687 4.28571 8.81335 4.28571 8.64286V5.42857C4.28571 5.25808 4.35344 5.09456 4.474 4.974C4.59456 4.85344 4.75808 4.78571 4.92857 4.78571H8.46429C8.63478 4.78571 8.7983 4.71798 8.91885 4.59743C9.03941 4.47687 9.10714 4.31335 9.10714 4.14286C9.10714 3.97236 9.03941 3.80885 8.91885 3.68829C8.7983 3.56773 8.63478 3.5 8.46429 3.5H4.92857C4.41708 3.5 3.92654 3.70319 3.56487 4.06487C3.20319 4.42654 3 4.91708 3 5.42857V8.64286C3 8.81335 3.06773 8.97687 3.18829 9.09743C3.30885 9.21798 3.47236 9.28571 3.64286 9.28571ZM19.0714 3.5H15.5357C15.3652 3.5 15.2017 3.56773 15.0811 3.68829C14.9606 3.80885 14.8929 3.97236 14.8929 4.14286C14.8929 4.31335 14.9606 4.47687 15.0811 4.59743C15.2017 4.71798 15.3652 4.78571 15.5357 4.78571H19.0714C19.2419 4.78571 19.4054 4.85344 19.526 4.974C19.6466 5.09456 19.7143 5.25808 19.7143 5.42857V8.64286C19.7143 8.81335 19.782 8.97687 19.9026 9.09743C20.0231 9.21798 20.1866 9.28571 20.3571 9.28571C20.5276 9.28571 20.6912 9.21798 20.8117 9.09743C20.9323 8.97687 21 8.81335 21 8.64286V5.42857C21 4.91708 20.7968 4.42654 20.4351 4.06487C20.0735 3.70319 19.5829 3.5 19.0714 3.5ZM20.3571 15.7143C20.1866 15.7143 20.0231 15.782 19.9026 15.9026C19.782 16.0231 19.7143 16.1866 19.7143 16.3571V19.5714C19.7143 19.7419 19.6466 19.9054 19.526 20.026C19.4054 20.1466 19.2419 20.2143 19.0714 20.2143H15.5357C15.3652 20.2143 15.2017 20.282 15.0811 20.4026C14.9606 20.5231 14.8929 20.6866 14.8929 20.8571C14.8929 21.0276 14.9606 21.1912 15.0811 21.3117C15.2017 21.4323 15.3652 21.5 15.5357 21.5H19.0714C19.5829 21.5 20.0735 21.2968 20.4351 20.9351C20.7968 20.5735 21 20.0829 21 19.5714V16.3571C21 16.1866 20.9323 16.0231 20.8117 15.9026C20.6912 15.782 20.5276 15.7143 20.3571 15.7143ZM8.46429 20.2143H4.92857C4.75808 20.2143 4.59456 20.1466 4.474 20.026C4.35344 19.9054 4.28571 19.7419 4.28571 19.5714V16.3571C4.28571 16.1866 4.21798 16.0231 4.09743 15.9026C3.97687 15.782 3.81335 15.7143 3.64286 15.7143C3.47236 15.7143 3.30885 15.782 3.18829 15.9026C3.06773 16.0231 3 16.1866 3 16.3571V19.5714C3 20.0829 3.20319 20.5735 3.56487 20.9351C3.92654 21.2968 4.41708 21.5 4.92857 21.5H8.46429C8.63478 21.5 8.7983 21.4323 8.91885 21.3117C9.03941 21.1912 9.10714 21.0276 9.10714 20.8571C9.10714 20.6866 9.03941 20.5231 8.91885 20.4026C8.7983 20.282 8.63478 20.2143 8.46429 20.2143ZM20.3571 11.8571H3.64286C3.47236 11.8571 3.30885 11.9249 3.18829 12.0454C3.06773 12.166 3 12.3295 3 12.5C3 12.6705 3.06773 12.834 3.18829 12.9546C3.30885 13.0751 3.47236 13.1429 3.64286 13.1429H20.3571C20.5276 13.1429 20.6912 13.0751 20.8117 12.9546C20.9323 12.834 21 12.6705 21 12.5C21 12.3295 20.9323 12.166 20.8117 12.0454C20.6912 11.9249 20.5276 11.8571 20.3571 11.8571Z"
          fill="white" stroke="white" stroke-width="0.4"/>
</svg>
