<svg xmlns="http://www.w3.org/2000/svg" fill="currentColor" viewBox="0 0 24 24">
  <path d="M9.3 20c.2.2.2.4.2.6 0 .2-.1.4-.2.6-.2.2-.4.2-.6.2H5.1c-.6 0-1.1-.2-1.5-.6-.4-.4-.6-1-.6-1.5v-3.2c0-.2.1-.4.2-.6.2-.2.4-.2.6-.2.2 0 .4.1.6.2.2.2.2.4.2.6v3.2c0 .1 0 .2.1.3.1.1.2.1.3.1h3.5c.4 0 .6.1.8.3ZM3.8 9.2c.2 0 .4-.1.6-.2.2-.1.2-.4.2-.6V5.1c0-.1 0-.2.1-.3.1-.1.3-.1.4-.1h3.5c.2 0 .4-.1.6-.2.2-.1.2-.4.2-.6 0-.2-.1-.4-.2-.6-.1-.2-.3-.3-.5-.3H5.1c-.5 0-1.1.2-1.5.6-.4.4-.6 1-.6 1.5v3.2c0 .2.1.4.2.6.2.2.4.3.6.3Zm16.8 2.2H3.8c-.2 0-.4.1-.6.2-.1.2-.2.4-.2.6 0 .2.1.4.2.6.2.2.4.2.6.2h16.7c.2 0 .4-.1.6-.2.2-.2.2-.4.2-.6 0-.2-.1-.4-.2-.6-.1-.2-.3-.2-.5-.2Zm.2-7.8c-.4-.4-1-.6-1.5-.6h-3.5c-.2 0-.4.1-.6.2-.2.2-.2.4-.2.6 0 .2.1.4.2.6.2.2.4.2.6.2h3.5c.1 0 .2 0 .3.1.1.1.1.2.1.3v3.2c0 .2.1.4.2.6.2.2.4.2.6.2.2 0 .4-.1.6-.2.2-.2.2-.4.2-.6V5.1c.1-.5-.1-1.1-.5-1.5Zm-.2 11.6c-.2 0-.4.1-.6.2-.2.2-.2.4-.2.6v3.2c0 .1 0 .2-.1.3-.1.1-.2.1-.3.1h-3.5c-.2 0-.4.1-.6.2-.2.2-.2.4-.2.6 0 .2.1.4.2.6.2.2.4.2.6.2h3.5c.6 0 1.1-.2 1.5-.6.4-.4.6-.9.6-1.5v-3.2c0-.2-.1-.4-.2-.6-.3 0-.5-.1-.7-.1Z"/>
</svg>