<svg width="24" height="24" viewBox="0 0 24 24" fill="currentColor" xmlns="http://www.w3.org/2000/svg">
<path d="M15.4564 14.5978C16.4597 13.3819 17.0934 11.8224 17.0934 10.1044C17.0934 6.24535 13.9515 3.09998 10.0967 3.09998C6.24192 3.09998 3.10001 6.24535 3.10001 10.1044C3.10001 13.9634 6.24192 17.1088 10.0967 17.1088C11.7865 17.1088 13.3706 16.5009 14.5852 15.47L20.0241 20.915C20.1561 21.0471 20.3145 21.1 20.4729 21.1C20.6314 21.1 20.7898 21.0471 20.9218 20.915C21.1594 20.6771 21.1594 20.2542 20.9218 20.0163L15.4564 14.5978ZM10.0703 15.8401C6.90199 15.8401 4.34093 13.2762 4.34093 10.1044C4.34093 6.93258 6.90199 4.3687 10.0703 4.3687C13.2386 4.3687 15.7997 6.93258 15.7997 10.1044C15.7997 13.2762 13.2386 15.8401 10.0703 15.8401Z"/>
<path fill-rule="evenodd" clip-rule="evenodd" d="M3 10.1044C3 6.19025 6.18658 3 10.0967 3C14.0068 3 17.1934 6.19025 17.1934 10.1044C17.1934 11.8144 16.5746 13.3689 15.5913 14.5907L20.9922 19.9453C21.2688 20.2222 21.2692 20.7087 20.9925 20.9857C20.8398 21.1385 20.655 21.2 20.4729 21.2C20.2909 21.2 20.1061 21.1385 19.9533 20.9857L14.5791 15.6055C13.3564 16.6155 11.7779 17.2088 10.0967 17.2088C6.18658 17.2088 3 14.0186 3 10.1044ZM10.0967 3.2C6.29725 3.2 3.2 6.3005 3.2 10.1044C3.2 13.9083 6.29725 17.0088 10.0967 17.0088C11.7624 17.0088 13.3237 16.4095 14.5204 15.3938L14.5907 15.3341L20.0948 20.8443C20.2061 20.9557 20.3382 21 20.4729 21C20.6077 21 20.7397 20.9557 20.851 20.8443C21.0496 20.6456 21.0497 20.2862 20.8513 20.0873V20.0873L15.3212 14.6046L15.3793 14.5342C16.3691 13.3347 16.9934 11.7973 16.9934 10.1044C16.9934 6.3005 13.8962 3.2 10.0967 3.2ZM10.0703 4.46872C6.95731 4.46872 4.44092 6.98772 4.44092 10.1044C4.44092 13.2211 6.95731 15.7401 10.0703 15.7401C13.1833 15.7401 15.6997 13.2211 15.6997 10.1044C15.6997 6.98772 13.1833 4.46872 10.0703 4.46872ZM4.24092 10.1044C4.24092 6.87747 6.84665 4.26872 10.0703 4.26872C13.2939 4.26872 15.8997 6.87747 15.8997 10.1044C15.8997 13.3313 13.2939 15.9401 10.0703 15.9401C6.84665 15.9401 4.24092 13.3313 4.24092 10.1044Z"/>
</svg>
