<svg viewBox="0 0 24 24" fill="currentColor" xmlns="http://www.w3.org/2000/svg">
    <path fill-rule="evenodd" clip-rule="evenodd"
          d="M17.9927 11.3966L5.39274 12.8297C4.02937 12.9848 3 14.1307 3 15.4933V15.6588L3.00454 15.8147C3.06745 16.8929 3.77869 17.7984 4.75692 18.1525L4.9233 18.2059L4.96872 18.3385C5.35373 19.3784 6.34597 20.0996 7.5 20.0996L7.65865 20.0951C8.69977 20.0352 9.58263 19.3895 9.97796 18.485L10.0461 18.3122H13.9584L13.9679 18.3385C14.3529 19.3784 15.3451 20.0996 16.5 20.0996L16.6586 20.0951C17.761 20.0316 18.6859 19.3115 19.0426 18.3228L19.0857 18.1907L19.2264 18.1447C20.2737 17.7624 21 16.7771 21 15.6312V14.0602C21 13.9583 20.9941 13.8564 20.9825 13.7551C20.8128 12.284 19.4742 11.2281 17.9927 11.3966ZM18.1976 13.1723C18.6914 13.1162 19.1376 13.4681 19.1942 13.9585C19.198 13.9923 19.2 14.0262 19.2 14.0602V15.6312C19.2 16.0997 18.8351 16.4882 18.3681 16.5224L18.2669 16.5255C17.8176 16.5419 17.4552 16.8833 17.4058 17.3169L17.4 17.4185C17.4 17.8769 17.0526 18.2546 16.6043 18.3062L16.4992 18.3122C16.0273 18.3122 15.6361 17.9499 15.6017 17.4862L15.5986 17.3857C15.5808 16.9052 15.1834 16.5249 14.6992 16.5249H9.3C8.83845 16.5249 8.45804 16.8699 8.40605 17.3143L8.4 17.4185C8.4 17.9121 7.99706 18.3122 7.5 18.3122C7.02811 18.3122 6.63695 17.9499 6.6025 17.4862L6.59939 17.3857C6.58288 16.9396 6.23903 16.5797 5.80232 16.5306L5.6722 16.5249C5.1905 16.5249 4.8 16.1371 4.8 15.6588V15.4933C4.8 15.0391 5.14312 14.6571 5.59758 14.6055L18.1976 13.1723Z"
    />
    <path fill-rule="evenodd" clip-rule="evenodd"
          d="M13.7232 3.10385C15.1057 2.71159 16.5447 3.46415 17.013 4.79499L17.061 4.94521L18.2652 9.13023C18.4017 9.60481 18.125 10.0995 17.6471 10.235C17.2033 10.361 16.742 10.133 16.5691 9.71982L16.5344 9.62126L15.3303 5.43624C15.1937 4.96166 14.6956 4.68686 14.2176 4.82245L14.1386 4.84886L14.0624 4.88241L12.4023 5.70665C11.9577 5.92738 11.4171 5.74844 11.1948 5.30698C10.9884 4.89705 11.129 4.4049 11.5061 4.15996L11.5973 4.10797L13.2574 3.28374C13.4067 3.20961 13.5626 3.14939 13.7232 3.10385Z"
          fill-opacity="0.6"/>
</svg>
