<svg width="24" height="24" viewBox="0 0 24 24" fill="none" xmlns="http://www.w3.org/2000/svg">
<path d="M3.9 5H20.1C20.5968 5 21 5.40975 21 5.91667C21 6.42358 20.5968 6.83333 20.1 6.83333H3.9C3.4032 6.83333 3 6.42358 3 5.91667C3 5.40975 3.4032 5 3.9 5Z" fill="#DBB582"/>
<path d="M6.60005 11H17.4C17.8968 11 18.3 11.4098 18.3 11.9167C18.3 12.4236 17.8968 12.8333 17.4 12.8333H6.60005C6.10325 12.8333 5.70005 12.4236 5.70005 11.9167C5.70005 11.4098 6.10325 11 6.60005 11Z" fill="#DBB582"/>
<path d="M9.3001 16.666H14.7001C15.1969 16.666 15.6001 17.0758 15.6001 17.5827C15.6001 18.0896 15.1969 18.4993 14.7001 18.4993H9.3001C8.8033 18.4993 8.4001 18.0896 8.4001 17.5827C8.4001 17.0758 8.8033 16.666 9.3001 16.666Z" fill="#DBB582"/>
</svg>
