<svg width="48" height="48" viewBox="0 0 48 48" fill="none" xmlns="http://www.w3.org/2000/svg">
<circle cx="24" cy="24" r="24" fill="#DBB582"/>
<path fill-rule="evenodd" clip-rule="evenodd" d="M24 19.8368L22.7996 18.7493C22.1614 18.1712 21.3232 17.8219 20.4 17.8219C18.4118 17.8219 16.8 19.4532 16.8 21.4656C16.8 24.1981 18.0058 26.2134 19.529 27.7056C21.0789 29.224 22.9018 30.1362 23.8971 30.5562C23.9663 30.5854 24.0336 30.5854 24.1029 30.5562C25.0982 30.1362 26.921 29.224 28.471 27.7056C29.9942 26.2133 31.2 24.1981 31.2 21.4657C31.2 19.4533 29.5882 17.8219 27.6 17.8219C26.6768 17.8219 25.8385 18.1712 25.2004 18.7493L24 19.8368ZM24 17.3917C23.0447 16.5263 21.783 16 20.4 16C17.4177 16 15 18.447 15 21.4656C15 28.162 21.0043 31.3093 23.2044 32.2378C23.717 32.4541 24.283 32.4541 24.7956 32.2378C26.9956 31.3093 33 28.1621 33 21.4657C33 18.4471 30.5823 16 27.6 16C26.217 16 24.9553 16.5263 24 17.3917Z" fill="#262626"/>
</svg>
