<svg width="24" height="25" viewBox="0 0 24 25" fill="none" xmlns="http://www.w3.org/2000/svg">
    <path d="M18.6797 4.90625H17.0625V4.0625C17.0625 3.75186 16.8107 3.5 16.5 3.5C16.1893 3.5 15.9375 3.75186 15.9375 4.0625V4.90625H8.0625V4.0625C8.0625 3.75186 7.81068 3.5 7.5 3.5C7.18932 3.5 6.9375 3.75186 6.9375 4.0625V4.90625H5.32031C4.04087 4.90625 3 5.94712 3 7.22656V19.1797C3 20.4591 4.04087 21.5 5.32031 21.5H18.6797C19.9591 21.5 21 20.4591 21 19.1797V7.22656C21 5.94712 19.9591 4.90625 18.6797 4.90625ZM5.32031 6.03125H6.9375V6.59375C6.9375 6.90439 7.18932 7.15625 7.5 7.15625C7.81068 7.15625 8.0625 6.90439 8.0625 6.59375V6.03125H15.9375V6.59375C15.9375 6.90439 16.1893 7.15625 16.5 7.15625C16.8107 7.15625 17.0625 6.90439 17.0625 6.59375V6.03125H18.6797C19.3388 6.03125 19.875 6.56745 19.875 7.22656V8.5625H4.125V7.22656C4.125 6.56745 4.6612 6.03125 5.32031 6.03125ZM18.6797 20.375H5.32031C4.6612 20.375 4.125 19.8388 4.125 19.1797V9.6875H19.875V19.1797C19.875 19.8388 19.3388 20.375 18.6797 20.375Z"
          fill="white" stroke="white" stroke-width="0.4"/>
</svg>
