<svg viewBox="0 0 24 24" fill="currentColor" xmlns="http://www.w3.org/2000/svg">
<path d="M20.7972 5.20276C20.5269 4.93241 20.0885 4.93241 19.8182 5.20276L8.59588 16.4251L4.18182 12.011C3.91151 11.7406 3.47314 11.7406 3.20275 12.011C2.9324 12.2813 2.9324 12.7197 3.20275 12.99L8.1064 17.8937C8.37665 18.1639 8.81515 18.164 9.08547 17.8937L20.7972 6.18183C21.0676 5.91145 21.0676 5.47312 20.7972 5.20276Z"/>
<path fill-rule="evenodd" clip-rule="evenodd" d="M21.1508 4.84921C20.6852 4.38356 19.9302 4.38364 19.4646 4.84919ZM21.1508 4.84921C21.6164 5.31484 21.6164 6.06974 21.1508 6.53537L9.43903 18.2472C8.97341 18.7129 8.21832 18.7127 7.75285 18.2472L2.8492 13.3436C2.38363 12.878 2.38357 12.123 2.8492 11.6574C3.31482 11.1918 4.06981 11.1917 4.53542 11.6575L8.59588 15.718L19.4646 4.84919M20.1717 5.55634C20.2468 5.48119 20.3686 5.48126 20.4436 5.55629C20.5187 5.63137 20.5188 5.75314 20.4437 5.82828V5.82828L8.73192 17.5401C8.6569 17.6152 8.53497 17.6152 8.45995 17.5401L3.55633 12.6365V12.6365C3.48122 12.5614 3.48124 12.4396 3.55631 12.3645C3.63146 12.2894 3.7532 12.2894 3.82822 12.3645L8.59588 17.1322L20.1717 5.55634Z"/>
</svg>
