<svg width="24" height="24" viewBox="0 0 24 24" fill="currentColor" xmlns="http://www.w3.org/2000/svg">
<path fill-rule="evenodd" clip-rule="evenodd" d="M6.99294 6.0001C6.53389 6.00748 6.16732 6.39543 6.1736 6.86723V11.8561C6.15875 11.9485 6.15875 12.0428 6.1736 12.1351V17.1324C6.16936 17.4409 6.32707 17.7278 6.58634 17.8834C6.84561 18.0389 7.16628 18.0389 7.42556 17.8834C7.68483 17.7278 7.84254 17.4409 7.83829 17.1324V12.8552H16.1617V17.1324C16.1575 17.4409 16.3152 17.7278 16.5745 17.8834C16.8338 18.0389 17.1544 18.0389 17.4137 17.8834C17.673 17.7278 17.8307 17.4409 17.8264 17.1324V12.1435C17.8413 12.0511 17.8413 11.9569 17.8264 11.8645V6.86723C17.8295 6.63601 17.7414 6.41335 17.5821 6.24999C17.4229 6.08664 17.2061 5.99649 16.9811 6.0001C16.522 6.00748 16.1555 6.39543 16.1617 6.86723V11.1444H7.83829V6.86723C7.84137 6.63601 7.75325 6.41335 7.59399 6.24999C7.43474 6.08664 7.21792 5.99649 6.99294 6.0001Z"/>
<path fill-rule="evenodd" clip-rule="evenodd" d="M4.49589 7.71099C4.03683 7.71836 3.67026 8.10631 3.67655 8.57811V11.1444H2.8442C2.54403 11.14 2.26482 11.3021 2.11349 11.5686C1.96217 11.835 1.96217 12.1646 2.11349 12.4311C2.26482 12.6975 2.54403 12.8596 2.8442 12.8553H3.67655V15.4215C3.6723 15.73 3.83001 16.017 4.08928 16.1725C4.34856 16.328 4.66923 16.328 4.9285 16.1725C5.18777 16.017 5.34548 15.73 5.34124 15.4215V12.1435C5.35609 12.0511 5.35609 11.9569 5.34124 11.8645V8.57811C5.34432 8.34689 5.25619 8.12423 5.09693 7.96087C4.93768 7.79752 4.72086 7.70737 4.49589 7.71099ZM19.4782 7.71098C19.0191 7.71836 18.6525 8.10631 18.6588 8.57811V11.8561C18.644 11.9485 18.644 12.0428 18.6588 12.1352V15.4215C18.6546 15.73 18.8123 16.017 19.0716 16.1725C19.3308 16.328 19.6515 16.328 19.9108 16.1725C20.17 16.017 20.3278 15.73 20.3235 15.4215V12.8553H21.1559C21.456 12.8596 21.7352 12.6975 21.8866 12.4311C22.0379 12.1646 22.0379 11.835 21.8866 11.5686C21.7352 11.3021 21.456 11.14 21.1559 11.1444H20.3235V8.57811C20.3266 8.34688 20.2385 8.12423 20.0792 7.96087C19.92 7.79751 19.7031 7.70737 19.4782 7.71098Z"/>
</svg>
