<svg xmlns="http://www.w3.org/2000/svg" width="24" height="24" fill="currentColor" viewBox="0 0 24 24">
  <path d="M20.5 6.9c-.7-.7-1.5-1-2.5-1h-1.2c-.1-.4-.4-.7-.7-1-.6-.5-1.3-.9-2-.9h-3.8c-.6 0-1.4.4-2 .9-.3.3-.5.7-.7 1H6.5c-.9-.1-1.8.3-2.5 1-.6.6-1 1.5-1 2.5v7.5c0 .9.4 1.8 1 2.5.7.7 1.5 1 2.5 1H18c.9 0 1.8-.4 2.5-1 .7-.7 1-1.6 1-2.5V9.4c0-1-.4-1.9-1-2.5Zm-.7 10c0 .5-.2.9-.5 1.3-.3.3-.8.5-1.3.5H6.5c-.5 0-.9-.2-1.3-.5-.3-.3-.5-.8-.5-1.3V9.4c0-.5.2-.9.5-1.3.4-.3.8-.5 1.3-.5h1.9c.5 0 .9-.4.9-.9 0-.2.1-.4.3-.6.3-.3.6-.4.8-.4h3.8c.2 0 .5.1.8.4.2.2.3.4.3.6 0 .5.4.9.9.9H18c.5 0 .9.2 1.3.5.3.3.5.8.5 1.3v7.5Zm-7.6-8.1c-1.1 0-2.2.4-3 1.3-.8.9-1.2 1.9-1.2 3s.4 2.2 1.2 3c.8.8 1.9 1.3 3 1.3s2.2-.4 3-1.3c.8-.8 1.2-1.9 1.2-3s-.4-2.2-1.2-3c-.8-.8-1.8-1.3-3-1.3Zm1.8 6.1c-.5.5-1.1.8-1.8.8s-1.3-.3-1.8-.7c-.4-.6-.6-1.2-.6-1.9s.3-1.3.7-1.8c.5-.5 1.1-.7 1.7-.7.7 0 1.3.3 1.8.7.5.5.7 1.1.7 1.8s-.2 1.3-.7 1.8Z"/>
</svg>
