<svg width="24" height="24" viewBox="0 0 24 24" fill="none" xmlns="http://www.w3.org/2000/svg">
<path d="M17.8446 9.42955L17.5547 18.2045C17.53 18.956 17.2134 19.6683 16.6721 20.1903C16.1308 20.7122 15.4075 21.0026 14.6556 21H9.14721C8.39577 21.0027 7.67282 20.7126 7.13162 20.1913C6.59042 19.67 6.27351 18.9584 6.24808 18.2074L5.95816 9.42955C5.95182 9.23733 6.0221 9.05046 6.15353 8.91005C6.28497 8.76964 6.4668 8.6872 6.65903 8.68085C6.85125 8.67451 7.03812 8.74479 7.17853 8.87622C7.31894 9.00766 7.40138 9.18949 7.40773 9.38172L7.69764 18.1588C7.71208 18.5335 7.87115 18.8881 8.14145 19.1479C8.41174 19.4078 8.77223 19.5529 9.14721 19.5526H14.6556C15.031 19.5528 15.3919 19.4074 15.6623 19.1469C15.9327 18.8864 16.0914 18.5311 16.1051 18.1559L16.395 9.38172C16.4014 9.18949 16.4838 9.00766 16.6242 8.87622C16.7646 8.74479 16.9515 8.67451 17.1437 8.68085C17.336 8.6872 17.5178 8.76964 17.6492 8.91005C17.7807 9.05046 17.8509 9.23733 17.8446 9.42955ZM18.8035 6.5094C18.8035 6.70163 18.7271 6.88598 18.5912 7.0219C18.4553 7.15783 18.2709 7.23419 18.0787 7.23419H5.72478C5.53256 7.23419 5.34821 7.15783 5.21228 7.0219C5.07636 6.88598 5 6.70163 5 6.5094C5 6.31718 5.07636 6.13283 5.21228 5.99691C5.34821 5.86098 5.53256 5.78462 5.72478 5.78462H7.97161C8.20125 5.78524 8.42292 5.7004 8.59346 5.5466C8.764 5.3928 8.87122 5.18106 8.89426 4.95257C8.94774 4.41658 9.19885 3.91971 9.59867 3.55875C9.99848 3.19779 10.5184 2.99861 11.057 3.00001H12.7458C13.2844 2.99861 13.8043 3.19779 14.2041 3.55875C14.6039 3.91971 14.855 4.41658 14.9085 4.95257C14.9315 5.18106 15.0388 5.3928 15.2093 5.5466C15.3798 5.7004 15.6015 5.78524 15.8312 5.78462H18.078C18.2702 5.78462 18.4546 5.86098 18.5905 5.99691C18.7264 6.13283 18.8028 6.31718 18.8028 6.5094H18.8035ZM10.1525 5.78462H13.6517C13.5565 5.567 13.4942 5.3364 13.4669 5.10043C13.449 4.92177 13.3653 4.75615 13.2322 4.63563C13.0991 4.51512 12.926 4.4483 12.7465 4.44812H11.0577C10.8782 4.4483 10.7051 4.51512 10.572 4.63563C10.4389 4.75615 10.3553 4.92177 10.3373 5.10043C10.3098 5.33644 10.2472 5.56704 10.1518 5.78462H10.1525ZM10.8823 16.7658V10.5943C10.8823 10.4021 10.806 10.2177 10.6701 10.0818C10.5341 9.94586 10.3498 9.8695 10.1576 9.8695C9.96533 9.8695 9.78098 9.94586 9.64505 10.0818C9.50913 10.2177 9.43277 10.4021 9.43277 10.5943V16.7687C9.43277 16.9609 9.50913 17.1453 9.64505 17.2812C9.78098 17.4171 9.96533 17.4935 10.1576 17.4935C10.3498 17.4935 10.5341 17.4171 10.6701 17.2812C10.806 17.1453 10.8823 16.9609 10.8823 16.7687V16.7658ZM14.3714 16.7658V10.5943C14.3714 10.4021 14.2951 10.2177 14.1592 10.0818C14.0232 9.94586 13.8389 9.8695 13.6467 9.8695C13.4544 9.8695 13.2701 9.94586 13.1342 10.0818C12.9982 10.2177 12.9219 10.4021 12.9219 10.5943V16.7687C12.9219 16.9609 12.9982 17.1453 13.1342 17.2812C13.2701 17.4171 13.4544 17.4935 13.6467 17.4935C13.8389 17.4935 14.0232 17.4171 14.1592 17.2812C14.2951 17.1453 14.3714 16.9609 14.3714 16.7687V16.7658Z" fill="#F86969"/>
</svg>
