<svg viewBox="0 0 24 24" fill="currentColor" xmlns="http://www.w3.org/2000/svg">
    <path fill-rule="evenodd" clip-rule="evenodd"
          d="M9.9455 8.03459C9.80463 8.20919 9.68038 8.36579 9.5745 8.50439C9.35838 8.78789 9.1545 9.06509 8.962 9.33419C7.46138 11.4447 6.75 13.0836 6.75 14.1429C6.75 16.9149 9.08188 19.2 12 19.2C14.9181 19.2 17.25 16.9158 17.25 14.1429C17.25 12.4437 15.5263 9.52589 12.0245 5.63519C10.9815 6.81149 10.285 7.61519 9.9455 8.03459ZM12 21C8.13425 21 5 17.9301 5 14.1429C5 12.6192 5.84963 10.6626 7.54975 8.2722C7.88468 7.7964 8.23548 7.33262 8.6015 6.8817C9.08888 6.2805 10.222 4.9863 12 3C16.6664 7.9041 19 11.6184 19 14.1429C19 17.9301 15.8658 21 12 21Z"
    />
</svg>
