<svg width="42" height="47" viewBox="0 0 42 47" fill="none" xmlns="http://www.w3.org/2000/svg">
<path d="M0.846046 1.07199C0.259363 1.77598 -0.0367588 2.67722 0.0180446 3.59199V43.408C-0.0367588 44.3228 0.259363 45.224 0.846046 45.928L0.972046 46.054L23.274 23.77V23.248L0.972046 0.945984L0.846046 1.07199Z" fill="url(#paint0_linear_7617_51629)"/>
<path d="M30.654 31.204L23.274 23.77V23.248L30.654 15.796L30.816 15.886L39.654 20.908C42.174 22.33 42.174 24.67 39.654 26.11L30.852 31.114L30.654 31.204Z" fill="url(#paint1_linear_7617_51629)"/>
<path d="M30.8701 31.096L23.2741 23.5L0.846069 45.928C1.35972 46.3795 2.01497 46.6374 2.69859 46.6572C3.38221 46.6769 4.05124 46.4572 4.59007 46.036L30.8881 31.096" fill="url(#paint2_linear_7617_51629)"/>
<path d="M30.8701 15.904L4.57213 0.964001C4.0333 0.542826 3.36427 0.323115 2.68065 0.342835C1.99703 0.362554 1.34178 0.620469 0.828125 1.072L23.2741 23.5L30.8701 15.904Z" fill="url(#paint3_linear_7617_51629)"/>
<path opacity="0.2" d="M30.6541 30.934L4.57207 45.784C4.05239 46.1726 3.42094 46.3825 2.77207 46.3825C2.1232 46.3825 1.49175 46.1726 0.972069 45.784L0.846069 45.91L0.972069 46.036C1.49057 46.4273 2.12247 46.639 2.77207 46.639C3.42167 46.639 4.05357 46.4273 4.57207 46.036L30.8701 31.096L30.6541 30.934Z" fill="white"/>
<path opacity="0.12" d="M0.846046 45.676C0.259363 44.972 -0.0367588 44.0708 0.0180446 43.156V43.426C-0.0367588 44.3408 0.259363 45.242 0.846046 45.946L0.972046 45.82L0.846046 45.676ZM39.654 25.84L30.654 30.934L30.816 31.096L39.654 26.092C40.1555 25.8564 40.586 25.4927 40.902 25.0377C41.2181 24.5826 41.4085 24.0522 41.454 23.5C41.3528 24.0017 41.1379 24.4735 40.8259 24.8791C40.5139 25.2848 40.113 25.6135 39.654 25.84Z" fill="white"/>
<path opacity="0.25" d="M4.572 1.21531L39.654 21.1593C40.1129 21.3858 40.5138 21.7145 40.8258 22.1202C41.1379 22.5258 41.3528 22.9976 41.454 23.4993C41.4084 22.9471 41.218 22.4167 40.902 21.9616C40.5859 21.5066 40.1555 21.1429 39.654 20.9073L4.572 0.963307C2.052 -0.458693 0 0.729309 0 3.60931V3.87931C0.054 0.981308 2.07 -0.206691 4.572 1.21531V1.21531Z" fill="black"/>
<defs>
<linearGradient id="paint0_linear_7617_51629" x1="21.294" y1="3.17798" x2="-8.90995" y2="33.382" gradientUnits="userSpaceOnUse">
<stop stop-color="#00A0FF"/>
<stop offset="0.01" stop-color="#00A1FF"/>
<stop offset="0.26" stop-color="#00BEFF"/>
<stop offset="0.51" stop-color="#00D2FF"/>
<stop offset="0.76" stop-color="#00DFFF"/>
<stop offset="1" stop-color="#00E3FF"/>
</linearGradient>
<linearGradient id="paint1_linear_7617_51629" x1="42.948" y1="23.5" x2="-0.593943" y2="23.5" gradientUnits="userSpaceOnUse">
<stop stop-color="#FFE000"/>
<stop offset="0.41" stop-color="#FFBD00"/>
<stop offset="0.78" stop-color="#FFA500"/>
<stop offset="1" stop-color="#FF9C00"/>
</linearGradient>
<linearGradient id="paint2_linear_7617_51629" x1="26.7481" y1="27.64" x2="-14.2199" y2="68.59" gradientUnits="userSpaceOnUse">
<stop stop-color="#FF3A44"/>
<stop offset="1" stop-color="#C31162"/>
</linearGradient>
<linearGradient id="paint3_linear_7617_51629" x1="-4.80587" y1="-12.176" x2="13.4821" y2="6.112" gradientUnits="userSpaceOnUse">
<stop stop-color="#32A071"/>
<stop offset="0.07" stop-color="#2DA771"/>
<stop offset="0.48" stop-color="#15CF74"/>
<stop offset="0.8" stop-color="#06E775"/>
<stop offset="1" stop-color="#00F076"/>
</linearGradient>
</defs>
</svg>
