<svg viewBox="0 0 24 24" fill="currentColor" xmlns="http://www.w3.org/2000/svg">
    <path opacity="0.6" fill-rule="evenodd" clip-rule="evenodd"
          d="M6.99259 6.0001C6.53354 6.00727 6.16697 6.38445 6.17325 6.84314V11.6935C6.1584 11.7833 6.1584 11.8749 6.17325 11.9647V16.8232C6.16901 17.1231 6.32672 17.4021 6.58599 17.5533C6.84526 17.7045 7.16593 17.7045 7.42521 17.5533C7.68448 17.4021 7.84219 17.1231 7.83794 16.8232V12.6648H16.1614V16.8232C16.1572 17.1231 16.3149 17.4021 16.5741 17.5533C16.8334 17.7045 17.1541 17.7045 17.4134 17.5533C17.6726 17.4021 17.8303 17.1231 17.8261 16.8232V11.9728C17.8409 11.883 17.8409 11.7914 17.8261 11.7016V6.84314C17.8292 6.61834 17.741 6.40187 17.5818 6.24305C17.4225 6.08423 17.2057 5.99659 16.9807 6.0001C16.5217 6.00727 16.1551 6.38445 16.1614 6.84314V11.0015H7.83794V6.84314C7.84102 6.61834 7.7529 6.40187 7.59364 6.24305C7.43439 6.08423 7.21757 5.99659 6.99259 6.0001Z"
    />
    <path fill-rule="evenodd" clip-rule="evenodd"
          d="M4.49589 7.66416C4.03683 7.67133 3.67026 8.04851 3.67655 8.5072V11.0022H2.8442C2.54403 10.998 2.26482 11.1555 2.11349 11.4146C1.96217 11.6737 1.96217 11.9941 2.11349 12.2531C2.26482 12.5122 2.54403 12.6698 2.8442 12.6655H3.67655V15.1605C3.6723 15.4605 3.83001 15.7395 4.08928 15.8907C4.34856 16.0419 4.66923 16.0419 4.9285 15.8907C5.18777 15.7395 5.34548 15.4605 5.34124 15.1605V11.9736C5.35609 11.8838 5.35609 11.7921 5.34124 11.7023V8.5072C5.34432 8.2824 5.25619 8.06593 5.09693 7.90711C4.93768 7.74829 4.72086 7.66065 4.49589 7.66416ZM19.4781 7.66422C19.0191 7.67139 18.6525 8.04857 18.6588 8.50726V11.6942C18.6439 11.7841 18.6439 11.8757 18.6588 11.9655V15.1606C18.6545 15.4605 18.8122 15.7395 19.0715 15.8907C19.3308 16.0419 19.6514 16.0419 19.9107 15.8907C20.17 15.7395 20.3277 15.4605 20.3235 15.1606V12.6656H21.1558C21.456 12.6698 21.7352 12.5123 21.8865 12.2532C22.0378 11.9941 22.0378 11.6737 21.8865 11.4147C21.7352 11.1556 21.456 10.998 21.1558 11.0023H20.3235V8.50726C20.3265 8.28246 20.2384 8.06599 20.0792 7.90717C19.9199 7.74835 19.7031 7.66071 19.4781 7.66422Z"
    />
</svg>
