<svg width="24" height="25" viewBox="0 0 24 25" fill="none" xmlns="http://www.w3.org/2000/svg">
<path fill-rule="evenodd" clip-rule="evenodd" d="M6.99284 6.5001C6.53378 6.50748 6.16721 6.89543 6.1735 7.36723V12.3561C6.15864 12.4485 6.15864 12.5428 6.1735 12.6351V17.6324C6.16925 17.9409 6.32696 18.2278 6.58623 18.3834C6.84551 18.5389 7.16618 18.5389 7.42545 18.3834C7.68472 18.2278 7.84243 17.9409 7.83819 17.6324V13.3552H16.1616V17.6324C16.1574 17.9409 16.3151 18.2278 16.5744 18.3834C16.8337 18.5389 17.1543 18.5389 17.4136 18.3834C17.6729 18.2278 17.8306 17.9409 17.8263 17.6324V12.6435C17.8412 12.5511 17.8412 12.4569 17.8263 12.3645V7.36723C17.8294 7.13601 17.7413 6.91335 17.582 6.74999C17.4228 6.58664 17.206 6.49649 16.981 6.5001C16.5219 6.50748 16.1554 6.89543 16.1616 7.36723V11.6444H7.83819V7.36723C7.84127 7.13601 7.75314 6.91335 7.59389 6.74999C7.43463 6.58664 7.21781 6.49649 6.99284 6.5001Z" fill="white"/>
<path fill-rule="evenodd" clip-rule="evenodd" d="M4.49589 8.21104C4.03683 8.21842 3.67026 8.60637 3.67655 9.07817V11.6445H2.8442C2.54403 11.6401 2.26482 11.8022 2.11349 12.0686C1.96217 12.3351 1.96217 12.6647 2.11349 12.9311C2.26482 13.1976 2.54403 13.3597 2.8442 13.3553H3.67655V15.9216C3.6723 16.2301 3.83001 16.5171 4.08928 16.6726C4.34856 16.8281 4.66923 16.8281 4.9285 16.6726C5.18777 16.5171 5.34548 16.2301 5.34124 15.9216V12.6436C5.35609 12.5512 5.35609 12.4569 5.34124 12.3646V9.07817C5.34432 8.84694 5.25619 8.62429 5.09693 8.46093C4.93768 8.29757 4.72086 8.20743 4.49589 8.21104ZM19.4781 8.21106C19.0191 8.21844 18.6525 8.60639 18.6588 9.07819V12.3562C18.6439 12.4486 18.6439 12.5429 18.6588 12.6352V15.9216C18.6545 16.2301 18.8122 16.5171 19.0715 16.6726C19.3308 16.8281 19.6515 16.8281 19.9107 16.6726C20.17 16.5171 20.3277 16.2301 20.3235 15.9216V13.3553H21.1558C21.456 13.3597 21.7352 13.1976 21.8865 12.9312C22.0378 12.6647 22.0378 12.3351 21.8865 12.0687C21.7352 11.8022 21.456 11.6401 21.1558 11.6445H20.3235V9.07819C20.3265 8.84697 20.2384 8.62431 20.0792 8.46095C19.9199 8.2976 19.7031 8.20745 19.4781 8.21106Z" fill="white"/>
</svg>
