<svg width="24" height="24" viewBox="0 0 24 24" fill="none" xmlns="http://www.w3.org/2000/svg">
<path d="M11.6779 3.00002C13.7122 3.00904 15.6564 3.81914 17.0786 5.24131C18.5098 6.67249 19.3109 8.60773 19.302 10.615V10.66C19.2479 13.3873 17.7177 15.8986 15.8095 17.8609C14.7293 18.968 13.5322 19.9491 12.227 20.7772C11.876 21.0743 11.3629 21.0743 11.0119 20.7772C9.07662 19.5171 7.36641 17.9329 5.98024 16.0876C4.76509 14.4854 4.07201 12.5592 4 10.552C4.018 6.36645 7.45642 2.99103 11.6779 3.00002ZM11.6779 8.33769C10.3368 8.33769 9.25665 9.40882 9.25665 10.741C9.25665 12.0561 10.3188 13.1173 11.6509 13.1353H11.6779C12.317 13.1353 12.9291 12.8923 13.3792 12.4512C13.8472 11.9921 14.1091 11.381 14.1091 10.741C14.1091 9.40882 13.0191 8.33769 11.6779 8.33769Z" fill="#EB4336"/>
</svg>
