<svg width="24" height="25" viewBox="0 0 24 25" fill="none" xmlns="http://www.w3.org/2000/svg">
<path fill-rule="evenodd" clip-rule="evenodd" d="M14.7 9.91176C14.7 11.1717 14.1417 12.3695 13.17 13.1941C15.7432 14.3364 17.3973 16.8484 17.4 19.6176C17.4 20.105 16.9971 20.5 16.5 20.5C16.0029 20.5 15.6 20.105 15.6 19.6176C15.6 16.6938 13.1823 14.3235 10.2 14.3235C7.21766 14.3235 4.8 16.6938 4.8 19.6176C4.8 20.105 4.39706 20.5 3.9 20.5C3.40294 20.5 3 20.105 3 19.6176C3.00271 16.8484 4.65685 14.3364 7.23 13.1941C6.25832 12.3695 5.69999 11.1717 5.7 9.91176C5.7 7.47521 7.71472 5.5 10.2 5.5C12.6853 5.5 14.7 7.47521 14.7 9.91176ZM7.5 9.91181C7.5 11.3737 8.70883 12.5589 10.2 12.5589C10.9161 12.5589 11.6028 12.28 12.1092 11.7836C12.6155 11.2871 12.9 10.6139 12.9 9.91181C12.9 8.44988 11.6912 7.26475 10.2 7.26475C8.70883 7.26475 7.5 8.44988 7.5 9.91181ZM19.2 11.6765H20.1C20.597 11.6765 21 12.0715 21 12.5588C21 13.0461 20.597 13.4412 20.1 13.4412H19.2V14.3235C19.2 14.8108 18.797 15.2059 18.3 15.2059C17.8029 15.2059 17.4 14.8108 17.4 14.3235V13.4412H16.5C16.0029 13.4412 15.6 13.0461 15.6 12.5588C15.6 12.0715 16.0029 11.6765 16.5 11.6765H17.4V10.7941C17.4 10.3068 17.8029 9.91176 18.3 9.91176C18.797 9.91176 19.2 10.3068 19.2 10.7941V11.6765Z" fill="white"/>
</svg>
