<svg width="24" height="25" viewBox="0 0 24 25" fill="none" xmlns="http://www.w3.org/2000/svg">
<path d="M6.60005 14.7246C6.22726 14.7246 5.92505 15.0268 5.92505 15.3996C5.92505 15.7724 6.22726 16.0746 6.60005 16.0746H12C12.3728 16.0746 12.675 15.7724 12.675 15.3996C12.675 15.0268 12.3728 14.7246 12 14.7246H6.60005Z" fill="white"/>
<path fill-rule="evenodd" clip-rule="evenodd" d="M5.7 5.5C4.20884 5.5 3 6.70884 3 8.2V17.2C3 18.6912 4.20884 19.9 5.7 19.9H18.3C19.7912 19.9 21 18.6912 21 17.2V8.2C21 6.70884 19.7912 5.5 18.3 5.5H5.7ZM18.3 6.85H5.7C4.95441 6.85 4.35 7.45441 4.35 8.2V9.325H19.65V8.2C19.65 7.45441 19.0456 6.85 18.3 6.85ZM4.35 17.2V10.675H19.65V17.2C19.65 17.9456 19.0456 18.55 18.3 18.55H5.7C4.95441 18.55 4.35 17.9456 4.35 17.2Z" fill="white"/>
</svg>
