<svg viewBox="0 0 24 24" fill="currentColor" xmlns="http://www.w3.org/2000/svg">
<path fill-rule="evenodd" clip-rule="evenodd" d="M14.7217 9.27829C15.2527 9.80931 15.5582 10.7015 15.5582 12.2093V15.9767C15.5582 17.4845 15.2527 18.3767 14.7217 18.9077C14.1907 19.4388 13.2985 19.7442 11.7907 19.7442H8.02327C6.51545 19.7442 5.62332 19.4388 5.09228 18.9077C4.56124 18.3767 4.25583 17.4845 4.25583 15.9767V12.2093C4.25583 10.7015 4.56124 9.80931 5.09228 9.27829C5.62332 8.74726 6.51545 8.44185 8.02327 8.44185H11.7907C13.2985 8.44185 14.1907 8.74726 14.7217 9.27829ZM15.6097 8.39029C14.7279 7.50853 13.4224 7.18604 11.7907 7.18604H8.02327C6.39155 7.18604 5.086 7.50853 4.20425 8.39029C3.3225 9.27206 3.00001 10.5776 3.00001 12.2093V15.9767C3.00001 17.6085 3.3225 18.914 4.20425 19.7957C5.086 20.6775 6.39155 21 8.02327 21H11.7907C13.4224 21 14.7279 20.6775 15.6097 19.7957C16.4915 18.914 16.814 17.6085 16.814 15.9767V12.2093C16.814 10.5776 16.4915 9.27206 15.6097 8.39029V8.39029Z"/>
<path fill-rule="evenodd" clip-rule="evenodd" d="M15.702 4.39139C18.0203 4.92924 19.7442 7.00472 19.7442 9.48837C19.7442 9.83515 20.0253 10.1163 20.3721 10.1163C20.7189 10.1163 21 9.83515 21 9.48837C21 5.90159 18.0984 3 14.5116 3C14.2854 3 14.0767 3.12168 13.9652 3.31854C13.8538 3.51539 13.8568 3.75698 13.9732 3.95096L14.8523 5.41608C15.0307 5.71345 15.4164 5.80987 15.7138 5.63145C16.0111 5.45303 16.1075 5.06733 15.9291 4.76997L15.702 4.39139Z"/>
<path d="M16.0952 2.66995L14.5364 3.56995" stroke-width="1.2" stroke-linecap="round"/>
</svg>
