<svg viewBox="0 0 49 48" fill="currentColor" xmlns="http://www.w3.org/2000/svg">
    <path fill-rule="evenodd" clip-rule="evenodd"
          d="M16.9727 8.06966L18.3931 6.99266C20.0581 5.73005 22.3298 5.66631 24.0616 6.83358L30.3042 11.0412C31.1106 11.5848 32.0581 11.8748 33.0273 11.8748H35.9545C39.5695 11.8748 42.5 14.8377 42.5 18.4925V19.3197C42.5 23.4314 39.2032 26.7646 35.1364 26.7646H14.6818C10.1631 26.7646 6.5 23.0611 6.5 18.4925V10.2204C6.5 8.39298 7.96525 6.91156 9.77273 6.91156C10.4808 6.91156 11.1699 7.14377 11.7364 7.57333L12.3909 8.06966C13.7485 9.09907 15.6152 9.09907 16.9727 8.06966ZM28.4888 13.7943L22.2462 9.58668C21.6689 9.19759 20.9117 9.21884 20.3567 9.63971L18.9363 10.7167C16.4151 12.6285 12.9485 12.6285 10.4273 10.7167L9.77271 10.2204V18.4925C9.77271 21.2336 11.9706 23.4558 14.6818 23.4558H35.1363C37.3957 23.4558 39.2272 21.604 39.2272 19.3197V18.4925C39.2272 16.6651 37.762 15.1836 35.9545 15.1836H33.0272C31.4119 15.1836 29.8328 14.7002 28.4888 13.7943ZM11.4091 31.0734C11.4091 30.5211 11.8568 30.0734 12.4091 30.0734H36.5909C37.1432 30.0734 37.5909 30.5212 37.5909 31.0734V32.3823C37.5909 32.9346 37.1432 33.3823 36.5909 33.3823H12.4091C11.8568 33.3823 11.4091 32.9346 11.4091 32.3823V31.0734ZM12.4091 36.6911C11.8568 36.6911 11.4091 37.1388 11.4091 37.6911V38.9999C11.4091 39.5522 11.8568 39.9999 12.4091 39.9999H23.5C24.0523 39.9999 24.5 39.5522 24.5 38.9999V37.6911C24.5 37.1388 24.0522 36.6911 23.5 36.6911H12.4091Z"/>
</svg>
