<svg width="20" height="21" viewBox="0 0 20 21" fill="none" xmlns="http://www.w3.org/2000/svg">
<path d="M8.08919 10.511L13.0449 5.47246C13.1347 5.38454 13.2063 5.27927 13.2556 5.16281C13.3049 5.04634 13.3309 4.92104 13.332 4.79423C13.3331 4.66743 13.3093 4.54167 13.262 4.42434C13.2148 4.30701 13.145 4.20046 13.0567 4.11095C12.9685 4.02143 12.8635 3.95074 12.7481 3.90303C12.6327 3.85531 12.509 3.83153 12.3844 3.83308C12.2598 3.83463 12.1368 3.86147 12.0225 3.91204C11.9083 3.9626 11.8051 4.03588 11.719 4.12756L6.1045 9.83788C5.93483 10.0112 5.83732 10.2444 5.83224 10.4889C5.82716 10.7335 5.91489 10.9707 6.07721 11.1511L11.7152 16.9002C11.8917 17.073 12.1276 17.1685 12.3725 17.1663C12.6174 17.1641 12.8516 17.0643 13.0251 16.8884C13.1985 16.7125 13.2973 16.4744 13.3003 16.2252C13.3033 15.976 13.2103 15.7355 13.0411 15.5553L8.08919 10.511Z" fill="#797979"/>
</svg>
