<svg width="129" height="168" viewBox="0 0 129 168" fill="none" xmlns="http://www.w3.org/2000/svg">
<g opacity="0.06">
<path d="M128.786 70.1101L115.658 21.5332C115.403 20.5906 114.922 19.7222 114.256 19.0008C113.59 18.2794 112.757 17.7263 111.829 17.3879L67.5643 0.559554C65.6012 -0.186518 63.4267 -0.186518 61.4636 0.559554L17.1569 17.3397C16.2359 17.6907 15.4104 18.248 14.7457 18.9674C14.0811 19.6869 13.5955 20.5488 13.3273 21.485L0.199839 70.1505C-0.0170504 70.9556 -0.0579663 71.7968 0.0798893 72.6185C0.217745 73.4403 0.531162 74.2238 0.999441 74.9173L62.0518 166.725C62.3174 167.117 62.6773 167.439 63.0994 167.661C63.5215 167.884 63.9927 168 64.4714 168C64.9501 168 65.4214 167.884 65.8434 167.661C66.2655 167.439 66.6252 167.117 66.8908 166.725L127.945 74.967C128.439 74.2684 128.771 73.4708 128.916 72.6312C129.062 71.7916 129.017 70.9307 128.786 70.1101V70.1101ZM124.915 69.4467C124.915 69.4886 124.958 69.571 124.958 69.6129L92.81 92.3687L91.5891 88.3073L112.923 25.0927L124.915 69.4467ZM27.1726 107.869L5.04038 74.6268L44.5507 55.2706L83.009 99.2889L66.2206 111.184L27.1726 107.869ZM62.8531 113.588L41.2258 128.923L29.1503 110.769L62.8531 113.588ZM88.7296 88.2622L85.6161 97.5052L85.3211 97.7119L47.1578 53.9919L74.5501 40.5631L88.7296 88.2622ZM77.0326 39.3527L110.821 22.815L90.2452 83.744L77.0326 39.3527ZM84.143 101.857L80.6082 112.385L70.5138 111.515L84.143 101.857ZM86.583 103.266L95.6711 113.676L83.4268 112.64L86.583 103.266ZM96.1347 116.406L67.7332 159.098L82.5436 115.246L96.1347 116.406ZM87.594 100.248L87.9725 99.1693L91.2957 96.8061L94.7467 108.459L87.594 100.248ZM89.4031 94.7769L90.0766 92.8286L90.4551 94.0715L89.4031 94.7769ZM67.566 4.37859L108.89 20.0463C109.136 20.1395 109.375 20.2501 109.605 20.3772L76.2377 36.7083L66.5107 4.04143C66.8909 4.16573 67.2284 4.24808 67.5643 4.37237L67.566 4.37859ZM61.4652 4.37859C62.1666 4.11093 62.9032 3.94351 63.6527 3.8814L73.793 37.9513L45.3503 51.8773L18.4218 21.0391C18.9495 20.6119 19.5468 20.2757 20.1883 20.0447L61.4652 4.37859ZM4.07366 69.4933L16.3178 24.19C16.4048 23.8638 16.5177 23.5449 16.6553 23.236L42.7432 53.1202L3.94274 72.1035C3.79688 71.2327 3.84082 70.3413 4.07193 69.4886L4.07366 69.4933ZM42.6991 131.176L67.0612 113.93L79.6792 115.008L63.6481 162.552C63.5538 162.464 63.4692 162.366 63.3957 162.261L42.6991 131.176ZM98.7861 112.399L93.6522 95.1156L124.746 73.1072C124.575 73.5198 124.378 73.9214 124.156 74.3098L98.7861 112.399Z" fill="white"/>
</g>
</svg>
