<svg width="20" height="20" viewBox="0 0 20 20" fill="currentColor" xmlns="http://www.w3.org/2000/svg">
<path fill-rule="evenodd" clip-rule="evenodd" d="M12.25 7.84346C12.25 8.89342 11.7847 9.89159 10.975 10.5788C13.1193 11.5307 14.4977 13.624 14.5 15.9317C14.5 16.3378 14.1642 16.667 13.75 16.667C13.3358 16.667 13 16.3378 13 15.9317C13 13.4951 10.9853 11.5199 8.5 11.5199C6.01472 11.5199 4 13.4951 4 15.9317C4 16.3378 3.66421 16.667 3.25 16.667C2.83579 16.667 2.5 16.3378 2.5 15.9317C2.50225 13.624 3.88071 11.5307 6.025 10.5788C5.21526 9.89159 4.74999 8.89342 4.75 7.84346C4.75 5.813 6.42893 4.16699 8.5 4.16699C10.5711 4.16699 12.25 5.813 12.25 7.84346ZM6.25 7.8435C6.25 9.06178 7.25736 10.0494 8.5 10.0494C9.09674 10.0494 9.66903 9.81698 10.091 9.4033C10.5129 8.98961 10.75 8.42854 10.75 7.8435C10.75 6.62523 9.74264 5.63762 8.5 5.63762C7.25736 5.63762 6.25 6.62523 6.25 7.8435ZM16 9.31405H16.75C17.1642 9.31405 17.5 9.64325 17.5 10.0493C17.5 10.4554 17.1642 10.7846 16.75 10.7846H16V11.5199C16 11.926 15.6642 12.2552 15.25 12.2552C14.8358 12.2552 14.5 11.926 14.5 11.5199V10.7846H13.75C13.3358 10.7846 13 10.4554 13 10.0493C13 9.64325 13.3358 9.31405 13.75 9.31405H14.5V8.57876C14.5 8.17267 14.8358 7.84346 15.25 7.84346C15.6642 7.84346 16 8.17267 16 8.57876V9.31405Z" />
</svg>
