<svg width="25" height="25" viewBox="0 0 25 25" fill="none" xmlns="http://www.w3.org/2000/svg">
<path d="M9.07739 1.74885H15.0777C20.508 1.74885 22.8281 4.06898 22.8281 9.49927V15.4996C22.8281 20.9299 20.508 23.25 15.0777 23.25H9.07739C3.6471 23.25 1.32698 20.9299 1.32698 15.4996V9.49927C1.32698 4.06898 3.6471 1.74885 9.07739 1.74885ZM15.0777 21.7499C19.688 21.7499 21.328 20.1098 21.328 15.4996V9.49927C21.328 4.88902 19.688 3.24893 15.0777 3.24893H9.07739C4.46714 3.24893 2.82706 4.88902 2.82706 9.49927V15.4996C2.82706 20.1098 4.46714 21.7499 9.07739 21.7499H15.0777Z" fill="#F7685B"/>
<path d="M8.54797 10.2909C8.73797 10.2909 8.92797 10.3609 9.07797 10.5109L12.078 13.5109L15.078 10.5109C15.368 10.2209 15.848 10.2209 16.138 10.5109C16.428 10.8009 16.428 11.2809 16.138 11.5709L12.608 15.1009C12.318 15.3909 11.838 15.3909 11.548 15.1009L8.01797 11.5709C7.72797 11.2809 7.72797 10.8009 8.01797 10.5109C8.16797 10.3609 8.35797 10.2909 8.54797 10.2909Z" fill="#F7685B"/>
</svg>
