<svg width="25" height="25" viewBox="0 0 25 25" fill="none" xmlns="http://www.w3.org/2000/svg">
<path d="M15.8582 23.2507H9.85784C4.42755 23.2507 2.10742 20.9305 2.10742 15.5002V9.49993C2.10742 4.06964 4.42755 1.74951 9.85784 1.74951H15.8582C21.2884 1.74951 23.6086 4.06964 23.6086 9.49993V15.5002C23.6086 20.9305 21.2884 23.2507 15.8582 23.2507ZM9.85784 3.24959C5.24759 3.24959 3.6075 4.88968 3.6075 9.49993V15.5002C3.6075 20.1105 5.24759 21.7506 9.85784 21.7506H15.8582C20.4684 21.7506 22.1085 20.1105 22.1085 15.5002V9.49993C22.1085 4.88968 20.4684 3.24959 15.8582 3.24959H9.85784Z" fill="#2ED47A"/>
<path d="M16.3876 14.7101C16.1976 14.7101 16.0076 14.6401 15.8576 14.4901L12.8576 11.4901L9.85758 14.4901C9.56758 14.7801 9.08758 14.7801 8.79758 14.4901C8.50758 14.2001 8.50758 13.7201 8.79758 13.4301L12.3276 9.90012C12.6176 9.61012 13.0976 9.61012 13.3876 9.90012L16.9176 13.4301C17.2076 13.7201 17.2076 14.2001 16.9176 14.4901C16.7676 14.6401 16.5776 14.7101 16.3876 14.7101Z" fill="#2ED47A"/>
</svg>
