<svg width="20" height="20" viewBox="0 0 20 20" xmlns="http://www.w3.org/2000/svg">
<g clip-path="url(#clip0_11012_476802)">
<path d="M13.3251 5.63642V14C13.3251 15.6073 12.0233 16.9091 10.416 16.9091C8.80873 16.9091 7.50692 15.6073 7.50692 14V4.90915C7.50692 3.90552 8.32146 3.09098 9.32509 3.09098C10.3287 3.09098 11.1433 3.90552 11.1433 4.90915V12.5455C11.1433 12.9455 10.816 13.2727 10.416 13.2727C10.016 13.2727 9.68873 12.9455 9.68873 12.5455V5.63642H8.59782V12.5455C8.59782 13.5491 9.41236 14.3636 10.416 14.3636C11.4196 14.3636 12.2342 13.5491 12.2342 12.5455V4.90915C12.2342 3.30189 10.9324 2.00008 9.32509 2.00008C7.71783 2.00008 6.41602 3.30189 6.41602 4.90915V14C6.41602 16.2109 8.2051 18 10.416 18C12.6269 18 14.416 16.2109 14.416 14V5.63642H13.3251Z"/>
</g>
<defs>
<clipPath id="clip0_11012_476802">
<rect width="20" height="20" fill="white"/>
</clipPath>
</defs>
</svg>
