<svg width="24" height="24" viewBox="0 0 24 24" fill="none" xmlns="http://www.w3.org/2000/svg">
<path fill-rule="evenodd" clip-rule="evenodd" d="M6.61271 6.8125C6.6043 6.90748 6.6 7.0037 6.6 7.10096V9.625L6.47143 9.625C5.54832 9.625 4.8 8.8455 4.8 7.88393C4.8 7.29219 5.2605 6.8125 5.82857 6.8125H6.61271ZM7.44421 4.9375H5.82857C4.26639 4.9375 3 6.25666 3 7.88393C3 9.88103 4.55421 11.5 6.47143 11.5H6.90727C7.5519 13.3998 9.14848 14.8312 11.1 15.1722V17.125H9.3C8.80295 17.125 8.4 17.5447 8.4 18.0625C8.4 18.5803 8.80295 19 9.3 19H11.1H12.9H14.7C15.1971 19 15.6 18.5803 15.6 18.0625C15.6 17.5447 15.1971 17.125 14.7 17.125H12.9V15.1722C14.8515 14.8312 16.4481 13.3998 17.0927 11.5H17.5286C19.4458 11.5 21 9.88104 21 7.88394C21 6.25666 19.7336 4.93751 18.1714 4.93751H16.5558C16.015 4.35917 15.2593 4 14.4231 4H9.57692C8.74068 4 7.98497 4.35917 7.44421 4.9375ZM17.3873 6.81251C17.3957 6.90748 17.4 7.0037 17.4 7.10096V9.625L17.5286 9.62501C18.4517 9.62501 19.2 8.8455 19.2 7.88394C19.2 7.2922 18.7395 6.81251 18.1714 6.81251H17.3873ZM15.6 9.625V7.10096C15.6 6.42388 15.0731 5.875 14.4231 5.875H9.57692C8.92693 5.875 8.4 6.42388 8.4 7.10096V9.625C8.4 11.696 10.0118 13.375 12 13.375C13.9869 13.375 15.598 11.6981 15.6 9.6289C15.6 9.6276 15.6 9.6263 15.6 9.625Z" fill="#E1DBC5"/>
</svg>
