<svg width="25" height="25" viewBox="0 0 25 25" fill="none" xmlns="http://www.w3.org/2000/svg">
<path d="M3.89795 9.78394C2.37795 9.78394 1.14795 8.55394 1.14795 7.03394C1.14795 5.51394 2.37795 4.28394 3.89795 4.28394C5.41795 4.28394 6.64795 5.51394 6.64795 7.03394C6.64795 8.55394 5.41795 9.78394 3.89795 9.78394ZM3.89795 5.78394C3.20795 5.78394 2.64795 6.34394 2.64795 7.03394C2.64795 7.72394 3.20795 8.28394 3.89795 8.28394C4.58795 8.28394 5.14795 7.72394 5.14795 7.03394C5.14795 6.34394 4.58795 5.78394 3.89795 5.78394Z" fill="#E1DBC5"/>
<path d="M21.8979 9.78394C20.3779 9.78394 19.1479 8.55394 19.1479 7.03394C19.1479 5.51394 20.3779 4.28394 21.8979 4.28394C23.4179 4.28394 24.6479 5.51394 24.6479 7.03394C24.6479 8.55394 23.4179 9.78394 21.8979 9.78394ZM21.8979 5.78394C21.2079 5.78394 20.6479 6.34394 20.6479 7.03394C20.6479 7.72394 21.2079 8.28394 21.8979 8.28394C22.5879 8.28394 23.1479 7.72394 23.1479 7.03394C23.1479 6.34394 22.5879 5.78394 21.8979 5.78394Z" fill="#E1DBC5"/>
<path d="M19.8979 7.78394H15.8979C15.4879 7.78394 15.1479 7.44394 15.1479 7.03394C15.1479 6.62394 15.4879 6.28394 15.8979 6.28394H19.8979C20.3079 6.28394 20.6479 6.62394 20.6479 7.03394C20.6479 7.44394 20.3079 7.78394 19.8979 7.78394Z" fill="#E1DBC5"/>
<path d="M9.89795 7.78394H5.89795C5.48795 7.78394 5.14795 7.44394 5.14795 7.03394C5.14795 6.62394 5.48795 6.28394 5.89795 6.28394H9.89795C10.3079 6.28394 10.6479 6.62394 10.6479 7.03394C10.6479 7.44394 10.3079 7.78394 9.89795 7.78394Z" fill="#E1DBC5"/>
<path d="M6.89795 20.7839H4.89795C3.65795 20.7839 2.64795 19.7739 2.64795 18.5339V16.5339C2.64795 15.2939 3.65795 14.2839 4.89795 14.2839H6.89795C8.13795 14.2839 9.14795 15.2939 9.14795 16.5339V18.5339C9.14795 19.4339 8.61795 20.234 7.79795 20.584C7.52795 20.714 7.21795 20.7839 6.89795 20.7839ZM4.89795 15.7839C4.48795 15.7839 4.14795 16.1239 4.14795 16.5339V18.5339C4.14795 18.9439 4.48795 19.2839 4.89795 19.2839H6.89795C6.99795 19.2839 7.08795 19.264 7.18795 19.214C7.47795 19.094 7.64795 18.8239 7.64795 18.5339V16.5339C7.64795 16.1239 7.30795 15.7839 6.89795 15.7839H4.89795Z" fill="#E1DBC5"/>
<path d="M20.8979 20.7839H18.8979C18.5779 20.7839 18.2679 20.714 17.9679 20.574C17.1779 20.244 16.6479 19.4339 16.6479 18.5339V16.5339C16.6479 15.2939 17.6579 14.2839 18.8979 14.2839H20.8979C22.1379 14.2839 23.1479 15.2939 23.1479 16.5339V18.5339C23.1479 19.7739 22.1379 20.7839 20.8979 20.7839ZM18.8979 15.7839C18.4879 15.7839 18.1479 16.1239 18.1479 16.5339V18.5339C18.1479 18.8239 18.3179 19.094 18.5779 19.204C18.7079 19.264 18.7979 19.2839 18.8979 19.2839H20.8979C21.3079 19.2839 21.6479 18.9439 21.6479 18.5339V16.5339C21.6479 16.1239 21.3079 15.7839 20.8979 15.7839H18.8979Z" fill="#E1DBC5"/>
<path d="M14.3979 10.7839H11.3979C10.1579 10.7839 9.14795 9.77394 9.14795 8.53394V5.53394C9.14795 4.29394 10.1579 3.28394 11.3979 3.28394H14.3979C15.6379 3.28394 16.6479 4.29394 16.6479 5.53394V8.53394C16.6479 9.77394 15.6379 10.7839 14.3979 10.7839ZM11.3979 4.78394C10.9879 4.78394 10.6479 5.12394 10.6479 5.53394V8.53394C10.6479 8.94394 10.9879 9.28394 11.3979 9.28394H14.3979C14.8079 9.28394 15.1479 8.94394 15.1479 8.53394V5.53394C15.1479 5.12394 14.8079 4.78394 14.3979 4.78394H11.3979Z" fill="#E1DBC5"/>
<path d="M19.8677 15.7839C19.8377 15.7839 19.8077 15.7839 19.7777 15.7839C19.3677 15.7339 19.0677 15.364 19.1177 14.954C19.1377 14.814 19.1377 14.6839 19.1377 14.5439C19.1377 11.9439 17.7277 9.54391 15.5477 8.44391C15.1777 8.25391 15.0277 7.80396 15.2177 7.43396C15.4077 7.06396 15.8577 6.91395 16.2277 7.10395C18.9077 8.46395 20.6377 11.3839 20.6377 14.5439C20.6377 14.7439 20.6277 14.9339 20.5977 15.1339C20.5677 15.5039 20.2477 15.7839 19.8677 15.7839Z" fill="#E1DBC5"/>
<path d="M5.92795 15.7839C5.54795 15.7839 5.22795 15.5039 5.18795 15.1239C5.16795 14.9239 5.14795 14.7339 5.14795 14.5339C5.14795 11.3739 6.87795 8.45394 9.55795 7.09394C9.92795 6.90394 10.3779 7.05395 10.5679 7.42395C10.7579 7.79395 10.6079 8.24396 10.2379 8.43396C8.05795 9.53396 6.64795 11.9339 6.64795 14.5339C6.64795 14.6739 6.65795 14.804 6.66795 14.944C6.71795 15.354 6.41795 15.7239 6.00795 15.7739C5.98795 15.7839 5.95795 15.7839 5.92795 15.7839Z" fill="#E1DBC5"/>
</svg>
