<svg xmlns="http://www.w3.org/2000/svg" fill="currentColor" viewBox="0 0 24 24">
  <path d="M18.653 4c-.3-.6-1-1-1.6-1h-4.7c-1 0-1.9.8-1.9 1.9V7c0 1 .8 1.9 1.9 1.9h3.2c.1 0 .2.1.2.2v3.8c-1.4-.3-2.9-.4-4.3-.1-1.3-1.1-3-1.6-4.7-1.1-1.7.4-3.1 1.8-3.6 3.6-.4 1.5 0 3.1 1 4.4 1 1.2 2.4 1.9 4 1.9 6.6 0 11.3-2.4 12.8-3.2l.2-.1c.3-.1.5-.4.5-.7v-2.3c0-4-1-7.9-3-11.3Zm-9.8 9.7c-.4.2-.6.7-.4 1.1.1.2.3.3.5.4.2.1.4.1.6 0 2.4-1.2 5.3-1.2 7.7 0 .2.1.4.1.6 0 .2-.1.4-.2.5-.4.2-.4 0-.9-.4-1.1l-.6-.3V9.1c0-1-.8-1.9-1.9-1.9h-.2V5.9c0-.5-.4-.8-.8-.8h-1.1c-.5 0-.8.4-.8.8s.4.8.8.8h.2v.5h-1.2c-.1 0-.2-.1-.2-.2V4.9c0-.1.1-.2.2-.2h4.7c.1 0 .2 0 .2.1 1.8 3.2 2.7 6.8 2.7 10.5v1.8c-1.7.9-5.9 2.9-11.9 2.9-1 0-2-.5-2.7-1.3-.7-.8-.9-1.9-.6-2.9.3-1.3 1.3-2.3 2.5-2.6.3-.1.6-.1.9-.1.5 0 .9.1 1.3.3l-.6.3Z"/>
</svg>