<svg width="24" height="24" viewBox="0 0 24 24" xmlns="http://www.w3.org/2000/svg">
<path fill-rule="evenodd" clip-rule="evenodd" d="M15.4585 3.72754H8.04957C4.96098 3.72754 3 5.52543 3 8.50947V16.1465C3 19.1681 4.96007 21.0003 8.04957 21.0003H15.4503C18.5428 21.0003 20.5 19.198 20.5 16.2103V8.50947C20.5094 5.5252 18.5542 3.72754 15.4585 3.72754ZM8.04928 5.45435H15.4582C17.6131 5.45435 18.756 6.50519 18.7497 8.50631L18.7497 16.2099C18.7497 18.2157 17.6021 19.2725 15.45 19.2725H8.04928C5.90563 19.2725 4.7497 18.192 4.7497 16.1461V8.509C4.7497 6.50854 5.89952 5.45435 8.04928 5.45435ZM7.75 10.5001C8.30228 10.5001 8.75 10.0524 8.75 9.50012C8.75 8.94784 8.30228 8.50012 7.75 8.50012C7.19772 8.50012 6.75 8.94784 6.75 9.50012C6.75 10.0524 7.19772 10.5001 7.75 10.5001ZM12.75 9.50012C12.75 10.0524 12.3023 10.5001 11.75 10.5001C11.1977 10.5001 10.75 10.0524 10.75 9.50012C10.75 8.94784 11.1977 8.50012 11.75 8.50012C12.3023 8.50012 12.75 8.94784 12.75 9.50012ZM15.75 10.5001C16.3023 10.5001 16.75 10.0524 16.75 9.50012C16.75 8.94784 16.3023 8.50012 15.75 8.50012C15.1977 8.50012 14.75 8.94784 14.75 9.50012C14.75 10.0524 15.1977 10.5001 15.75 10.5001ZM8.75 13.0001C8.75 13.5524 8.30228 14.0001 7.75 14.0001C7.19772 14.0001 6.75 13.5524 6.75 13.0001C6.75 12.4478 7.19772 12.0001 7.75 12.0001C8.30228 12.0001 8.75 12.4478 8.75 13.0001ZM11.75 14.0001C12.3023 14.0001 12.75 13.5524 12.75 13.0001C12.75 12.4478 12.3023 12.0001 11.75 12.0001C11.1977 12.0001 10.75 12.4478 10.75 13.0001C10.75 13.5524 11.1977 14.0001 11.75 14.0001ZM16.75 13.0001C16.75 13.5524 16.3023 14.0001 15.75 14.0001C15.1977 14.0001 14.75 13.5524 14.75 13.0001C14.75 12.4478 15.1977 12.0001 15.75 12.0001C16.3023 12.0001 16.75 12.4478 16.75 13.0001ZM7.75 17.5001C8.30228 17.5001 8.75 17.0524 8.75 16.5001C8.75 15.9478 8.30228 15.5001 7.75 15.5001C7.19772 15.5001 6.75 15.9478 6.75 16.5001C6.75 17.0524 7.19772 17.5001 7.75 17.5001ZM12.75 16.5001C12.75 17.0524 12.3023 17.5001 11.75 17.5001C11.1977 17.5001 10.75 17.0524 10.75 16.5001C10.75 15.9478 11.1977 15.5001 11.75 15.5001C12.3023 15.5001 12.75 15.9478 12.75 16.5001ZM15.75 17.5001C16.3023 17.5001 16.75 17.0524 16.75 16.5001C16.75 15.9478 16.3023 15.5001 15.75 15.5001C15.1977 15.5001 14.75 15.9478 14.75 16.5001C14.75 17.0524 15.1977 17.5001 15.75 17.5001Z"/>
<rect x="7.375" y="2" width="1.74999" height="5.18182" rx="0.874997"/>
<rect x="14.375" y="2" width="1.74999" height="5.18182" rx="0.874997"/>
</svg>
