<svg width="20" height="19" viewBox="0 0 20 19" fill="currentColor" xmlns="http://www.w3.org/2000/svg">
<path d="M16.6797 1.90625H15.0625V1.0625C15.0625 0.751859 14.8107 0.5 14.5 0.5C14.1893 0.5 13.9375 0.751859 13.9375 1.0625V1.90625H6.0625V1.0625C6.0625 0.751859 5.81068 0.5 5.5 0.5C5.18932 0.5 4.9375 0.751859 4.9375 1.0625V1.90625H3.32031C2.04087 1.90625 1 2.94712 1 4.22656V16.1797C1 17.4591 2.04087 18.5 3.32031 18.5H16.6797C17.9591 18.5 19 17.4591 19 16.1797V4.22656C19 2.94712 17.9591 1.90625 16.6797 1.90625ZM3.32031 3.03125H4.9375V3.59375C4.9375 3.90439 5.18932 4.15625 5.5 4.15625C5.81068 4.15625 6.0625 3.90439 6.0625 3.59375V3.03125H13.9375V3.59375C13.9375 3.90439 14.1893 4.15625 14.5 4.15625C14.8107 4.15625 15.0625 3.90439 15.0625 3.59375V3.03125H16.6797C17.3388 3.03125 17.875 3.56745 17.875 4.22656V5.5625H2.125V4.22656C2.125 3.56745 2.6612 3.03125 3.32031 3.03125ZM16.6797 17.375H3.32031C2.6612 17.375 2.125 16.8388 2.125 16.1797V6.6875H17.875V16.1797C17.875 16.8388 17.3388 17.375 16.6797 17.375Z" fill="currentColor" stroke="currentColor" stroke-width="0.4"/>
</svg>
