<svg width="50" height="50" viewBox="0 0 50 50" fill="none" xmlns="http://www.w3.org/2000/svg">
<circle cx="25" cy="25" r="24" stroke="#E1DBC5" stroke-width="1.6"/>
<path fill-rule="evenodd" clip-rule="evenodd" d="M25 20.8368L23.7996 19.7493C23.1614 19.1712 22.3232 18.8219 21.4 18.8219C19.4118 18.8219 17.8 20.4532 17.8 22.4656C17.8 25.1981 19.0058 27.2134 20.529 28.7056C22.0789 30.224 23.9018 31.1362 24.8971 31.5562C24.9663 31.5854 25.0336 31.5854 25.1029 31.5562C26.0982 31.1362 27.921 30.224 29.471 28.7056C30.9942 27.2133 32.2 25.1981 32.2 22.4657C32.2 20.4533 30.5882 18.8219 28.6 18.8219C27.6768 18.8219 26.8385 19.1712 26.2004 19.7493L25 20.8368ZM25 18.3917C24.0447 17.5263 22.783 17 21.4 17C18.4177 17 16 19.447 16 22.4656C16 29.162 22.0043 32.3093 24.2044 33.2378C24.717 33.4541 25.283 33.4541 25.7956 33.2378C27.9956 32.3093 34 29.1621 34 22.4657C34 19.4471 31.5823 17 28.6 17C27.217 17 25.9553 17.5263 25 18.3917Z" fill="#E1DBC5"/>
</svg>
