<svg width="16" height="13" viewBox="0 0 16 13" fill="currentColor" xmlns="http://www.w3.org/2000/svg">
<g id="Group 8652">
<path id="Vector" d="M3.5 8.35425C3.18934 8.35425 2.9375 8.6061 2.9375 8.91675C2.9375 9.2274 3.18934 9.47925 3.5 9.47925H8C8.31065 9.47925 8.5625 9.2274 8.5625 8.91675C8.5625 8.6061 8.31065 8.35425 8 8.35425H3.5Z" />
<path id="Vector_2" fill-rule="evenodd" clip-rule="evenodd" d="M2.75 0.666748C1.50736 0.666748 0.5 1.67411 0.5 2.91675V10.4167C0.5 11.6594 1.50736 12.6667 2.75 12.6667H13.25C14.4927 12.6667 15.5 11.6594 15.5 10.4167V2.91675C15.5 1.67411 14.4927 0.666748 13.25 0.666748H2.75ZM13.25 1.79175H2.75C2.12868 1.79175 1.625 2.29543 1.625 2.91675V3.85425H14.375V2.91675C14.375 2.29543 13.8713 1.79175 13.25 1.79175ZM1.625 10.4167V4.97925H14.375V10.4167C14.375 11.038 13.8713 11.5417 13.25 11.5417H2.75C2.12868 11.5417 1.625 11.038 1.625 10.4167Z" />
</g>
</svg>
