<svg viewBox="0 0 24 24" fill="currentColor" xmlns="http://www.w3.org/2000/svg">
    <path fill-rule="evenodd" clip-rule="evenodd"
          d="M12 7.74317L10.7996 6.68221C10.1615 6.11825 9.32318 5.77744 8.4 5.77744C6.41178 5.77744 4.8 7.36901 4.8 9.33231C4.8 11.9981 6.00578 13.9643 7.52902 15.4201C9.07894 16.9014 10.9018 17.7914 11.8971 18.2012C11.9663 18.2296 12.0337 18.2296 12.1029 18.2012C13.0982 17.7914 14.921 16.9014 16.471 15.4201C17.9942 13.9642 19.2 11.9981 19.2 9.33235C19.2 7.36905 17.5882 5.77744 15.6 5.77744C14.6768 5.77744 13.8385 6.11825 13.2004 6.68221L12 7.74317ZM12 5.35778C11.0447 4.51342 9.78304 4 8.4 4C5.41766 4 3 6.38736 3 9.33231C3 15.8654 9.00431 18.9359 11.2044 19.8418C11.717 20.0527 12.283 20.0527 12.7956 19.8418C14.9956 18.9359 21 15.8655 21 9.33236C21 6.3874 18.5823 4 15.6 4C14.217 4 12.9553 4.51342 12 5.35778Z"
    />
    <path fill-rule="evenodd" clip-rule="evenodd"
          d="M3.65831 12.888C3.44084 12.3327 3.26947 11.7408 3.15625 11.1105H10.6506C11.0107 11.1105 11.336 11.3224 11.4779 11.6492L12.0006 12.8536L13.8734 8.53863C14.0152 8.21187 14.3406 8 14.7006 8C15.0607 8 15.386 8.21187 15.5279 8.53863L16.6441 11.1105H20.845C20.7318 11.7408 20.5604 12.3327 20.343 12.888H16.0506C15.6906 12.888 15.3652 12.6761 15.2234 12.3493L14.7006 11.1448L12.8279 15.4598C12.686 15.7866 12.3607 15.9985 12.0006 15.9985C11.6406 15.9985 11.3152 15.7866 11.1734 15.4598L10.0572 12.888H3.65831Z"
          fill-opacity="0.6"/>
</svg>
