<svg width="24" height="24" viewBox="0 0 24 24" fill="currentColor" xmlns="http://www.w3.org/2000/svg">
<path fill-rule="evenodd" clip-rule="evenodd" d="M9.59975 3.26623L9.38718 3.31426C6.37727 3.99428 4.01391 6.30753 3.28829 9.28698C2.90247 10.8712 2.90428 12.5401 3.29151 14.1301C3.99277 17.0096 6.01006 19.4109 8.71947 20.604L9.10543 20.7647L9.26959 20.8259C10.7531 21.3343 12.3853 20.7001 13.0597 19.3035L13.1086 19.1933L14.0696 19.194C17.2201 19.194 19.9859 16.9879 20.7335 13.9181C21.0882 12.4616 21.0882 10.9423 20.7335 9.48573L20.6488 9.13804C19.9454 6.24987 17.6545 4.00747 14.7368 3.34828L14.3736 3.26622C12.8024 2.91126 11.1709 2.91126 9.59975 3.26623ZM13.9769 5.02193L14.3402 5.10399C16.5928 5.61292 18.3587 7.34142 18.9 9.56401L18.9847 9.91171C19.2712 11.0883 19.2712 12.3155 18.9847 13.4922C18.4322 15.7608 16.3845 17.394 14.0696 17.394H13.0582C12.409 17.394 11.8178 17.7605 11.5257 18.3308L11.4678 18.4561C11.2081 19.0829 10.463 19.3715 9.77888 19.0954L9.66612 19.05C7.35764 18.1184 5.62784 16.1165 5.04035 13.7042C4.72111 12.3934 4.71962 11.0166 5.03713 9.7129C5.60064 7.39908 7.43896 5.59974 9.78386 5.06996L9.99644 5.02193C11.3064 4.72596 12.6669 4.72596 13.9769 5.02193Z"/>
<path fill-rule="evenodd" clip-rule="evenodd" d="M7.49998 10.1998C7.49998 9.70277 7.86081 9.29984 8.30592 9.29984H15.6938C16.1389 9.29984 16.4998 9.70277 16.4998 10.1998C16.4998 10.6969 16.1389 11.0998 15.6938 11.0998H8.30592C7.86081 11.0998 7.49998 10.6969 7.49998 10.1998ZM7.49988 12.8995C7.49988 12.4024 7.80851 11.9996 8.18922 11.9996H12.2104C12.5911 11.9996 12.8997 12.4024 12.8997 12.8995C12.8997 13.3965 12.5911 13.7995 12.2104 13.7995H8.18922C7.80851 13.7995 7.49988 13.3965 7.49988 12.8995Z"/>
</svg>
