<svg width="18" height="18" viewBox="0 0 18 18" xmlns="http://www.w3.org/2000/svg">
<path fill-rule="evenodd" clip-rule="evenodd" d="M6.59975 0.26623L6.38718 0.314262C3.37727 0.99428 1.01391 3.30753 0.28829 6.28698C-0.0975346 7.87121 -0.0957242 9.54009 0.291511 11.1301C0.992774 14.0096 3.01006 16.4109 5.71947 17.604L6.10543 17.7647L6.26959 17.8259C7.75307 18.3343 9.38531 17.7001 10.0597 16.3035L10.1086 16.1933L11.0696 16.194C14.2201 16.194 16.9859 13.9879 17.7335 10.9181C18.0882 9.46161 18.0882 7.94227 17.7335 6.48573L17.6488 6.13804C16.9454 3.24987 14.6545 1.00747 11.7368 0.348281L11.3736 0.266222C9.80244 -0.088742 8.1709 -0.088742 6.59975 0.26623ZM10.9769 2.02193L11.3402 2.10399C13.5928 2.61292 15.3587 4.34142 15.9 6.56401L15.9847 6.91171C16.2712 8.08834 16.2712 9.31554 15.9847 10.4922C15.4322 12.7608 13.3845 14.394 11.0696 14.394H10.0582C9.40903 14.394 8.81779 14.7605 8.52572 15.3308L8.4678 15.4561C8.20807 16.0829 7.46301 16.3715 6.77888 16.0954L6.66612 16.05C4.35764 15.1184 2.62784 13.1165 2.04035 10.7042C1.72111 9.39338 1.71962 8.01662 2.03713 6.7129C2.60064 4.39908 4.43896 2.59974 6.78386 2.06996L6.99644 2.02193C8.30641 1.72596 9.66693 1.72596 10.9769 2.02193Z" />
<path fill-rule="evenodd" clip-rule="evenodd" d="M4.5 7.19978C4.5 6.70273 4.86083 6.2998 5.30595 6.2998H12.6938C13.139 6.2998 13.4998 6.70273 13.4998 7.19978C13.4998 7.69682 13.139 8.09976 12.6938 8.09976H5.30595C4.86083 8.09976 4.5 7.69682 4.5 7.19978ZM4.4999 9.8995C4.4999 9.40238 4.80853 8.99953 5.18925 8.99953H9.21042C9.59116 8.99953 9.89977 9.40238 9.89977 9.8995C9.89977 10.3965 9.59116 10.7995 9.21042 10.7995H5.18925C4.80853 10.7995 4.4999 10.3965 4.4999 9.8995Z" />
</svg>
