<svg width="11" height="19" viewBox="0 0 11 19" fill="none" xmlns="http://www.w3.org/2000/svg">
<path d="M6.04748 15.1132C6.48748 15.0732 6.87415 14.9798 7.20748 14.8332C7.54081 14.6798 7.82081 14.4865 8.04748 14.2532C8.28081 14.0198 8.45415 13.7498 8.56748 13.4432C8.68748 13.1298 8.74748 12.7865 8.74748 12.4132C8.74748 12.0798 8.68415 11.7932 8.55748 11.5532C8.43748 11.3132 8.27081 11.1065 8.05748 10.9332C7.84415 10.7532 7.59415 10.6032 7.30748 10.4832C7.02081 10.3565 6.71415 10.2398 6.38748 10.1332L6.04748 15.1132ZM5.71748 3.55315C5.28415 3.59315 4.90748 3.67982 4.58748 3.81315C4.27415 3.94649 4.01415 4.11315 3.80748 4.31315C3.60081 4.51315 3.44748 4.73982 3.34748 4.99315C3.24748 5.23982 3.19748 5.49982 3.19748 5.77315C3.19748 6.09315 3.25415 6.37315 3.36748 6.61315C3.48081 6.84649 3.63748 7.05315 3.83748 7.23315C4.03748 7.41315 4.27081 7.56982 4.53748 7.70315C4.80415 7.83649 5.09415 7.95649 5.40748 8.06315L5.71748 3.55315ZM6.50748 8.41315C6.98748 8.56649 7.46081 8.72982 7.92748 8.90315C8.39415 9.07649 8.81415 9.29982 9.18748 9.57315C9.56081 9.84649 9.86081 10.1898 10.0875 10.6032C10.3208 11.0098 10.4375 11.5198 10.4375 12.1332C10.4375 12.7332 10.3375 13.2965 10.1375 13.8232C9.93748 14.3498 9.64415 14.8132 9.25748 15.2132C8.87748 15.6132 8.40748 15.9398 7.84748 16.1932C7.29415 16.4398 6.66081 16.5865 5.94748 16.6332L5.82748 18.3832C5.82081 18.5098 5.77081 18.6198 5.67748 18.7132C5.58415 18.8132 5.46748 18.8632 5.32748 18.8632H4.66748L4.81748 16.6132C4.01081 16.5332 3.27415 16.3332 2.60748 16.0132C1.94748 15.6865 1.37748 15.2732 0.897481 14.7732L1.43748 13.9532C1.49081 13.8798 1.55748 13.8198 1.63748 13.7732C1.71748 13.7265 1.80415 13.7032 1.89748 13.7032C2.02415 13.7032 2.16748 13.7665 2.32748 13.8932C2.48748 14.0198 2.68415 14.1632 2.91748 14.3232C3.15748 14.4832 3.43748 14.6398 3.75748 14.7932C4.08415 14.9465 4.47415 15.0498 4.92748 15.1032L5.28748 9.79315C4.82081 9.65315 4.36081 9.49649 3.90748 9.32315C3.46081 9.14982 3.05748 8.91982 2.69748 8.63315C2.34415 8.34649 2.05748 7.98982 1.83748 7.56315C1.62415 7.13649 1.51748 6.59982 1.51748 5.95315C1.51748 5.46649 1.61081 4.99315 1.79748 4.53315C1.99081 4.06649 2.27081 3.65315 2.63748 3.29315C3.00415 2.93315 3.45415 2.63982 3.98748 2.41315C4.52081 2.17982 5.13081 2.04982 5.81748 2.02315L5.91748 0.583154C5.92415 0.456487 5.97081 0.343153 6.05748 0.243154C6.15081 0.143154 6.27081 0.0931537 6.41748 0.0931537H7.07748L6.94748 2.06315C7.64081 2.14982 8.24081 2.32982 8.74748 2.60315C9.26081 2.87649 9.71415 3.20982 10.1075 3.60315L9.67748 4.26315C9.54415 4.46315 9.39081 4.56315 9.21748 4.56315C9.12415 4.56315 9.00748 4.52315 8.86748 4.44315C8.73415 4.35649 8.57081 4.25649 8.37748 4.14315C8.19081 4.02982 7.96748 3.91982 7.70748 3.81315C7.45415 3.70649 7.16415 3.62649 6.83748 3.57315L6.50748 8.41315Z" fill="#E1DBC5"/>
</svg>
