<svg width="20" height="20" viewBox="0 0 20 20" fill="currentColor" xmlns="http://www.w3.org/2000/svg">
<path d="M14.1665 15.4163H5.83317C2.9665 15.4163 1.0415 13.4913 1.0415 10.6247V5.62467C1.0415 2.75801 2.9665 0.833008 5.83317 0.833008H14.1665C17.0332 0.833008 18.9582 2.75801 18.9582 5.62467V10.6247C18.9582 13.4913 17.0332 15.4163 14.1665 15.4163ZM5.83317 2.08301C3.68317 2.08301 2.2915 3.47467 2.2915 5.62467V10.6247C2.2915 12.7747 3.68317 14.1663 5.83317 14.1663H14.1665C16.3165 14.1663 17.7082 12.7747 17.7082 10.6247V5.62467C17.7082 3.47467 16.3165 2.08301 14.1665 2.08301H5.83317Z" />
<path d="M8.82455 11.0657C8.58289 11.0657 8.34955 11.0074 8.14121 10.8907C7.65788 10.6157 7.37451 10.0574 7.37451 9.3657V6.89904C7.37451 6.20738 7.64955 5.64905 8.14121 5.37405C8.62455 5.09905 9.24953 5.14903 9.8412 5.50736L11.8996 6.74071C12.4662 7.08237 12.7912 7.59072 12.7912 8.13238C12.7912 8.67405 12.4662 9.18237 11.8996 9.52404L9.8412 10.7574C9.49953 10.9574 9.14955 11.0657 8.82455 11.0657ZM8.82455 6.43238C8.79122 6.43238 8.7662 6.4407 8.74953 6.44904C8.6912 6.48237 12.0832 7.87405 12.0832 8.13238L9.1665 9.37467C9.1665 9.62467 10.3582 7.24967 10.4165 7.29134C10.4832 7.32467 8.97456 9.81571 9.19122 9.68237L8.82455 6.43238C9.03289 6.30738 11.2495 7.79903 11.5329 8.12404C11.5329 8.04904 11.4579 7.93236 11.2495 7.79903L9.19122 6.56571C9.04122 6.47405 8.90789 6.43238 8.82455 6.43238Z" />
<path d="M5.8335 18.125H14.1668" stroke-width="1.25"/>
</svg>
