<svg width="24" height="24" viewBox="0 0 24 24" xmlns="http://www.w3.org/2000/svg">
<path d="M17 18.5H7C3.56 18.5 1.25 16.19 1.25 12.75V6.75C1.25 3.31 3.56 1 7 1H17C20.44 1 22.75 3.31 22.75 6.75V12.75C22.75 16.19 20.44 18.5 17 18.5ZM7 2.5C4.42 2.5 2.75 4.17 2.75 6.75V12.75C2.75 15.33 4.42 17 7 17H17C19.58 17 21.25 15.33 21.25 12.75V6.75C21.25 4.17 19.58 2.5 17 2.5H7Z"/>
<path d="M10.5916 13.2792C10.3016 13.2792 10.0216 13.2092 9.77161 13.0692C9.19161 12.7392 8.85156 12.0692 8.85156 11.2392V8.27924C8.85156 7.44924 9.18161 6.77925 9.77161 6.44925C10.3516 6.11925 11.1016 6.17923 11.8116 6.60923L14.2816 8.08924C14.9616 8.49924 15.3516 9.10925 15.3516 9.75925C15.3516 10.4093 14.9616 11.0192 14.2816 11.4292L11.8116 12.9092C11.4016 13.1492 10.9816 13.2792 10.5916 13.2792ZM10.5916 7.71924C10.5516 7.71924 10.5216 7.72923 10.5016 7.73923C10.4316 7.77923 14.502 9.44925 14.502 9.75925L11.002 11.25C11.002 11.55 12.432 8.7 12.502 8.75C12.582 8.79 10.7716 11.7792 11.0316 11.6192L10.5916 7.71924C10.8416 7.56924 13.5016 9.35923 13.8416 9.74924C13.8416 9.65924 13.7516 9.51923 13.5016 9.35923L11.0316 7.87925C10.8516 7.76925 10.6916 7.71924 10.5916 7.71924Z"/>
<path d="M7 21.75H17" stroke="currentColor" stroke-width="1.5"/>
</svg>
