<svg width="25" height="24" viewBox="0 0 25 24" fill="none" xmlns="http://www.w3.org/2000/svg">
<path d="M17.5 18.5H7.5C4.06 18.5 1.75 16.19 1.75 12.75V6.75C1.75 3.31 4.06 1 7.5 1H17.5C20.94 1 23.25 3.31 23.25 6.75V12.75C23.25 16.19 20.94 18.5 17.5 18.5ZM7.5 2.5C4.92 2.5 3.25 4.17 3.25 6.75V12.75C3.25 15.33 4.92 17 7.5 17H17.5C20.08 17 21.75 15.33 21.75 12.75V6.75C21.75 4.17 20.08 2.5 17.5 2.5H7.5Z" fill="#797979"/>
<path d="M7.5 21.75H17.5" stroke="#797979" stroke-width="1.5"/>
<path d="M12.5 6.25V13.75M16.25 10L8.75 10" stroke="#797979"/>
</svg>
