<svg width="24" height="24" viewBox="0 0 24 24" fill="currentColor" xmlns="http://www.w3.org/2000/svg">
<path d="M11.3204 18.6744L15.2878 14.6096C15.5528 14.3381 15.7032 13.9639 15.7032 13.5751V6.24521C15.7032 5.43812 15.0586 4.77778 14.2709 4.77778H7.82561C7.2527 4.77778 6.73707 5.12996 6.50791 5.66558L4.17329 11.2492C3.57173 12.7019 4.61014 14.3161 6.14984 14.3161H10.196L9.5157 17.6765C9.44409 18.0434 9.55151 18.4176 9.80932 18.6817C10.2318 19.1073 10.905 19.1073 11.3204 18.6744ZM18.5677 4.77778C17.78 4.77778 17.1354 5.43812 17.1354 6.24521V12.115C17.1354 12.9221 17.78 13.5824 18.5677 13.5824C19.3555 13.5824 20 12.9221 20 12.115V6.24521C20 5.43812 19.3555 4.77778 18.5677 4.77778Z"/>
</svg>
