<svg width="24" height="24" viewBox="0 0 24 24" fill="none" xmlns="http://www.w3.org/2000/svg">
<path d="M19.5263 12.9766C19.7879 12.9766 20 12.7645 20 12.5029V5.5458C20 5.28419 19.7879 5.07213 19.5263 5.07213H16.6725V12.9766H19.5263Z" fill="#E1DBC5"/>
<path d="M5.5193 11.6241L5.21531 12.0631C5.08666 12.2489 5.01148 12.4734 5.01148 12.7161C5.01148 13.3505 5.52837 13.8674 6.1627 13.8674H9.6484H10.2708L10.1367 14.4751C10.0315 14.9516 9.88851 15.6632 9.78931 16.4047L9.78931 16.4047C9.65931 17.3765 9.64568 18.0882 9.72753 18.5847C9.80942 19.0815 9.97049 19.277 10.1132 19.3595L5.5193 11.6241ZM5.5193 11.6241L5.06136 11.3496M5.5193 11.6241L5.06136 11.3496M5.06136 11.3496C4.7236 11.1471 4.49949 10.7789 4.49949 10.361C4.49949 9.94319 4.7236 9.57501 5.0614 9.37251L5.51935 9.09799L5.21539 8.65902C5.08671 8.47318 5.01154 8.24868 5.01154 8.00592C5.01154 7.55267 5.27556 7.15763 5.66114 6.96985L6.15963 6.72707L5.86679 6.25624C5.75737 6.08033 5.69421 5.87336 5.69421 5.65079C5.69421 5.01646 6.2111 4.49957 6.84543 4.49957H10.6435C12.2093 4.49957 13.7455 4.74232 15.2246 5.22174V13.1748C14.8049 13.5009 14.2985 13.9243 13.8288 14.3975C13.2898 14.9403 12.7621 15.5848 12.4923 16.2511L12.4922 16.251L12.4887 16.2603L11.5726 18.6591L11.5688 18.6688M5.06136 11.3496L11.5688 18.6688M11.5688 18.6688L11.5655 18.6787M11.5688 18.6688L11.5655 18.6787M11.5655 18.6787C11.3838 19.2213 11.0909 19.3952 10.9216 19.4597L11.5655 18.6787ZM10.9215 19.4597C10.691 19.5474 10.4088 19.5303 10.1133 19.3595L10.9215 19.4597Z" stroke="#E1DBC5"/>
</svg>
