<svg width="24" height="24" viewBox="0 0 24 24" fill="none" xmlns="http://www.w3.org/2000/svg">
<path d="M19.5004 5.57227V12.4767H17.1729V5.57227H19.5004Z" stroke="currentColor"/>
<path d="M10.1127 19.3599C9.97002 19.2774 9.80895 19.0819 9.72706 18.5851C9.64521 18.0886 9.65884 17.3769 9.78884 16.4051C9.88804 15.6636 10.031 14.952 10.1362 14.4755L10.2703 13.8678H9.64793H6.16223C5.5279 13.8678 5.01101 13.3509 5.01101 12.7165C5.01101 12.4738 5.08619 12.2493 5.21484 12.0635L5.51888 11.5L5.06089 11.35C4.72313 11.1475 4.49902 10.7793 4.49902 10.3614C4.49902 9.94362 4.72313 9.57544 5.06093 9.37294L5.51888 9.09842L5.21492 8.65945C5.08624 8.47361 5.01107 8.24911 5.01107 8.00635C5.01107 7.5531 5.27509 7.15806 5.66067 6.97028L6.15916 6.7275L5.86632 6.25667C5.7569 6.08076 5.69374 5.87379 5.69374 5.65122C5.69374 5.01689 6.21063 4.5 6.84496 4.5H10.643C12.2088 4.5 13.745 4.74275 15.2241 5.22217V13.1752C14.8044 13.5013 14.298 13.9247 13.8283 14.3979C13.2893 14.9407 12.7616 15.5852 12.4918 16.2515L12.4882 16.2607L11.565 18.6791M10.1127 19.3599C10.4082 19.5307 10.6906 19.5478 10.9211 19.4601M10.1127 19.3599L10.9211 19.4601M11.565 18.6791C11.3833 19.2217 11.0904 19.3956 10.9211 19.4601M11.565 18.6791L10.9211 19.4601" stroke="currentColor"/>
</svg>
