<svg width="24" height="25" viewBox="0 0 24 25" fill="none" xmlns="http://www.w3.org/2000/svg">
<path d="M12.75 16.7279H13.4C14.05 16.7279 14.59 16.1479 14.59 15.4479C14.59 14.5779 14.28 14.4079 13.77 14.2279L12.76 13.8779V16.7279H12.75Z" fill="#E1DBC5"/>
<path d="M11.97 2.70802C6.45001 2.72802 1.98001 7.21802 2.00001 12.738C2.02001 18.258 6.51001 22.728 12.03 22.708C17.55 22.688 22.02 18.198 22 12.678C21.98 7.15802 17.49 2.69802 11.97 2.70802ZM14.26 12.808C15.04 13.078 16.09 13.658 16.09 15.448C16.09 16.988 14.88 18.228 13.4 18.228H12.75V18.808C12.75 19.218 12.41 19.558 12 19.558C11.59 19.558 11.25 19.218 11.25 18.808V18.228H10.89C9.25001 18.228 7.92001 16.848 7.92001 15.148C7.92001 14.738 8.26001 14.398 8.67001 14.398C9.08001 14.398 9.42001 14.738 9.42001 15.148C9.42001 16.018 10.08 16.728 10.89 16.728H11.25V13.348L9.74001 12.808C8.96001 12.538 7.91001 11.958 7.91001 10.168C7.91001 8.62802 9.12001 7.38802 10.6 7.38802H11.25V6.80802C11.25 6.39802 11.59 6.05802 12 6.05802C12.41 6.05802 12.75 6.39802 12.75 6.80802V7.38802H13.11C14.75 7.38802 16.08 8.76802 16.08 10.468C16.08 10.878 15.74 11.218 15.33 11.218C14.92 11.218 14.58 10.878 14.58 10.468C14.58 9.59802 13.92 8.88802 13.11 8.88802H12.75V12.268L14.26 12.808Z" fill="#E1DBC5"/>
<path d="M9.41998 10.1782C9.41998 11.0482 9.72998 11.2182 10.24 11.3982L11.25 11.7482V8.88818H10.6C9.94998 8.88818 9.41998 9.46818 9.41998 10.1782Z" fill="#E1DBC5"/>
</svg>
