<svg width="20" height="20" viewBox="0 0 20 20" fill="currentColor" xmlns="http://www.w3.org/2000/svg">
<path d="M14.1665 17.2918H5.83317C2.15817 17.2918 1.0415 16.1752 1.0415 12.5002V12.0835C1.0415 11.7418 1.32484 11.4585 1.6665 11.4585C2.4665 11.4585 3.12484 10.8002 3.12484 10.0002C3.12484 9.20016 2.4665 8.54183 1.6665 8.54183C1.32484 8.54183 1.0415 8.2585 1.0415 7.91683V7.50016C1.0415 3.82516 2.15817 2.7085 5.83317 2.7085H14.1665C17.8415 2.7085 18.9582 3.82516 18.9582 7.50016V8.3335C18.9582 8.67516 18.6748 8.9585 18.3332 8.9585C17.5332 8.9585 16.8748 9.61683 16.8748 10.4168C16.8748 11.2168 17.5332 11.8752 18.3332 11.8752C18.6748 11.8752 18.9582 12.1585 18.9582 12.5002C18.9582 16.1752 17.8415 17.2918 14.1665 17.2918ZM2.2915 12.6335C2.30817 15.5002 2.89984 16.0418 5.83317 16.0418H14.1665C16.9498 16.0418 17.6248 15.5502 17.6998 13.0502C16.5082 12.7668 15.6248 11.6918 15.6248 10.4168C15.6248 9.14183 16.5165 8.06683 17.7082 7.7835V7.50016C17.7082 4.52516 17.1498 3.9585 14.1665 3.9585H5.83317C2.89984 3.9585 2.30817 4.50016 2.2915 7.36683C3.48317 7.65016 4.37484 8.72516 4.37484 10.0002C4.37484 11.2752 3.48317 12.3502 2.2915 12.6335Z" />
<path d="M8.3335 6.04183C7.99183 6.04183 7.7085 5.7585 7.7085 5.41683V3.3335C7.7085 2.99183 7.99183 2.7085 8.3335 2.7085C8.67516 2.7085 8.9585 2.99183 8.9585 3.3335V5.41683C8.9585 5.7585 8.67516 6.04183 8.3335 6.04183Z" />
<path d="M8.3335 12.1501C7.99183 12.1501 7.7085 11.8668 7.7085 11.5251V8.4668C7.7085 8.12513 7.99183 7.8418 8.3335 7.8418C8.67516 7.8418 8.9585 8.12513 8.9585 8.4668V11.5251C8.9585 11.8751 8.67516 12.1501 8.3335 12.1501Z" />
<path d="M8.3335 17.2918C7.99183 17.2918 7.7085 17.0085 7.7085 16.6668V14.5835C7.7085 14.2418 7.99183 13.9585 8.3335 13.9585C8.67516 13.9585 8.9585 14.2418 8.9585 14.5835V16.6668C8.9585 17.0085 8.67516 17.2918 8.3335 17.2918Z" />
</svg>
