<svg width="20" height="20" viewBox="0 0 20 20" xmlns="http://www.w3.org/2000/svg">
<g clip-path="url(#clip0_11012_476801)">
<rect width="20" height="20" fill="#19191B"/>
<path d="M15.6597 4.34106C12.5387 1.21977 7.46096 1.21977 4.34058 4.3403C1.2196 7.46083 1.21991 12.5388 4.34089 15.6599C7.46096 18.7803 12.5387 18.7803 15.6594 15.6593C18.7801 12.5388 18.7799 7.46113 15.6597 4.34106ZM14.7864 14.7866C12.1473 17.4257 7.85289 17.426 5.21361 14.7869C2.57387 12.1473 2.57417 7.85246 5.21361 5.21333C7.85274 2.57434 12.147 2.57404 14.7867 5.21363C17.4258 7.85276 17.4255 12.1476 14.7864 14.7866ZM7.01457 7.83391C7.01457 7.31736 7.4335 6.89843 7.95005 6.89843C8.46644 6.89843 8.88538 7.31721 8.88538 7.83391C8.88538 8.35075 8.46644 8.76954 7.95005 8.76954C7.4335 8.76954 7.01457 8.35075 7.01457 7.83391ZM11.2563 7.83391C11.2563 7.31736 11.6755 6.89843 12.1921 6.89843C12.7085 6.89843 13.1274 7.31721 13.1274 7.83391C13.1274 8.35075 12.7086 8.76954 12.1921 8.76954C11.6755 8.76954 11.2563 8.35075 11.2563 7.83391ZM13.4679 11.6653C12.8881 13.006 11.5304 13.8722 10.0091 13.8722C8.45512 13.8722 7.08939 13.0016 6.52971 11.6541C6.43376 11.4235 6.54313 11.1585 6.7741 11.0626C6.83082 11.0392 6.88966 11.0281 6.94759 11.0281C7.125 11.0281 7.29336 11.1329 7.36562 11.3071C7.78455 12.3158 8.82217 12.9672 10.0091 12.9672C11.1692 12.9672 12.2008 12.3153 12.6371 11.3061C12.7364 11.0766 13.0028 10.9709 13.2321 11.0703C13.4614 11.1697 13.5671 11.436 13.4679 11.6653Z"/>
</g>
<defs>
<clipPath id="clip0_11012_476801">
<rect width="20" height="20" fill="white"/>
</clipPath>
</defs>
</svg>
