<svg width="24" height="24" viewBox="0 0 24 24" fill="currentColor" xmlns="http://www.w3.org/2000/svg">
<path fill-rule="evenodd" clip-rule="evenodd" d="M8.23636 4.03483L8.94653 3.49633C9.77907 2.86503 10.9149 2.83315 11.7808 3.41679L14.9021 5.52062C15.3053 5.79239 15.779 5.93741 16.2636 5.93741H17.7273C19.5347 5.93741 21 7.41883 21 9.24626V9.65986C21 11.7157 19.3516 13.3823 17.3182 13.3823H7.09091C4.83156 13.3823 3 11.5305 3 9.24626V5.1102C3 4.19649 3.73262 3.45578 4.63636 3.45578C4.99042 3.45578 5.33493 3.57188 5.61818 3.78666L5.94545 4.03483C6.62424 4.54954 7.55758 4.54954 8.23636 4.03483ZM13.9944 6.89717L10.8731 4.79334C10.5845 4.5988 10.2058 4.60942 9.92833 4.81985L9.21817 5.35835C7.95756 6.31424 6.22423 6.31424 4.96363 5.35835L4.63635 5.11019V9.24624C4.63635 10.6168 5.73529 11.7279 7.0909 11.7279H17.3182C18.4478 11.7279 19.3636 10.802 19.3636 9.65985V9.24624C19.3636 8.33253 18.631 7.59182 17.7273 7.59182H16.2636C15.456 7.59182 14.6664 7.35012 13.9944 6.89717ZM5.45453 15.8639C5.45453 15.4071 5.82488 15.0367 6.28174 15.0367H17.7182C18.1751 15.0367 18.5454 15.4071 18.5454 15.8639C18.5454 16.3208 18.1751 16.6911 17.7182 16.6911H6.28174C5.82488 16.6911 5.45453 16.3208 5.45453 15.8639ZM6.28174 18.3455C5.82488 18.3455 5.45453 18.7159 5.45453 19.1728C5.45453 19.6296 5.82488 20 6.28174 20H11.1728C11.6296 20 12 19.6296 12 19.1728C12 18.7159 11.6296 18.3455 11.1728 18.3455H6.28174Z" />
</svg>
