<svg width="25" height="24" viewBox="0 0 25 24" fill="none" xmlns="http://www.w3.org/2000/svg">
<path fill-rule="evenodd" clip-rule="evenodd" d="M5.5 12C5.5 11.4478 5.0523 11 4.5 11C3.9477 11 3.5 11.4478 3.5 12V15.2413C3.5 16.0463 3.5 16.7107 3.5442 17.2519C3.5901 17.814 3.6887 18.3307 3.936 18.816C4.3195 19.5686 4.9314 20.1806 5.684 20.5641C6.1694 20.8114 6.6861 20.9099 7.2482 20.9558C7.7894 21.0001 8.4537 21.0001 9.2587 21H15.7413C16.5463 21.0001 17.2106 21.0001 17.7518 20.9558C18.3139 20.9099 18.8306 20.8114 19.316 20.5641C20.0686 20.1806 20.6805 19.5686 21.064 18.816C21.3113 18.3307 21.4099 17.814 21.4558 17.2519C21.5 16.7107 21.5 16.0463 21.5 15.2415V15.2414V12C21.5 11.4478 21.0523 11 20.5 11C19.9477 11 19.5 11.4478 19.5 12V15.2C19.5 16.0566 19.4992 16.6389 19.4625 17.089C19.4266 17.5274 19.3617 17.7516 19.282 17.908C19.0903 18.2843 18.7843 18.5903 18.408 18.7821C18.2516 18.8617 18.0274 18.9267 17.589 18.9625C17.1389 18.9993 16.5566 19 15.7 19H9.3C8.4434 19 7.8611 18.9993 7.411 18.9625C6.9726 18.9267 6.7484 18.8617 6.592 18.7821C6.2157 18.5903 5.9097 18.2843 5.718 17.908C5.6383 17.7516 5.5734 17.5274 5.5376 17.089C5.5008 16.6389 5.5 16.0566 5.5 15.2V12ZM12.5 15.9999C13.0523 15.9999 13.5 15.5522 13.5 14.9999L13.5 6.4141L14.7929 7.707C15.1834 8.0975 15.8166 8.0975 16.2071 7.707C16.5976 7.3165 16.5976 6.6833 16.2071 6.2928L13.2071 3.2928C12.8166 2.9023 12.1834 2.9023 11.7929 3.2928L8.79289 6.2928C8.40237 6.6833 8.40237 7.3165 8.79289 7.707C9.18342 8.0975 9.81658 8.0975 10.2071 7.707L11.5 6.4141L11.5 14.9999C11.5 15.5522 11.9477 15.9999 12.5 15.9999Z" fill="#19191B"/>
</svg>
