<svg viewBox="0 0 24 24" fill="currentColor" xmlns="http://www.w3.org/2000/svg">
<path d="M19.9875 8.55469C18.3094 8.83125 15.5719 8.90625 13.7532 5.45625C11.8032 1.74844 8.65317 1.63594 6.81099 1.97344C5.91567 2.1375 5.24536 2.8875 5.24536 3.61406V12.8297C5.77505 13.0312 6.34224 12.8203 6.48755 12.7922C6.52505 12.7828 6.55786 12.7781 6.60005 12.7687C7.77192 12.5109 9.00942 12.3891 12.075 13.8609C15.9188 15.7031 19.2844 12.3094 20.5875 9.94687C20.6813 9.78281 20.9954 9 20.9954 8.25C20.5407 8.4375 19.9875 8.55469 19.9875 8.55469V8.55469Z"/>
<path d="M4.125 1.5H3.375C3.16875 1.5 3 1.66875 3 1.875V22.125C3 22.3313 3.16875 22.5 3.375 22.5H4.125C4.33125 22.5 4.5 22.3313 4.5 22.125V1.875C4.5 1.66875 4.33125 1.5 4.125 1.5Z"/>
</svg>
