<svg width="48" height="48" viewBox="0 0 48 48" fill="none" xmlns="http://www.w3.org/2000/svg">
<circle cx="24" cy="24" r="24" fill="#DBB582"/>
<path fill-rule="evenodd" clip-rule="evenodd" d="M24 17.3917C23.0447 16.5263 21.783 16 20.4 16C17.4177 16 15 18.447 15 21.4656C15 28.162 21.0043 31.3093 23.2044 32.2378C23.717 32.4541 24.283 32.4541 24.7956 32.2378C26.9956 31.3093 33 28.1621 33 21.4657C33 18.4471 30.5823 16 27.6 16C26.217 16 24.9553 16.5263 24 17.3917Z" fill="#262626"/>
<path fill-rule="evenodd" clip-rule="evenodd" d="M23.9998 19.8367L22.7994 18.7493C22.1613 18.1712 21.323 17.8219 20.3998 17.8219C18.4116 17.8219 16.7998 19.4532 16.7998 21.4656C16.7998 24.1981 18.0056 26.2134 19.5288 27.7056C21.0787 29.224 22.9016 30.1362 23.8969 30.5562C23.9661 30.5854 24.0335 30.5854 24.1027 30.5562C25.098 30.1362 26.9208 29.224 28.4708 27.7056C29.994 26.2133 31.1998 24.1981 31.1998 21.4657C31.1998 19.4533 29.588 17.8219 27.5998 17.8219C26.6766 17.8219 25.8383 18.1712 25.2002 18.7493L23.9998 19.8367Z" fill="#262626"/>
</svg>
