<svg width="24" height="24" viewBox="0 0 24 24" fill="currentColor" xmlns="http://www.w3.org/2000/svg">
<path d="M6.28571 15.4286C6.28571 14.7974 5.77404 14.2857 5.14286 14.2857V14.2857C4.51167 14.2857 4 14.7974 4 15.4286V18.4C4 19.2837 4.71634 20 5.6 20H8.57143C9.20261 20 9.71429 19.4883 9.71429 18.8571V18.8571C9.71429 18.226 9.20261 17.7143 8.57143 17.7143H6.48571C6.37526 17.7143 6.28571 17.6247 6.28571 17.5143V15.4286ZM4 8.57143C4 9.20261 4.51167 9.71429 5.14286 9.71429V9.71429C5.77404 9.71429 6.28571 9.20261 6.28571 8.57143V6.48571C6.28571 6.37526 6.37526 6.28571 6.48571 6.28571H8.57143C9.20261 6.28571 9.71429 5.77404 9.71429 5.14286V5.14286C9.71429 4.51167 9.20261 4 8.57143 4H5.6C4.71635 4 4 4.71634 4 5.6V8.57143ZM17.7143 17.5143C17.7143 17.6247 17.6247 17.7143 17.5143 17.7143H15.4286C14.7974 17.7143 14.2857 18.226 14.2857 18.8571V18.8571C14.2857 19.4883 14.7974 20 15.4286 20H18.4C19.2837 20 20 19.2837 20 18.4V15.4286C20 14.7974 19.4883 14.2857 18.8571 14.2857V14.2857C18.226 14.2857 17.7143 14.7974 17.7143 15.4286V17.5143ZM15.4286 4C14.7974 4 14.2857 4.51167 14.2857 5.14286V5.14286C14.2857 5.77404 14.7974 6.28571 15.4286 6.28571H17.5143C17.6247 6.28571 17.7143 6.37526 17.7143 6.48571V8.57143C17.7143 9.20261 18.226 9.71429 18.8571 9.71429V9.71429C19.4883 9.71429 20 9.20261 20 8.57143V5.6C20 4.71635 19.2837 4 18.4 4H15.4286Z"/>
</svg>
