<svg xmlns="http://www.w3.org/2000/svg" width="16" height="18" viewBox="0 0 16 18" fill="none">
    <path d="M7.67794 1.78889e-05C9.71219 0.00903696 11.6564 0.819137 13.0786 2.24131C14.5098 3.67249 15.3109 5.60773 15.302 7.61497V7.65998C15.2479 10.3873 13.7177 12.8986 11.8095 14.8609C10.7293 15.968 9.53217 16.9491 8.22701 17.7772C7.87597 18.0743 7.36291 18.0743 7.01186 17.7772C5.07662 16.5171 3.36641 14.9329 1.98024 13.0876C0.765094 11.4854 0.0720089 9.55921 0 7.55197C0.0180022 3.36645 3.45642 -0.00896526 7.67794 1.78889e-05ZM7.67794 5.33769C6.33678 5.33769 5.25665 6.40882 5.25665 7.74099C5.25665 9.05605 6.31878 10.1173 7.65094 10.1353H7.67794C8.31702 10.1353 8.9291 9.89225 9.37915 9.4512C9.84721 8.99214 10.1091 8.38097 10.1091 7.74099C10.1091 6.40882 9.01911 5.33769 7.67794 5.33769Z" fill="#DBB582"/>
</svg>