<svg width="25" height="25" viewBox="0 0 25 25" fill="none" xmlns="http://www.w3.org/2000/svg">
<path d="M12.9175 23.2332C6.98748 23.2332 2.16748 18.4132 2.16748 12.4832C2.16748 6.55315 6.98748 1.73315 12.9175 1.73315C18.8475 1.73315 23.6675 6.55315 23.6675 12.4832C23.6675 12.8932 23.3275 13.2332 22.9175 13.2332C22.5075 13.2332 22.1675 12.8932 22.1675 12.4832C22.1675 7.38315 18.0175 3.23315 12.9175 3.23315C7.81748 3.23315 3.66748 7.38315 3.66748 12.4832C3.66748 17.5832 7.81748 21.7332 12.9175 21.7332C13.3275 21.7332 13.6675 22.0732 13.6675 22.4832C13.6675 22.8932 13.3275 23.2332 12.9175 23.2332Z" fill="#E1DBC5"/>
<path d="M9.91772 22.2332H8.91772C8.50772 22.2332 8.16772 21.8932 8.16772 21.4832C8.16772 21.0732 8.48771 20.7432 8.89771 20.7332C7.32771 15.3732 7.32771 9.59315 8.89771 4.23315C8.49771 4.22315 8.16772 3.89315 8.16772 3.48315C8.16772 3.07315 8.50772 2.73315 8.91772 2.73315H9.91772C10.1577 2.73315 10.3877 2.85315 10.5277 3.04315C10.6677 3.24315 10.7077 3.49314 10.6277 3.72314C8.74773 9.37314 8.74773 15.6032 10.6277 21.2532C10.7077 21.4832 10.6677 21.7332 10.5277 21.9332C10.3877 22.1332 10.1577 22.2332 9.91772 22.2332Z" fill="#E1DBC5"/>
<path d="M17.3774 13.2331C16.9674 13.2331 16.6274 12.8931 16.6274 12.4831C16.6274 9.50312 16.1474 6.55311 15.2074 3.72311C15.0774 3.33311 15.2874 2.9031 15.6774 2.7731C16.0674 2.6431 16.4974 2.85313 16.6274 3.24313C17.6174 6.22313 18.1274 9.33312 18.1274 12.4831C18.1274 12.8931 17.7874 13.2331 17.3774 13.2331Z" fill="#E1DBC5"/>
<path d="M12.9175 17.6932C10.1175 17.6932 7.34748 17.2932 4.66748 16.5032C4.65748 16.9032 4.32748 17.2332 3.91748 17.2332C3.50748 17.2332 3.16748 16.8932 3.16748 16.4832V15.4832C3.16748 15.2432 3.28748 15.0132 3.47748 14.8732C3.67748 14.7332 3.92749 14.6932 4.15749 14.7732C6.98749 15.7132 9.93748 16.1932 12.9175 16.1932C13.3275 16.1932 13.6675 16.5332 13.6675 16.9432C13.6675 17.3532 13.3275 17.6932 12.9175 17.6932Z" fill="#E1DBC5"/>
<path d="M21.9177 10.2332C21.8377 10.2332 21.7577 10.2232 21.6777 10.1932C16.0277 8.31318 9.79766 8.31318 4.14766 10.1932C3.75766 10.3232 3.32766 10.1132 3.19766 9.72315C3.06766 9.33315 3.27766 8.90314 3.66766 8.77314C9.62766 6.78314 16.1877 6.78314 22.1377 8.77314C22.5277 8.90314 22.7377 9.33315 22.6077 9.72315C22.5277 10.0332 22.2277 10.2332 21.9177 10.2332Z" fill="#E1DBC5"/>
<path d="M19.1175 22.6332C16.9375 22.6332 15.1675 20.8632 15.1675 18.6832C15.1675 16.5032 16.9375 14.7332 19.1175 14.7332C21.2975 14.7332 23.0675 16.5032 23.0675 18.6832C23.0675 20.8632 21.2975 22.6332 19.1175 22.6332ZM19.1175 16.2332C17.7675 16.2332 16.6675 17.3332 16.6675 18.6832C16.6675 20.0332 17.7675 21.1332 19.1175 21.1332C20.4675 21.1332 21.5675 20.0332 21.5675 18.6832C21.5675 17.3332 20.4675 16.2332 19.1175 16.2332Z" fill="#E1DBC5"/>
<path d="M22.9174 23.2331C22.7274 23.2331 22.5374 23.1632 22.3874 23.0132L21.3874 22.0132C21.0974 21.7232 21.0974 21.2431 21.3874 20.9531C21.6774 20.6631 22.1574 20.6631 22.4474 20.9531L23.4474 21.9531C23.7374 22.2431 23.7374 22.7232 23.4474 23.0132C23.2974 23.1632 23.1074 23.2331 22.9174 23.2331Z" fill="#E1DBC5"/>
</svg>
