<svg xmlns="http://www.w3.org/2000/svg" width="25" height="24" fill="none" viewBox="0 0 25 24">
  <path fill="#4285F4" d="M21.245 12.205c0-.657-.059-1.287-.169-1.892h-8.514v3.468h4.903a4.17 4.17 0 0 1-1.82 2.794v2.25h2.92c1.704-1.567 2.68-3.883 2.68-6.62Z"/>
  <path fill="#34A853" d="M15.646 16.575c-.812.544-1.858.863-3.082.863-2.365 0-4.37-1.583-5.09-3.716h-3.01v2.32a9.07 9.07 0 0 0 8.1 4.958c2.448 0 4.504-.8 6.002-2.176l-2.92-2.25Z"/>
  <path fill="#FABB05" d="M7.191 12c0-.598.1-1.178.284-1.722v-2.32H4.464A8.906 8.906 0 0 0 3.5 12a8.92 8.92 0 0 0 .964 4.042l3.01-2.32A5.396 5.396 0 0 1 7.192 12Z"/>
  <path fill="#E94235" d="M12.564 6.562c1.336 0 2.532.457 3.477 1.35l2.587-2.566C17.057 3.892 15.008 3 12.564 3a9.072 9.072 0 0 0-8.1 4.958l3.01 2.32c.72-2.133 2.725-3.716 5.09-3.716Z"/>
</svg>