<svg viewBox="0 0 24 24" fill="currentColor" xmlns="http://www.w3.org/2000/svg">
    <path fill-rule="evenodd" clip-rule="evenodd"
          d="M14.4995 7.83301C14.7801 7.83301 15.0393 7.97391 15.1925 8.20351L15.2449 8.29366L17.7449 13.2937C17.9507 13.7053 17.7839 14.2059 17.3722 14.4117C16.99 14.6028 16.5311 14.4726 16.3027 14.1234L16.2542 14.039L13.9837 9.49967H10.0145L7.74489 14.039C7.55376 14.4213 7.10851 14.5924 6.71629 14.4501L6.62685 14.4117C6.24461 14.2206 6.07344 13.7753 6.21573 13.3831L6.25418 13.2937L8.75418 8.29366C8.87965 8.04271 9.12158 7.87392 9.39549 7.83951L9.49953 7.83301H14.4995ZM9.49953 15.333C9.92689 15.333 10.2791 15.6547 10.3273 16.0692L10.3329 16.1663V21.1663C10.3329 21.6266 9.95976 21.9997 9.49953 21.9997C9.07216 21.9997 8.71994 21.678 8.6718 21.2635L8.66619 21.1663V16.1663C8.66619 15.7061 9.03929 15.333 9.49953 15.333ZM15.3273 16.0692C15.2791 15.6547 14.9269 15.333 14.4995 15.333C14.0393 15.333 13.6662 15.7061 13.6662 16.1663V21.1663L13.6718 21.2635C13.7199 21.678 14.0722 21.9997 14.4995 21.9997C14.9598 21.9997 15.3329 21.6266 15.3329 21.1663V16.1663L15.3273 16.0692Z"
    />
    <path d="M4.49935 10.333C4.92671 10.333 5.27894 10.6547 5.32708 11.0692L5.33268 11.1663V16.1663C5.33268 16.6266 4.95959 16.9997 4.49935 16.9997C4.07199 16.9997 3.71976 16.678 3.67162 16.2635L3.66602 16.1663V11.1663C3.66602 10.7061 4.03911 10.333 4.49935 10.333Z"
    />
    <path d="M21.1667 12.833C21.6269 12.833 22 13.2061 22 13.6663C22 14.0937 21.6783 14.4459 21.2639 14.4941L21.1667 14.4997H2.83333C2.3731 14.4997 2 14.1266 2 13.6663C2 13.239 2.3217 12.8868 2.73615 12.8386L2.83333 12.833H21.1667Z"
    />
    <path d="M19.4993 10.333C19.9267 10.333 20.2789 10.6547 20.3271 11.0692L20.3327 11.1663V16.1663C20.3327 16.6266 19.9596 16.9997 19.4993 16.9997C19.072 16.9997 18.7198 16.678 18.6716 16.2635L18.666 16.1663V11.1663C18.666 10.7061 19.0391 10.333 19.4993 10.333Z"
    />
    <path fill-rule="evenodd" clip-rule="evenodd"
          d="M9.5 4.5C9.5 3.11929 10.6193 2 12 2C13.3807 2 14.5 3.11929 14.5 4.5C14.5 5.88071 13.3807 7 12 7C10.6193 7 9.5 5.88071 9.5 4.5ZM12.8333 4.5C12.8333 4.03976 12.4602 3.66667 12 3.66667C11.5398 3.66667 11.1667 4.03976 11.1667 4.5C11.1667 4.96024 11.5398 5.33333 12 5.33333C12.4602 5.33333 12.8333 4.96024 12.8333 4.5Z"
    />
</svg>

