<svg width="24" height="24" viewBox="0 0 24 24" xmlns="http://www.w3.org/2000/svg">
<path fill-rule="evenodd" clip-rule="evenodd" d="M14.4976 7.83301C14.7782 7.83301 15.0373 7.97391 15.1906 8.20351L15.2429 8.29366L17.7429 13.2937C17.9488 13.7053 17.7819 14.2059 17.3703 14.4117C16.988 14.6028 16.5291 14.4726 16.3007 14.1234L16.2522 14.039L13.9817 9.49967H10.0126L7.74293 14.039C7.55181 14.4213 7.10655 14.5924 6.71433 14.4501L6.6249 14.4117C6.24266 14.2206 6.07148 13.7753 6.21377 13.3831L6.25222 13.2937L8.75222 8.29366C8.8777 8.04271 9.11963 7.87392 9.39353 7.83951L9.49758 7.83301H14.4976ZM9.49757 15.333C9.92494 15.333 10.2772 15.6547 10.3253 16.0692L10.3309 16.1663V21.1663C10.3309 21.6266 9.95781 21.9997 9.49757 21.9997C9.07021 21.9997 8.71798 21.678 8.66985 21.2635L8.66424 21.1663V16.1663C8.66424 15.7061 9.03734 15.333 9.49757 15.333ZM15.3253 16.0692C15.2772 15.6547 14.9249 15.333 14.4976 15.333C14.0373 15.333 13.6642 15.7061 13.6642 16.1663V21.1663L13.6698 21.2635C13.718 21.678 14.0702 21.9997 14.4976 21.9997C14.9578 21.9997 15.3309 21.6266 15.3309 21.1663V16.1663L15.3253 16.0692Z"/>
<path d="M4.4974 10.333C4.92476 10.333 5.27699 10.6547 5.32512 11.0692L5.33073 11.1663V16.1663C5.33073 16.6266 4.95763 16.9997 4.4974 16.9997C4.07003 16.9997 3.71781 16.678 3.66967 16.2635L3.66406 16.1663V11.1663C3.66406 10.7061 4.03716 10.333 4.4974 10.333Z"/>
<path d="M21.1667 12.833C21.6269 12.833 22 13.2061 22 13.6663C22 14.0937 21.6783 14.4459 21.2639 14.4941L21.1667 14.4997H2.83333C2.3731 14.4997 2 14.1266 2 13.6663C2 13.239 2.3217 12.8868 2.73615 12.8386L2.83333 12.833H21.1667Z"/>
<path d="M19.4974 10.333C19.9248 10.333 20.277 10.6547 20.3251 11.0692L20.3307 11.1663V16.1663C20.3307 16.6266 19.9576 16.9997 19.4974 16.9997C19.07 16.9997 18.7178 16.678 18.6697 16.2635L18.6641 16.1663V11.1663C18.6641 10.7061 19.0372 10.333 19.4974 10.333Z"/>
<path fill-rule="evenodd" clip-rule="evenodd" d="M9.5 4.5C9.5 3.11929 10.6193 2 12 2C13.3807 2 14.5 3.11929 14.5 4.5C14.5 5.88071 13.3807 7 12 7C10.6193 7 9.5 5.88071 9.5 4.5ZM12.8333 4.5C12.8333 4.03976 12.4602 3.66667 12 3.66667C11.5398 3.66667 11.1667 4.03976 11.1667 4.5C11.1667 4.96024 11.5398 5.33333 12 5.33333C12.4602 5.33333 12.8333 4.96024 12.8333 4.5Z"/>
</svg>
