<svg width="25" height="25" viewBox="0 0 25 25" fill="none" xmlns="http://www.w3.org/2000/svg">
<path fill-rule="evenodd" clip-rule="evenodd" d="M12.898 7.77711L11.6975 6.71614C11.0594 6.15218 10.2211 5.81138 9.29795 5.81138C7.30973 5.81138 5.69795 7.40295 5.69795 9.36625C5.69795 12.032 6.90373 13.9983 8.42697 15.4541C9.97689 16.9354 11.7998 17.8253 12.7951 18.2351C12.8643 18.2636 12.9316 18.2636 13.0008 18.2351C13.9961 17.8253 15.819 16.9354 17.369 15.4541C18.8921 13.9982 20.098 12.0321 20.098 9.36629C20.098 7.40298 18.4861 5.81138 16.498 5.81138C15.5747 5.81138 14.7365 6.15218 14.0984 6.71614L12.898 7.77711ZM12.8979 5.39171C11.9426 4.54736 10.681 4.03394 9.29795 4.03394C6.31561 4.03394 3.89795 6.42129 3.89795 9.36625C3.89795 15.8993 9.90226 18.9698 12.1023 19.8757C12.6149 20.0867 13.181 20.0867 13.6935 19.8757C15.8936 18.9698 21.8979 15.8994 21.8979 9.36629C21.8979 6.42134 19.4803 4.03394 16.4979 4.03394C15.1149 4.03394 13.8533 4.54736 12.8979 5.39171Z" fill="#E1DBC5"/>
<path fill-rule="evenodd" clip-rule="evenodd" d="M4.55552 12.9212C4.33806 12.3659 4.16669 11.774 4.05347 11.1437H11.5478C11.9079 11.1437 12.2333 11.3556 12.3751 11.6824L12.8978 12.8869L14.7706 8.57184C14.9125 8.24507 15.2378 8.0332 15.5978 8.0332C15.9579 8.0332 16.2833 8.24507 16.4251 8.57184L17.5413 11.1437H21.7422C21.629 11.774 21.4576 12.3659 21.2402 12.9212H16.9478C16.5878 12.9212 16.2625 12.7093 16.1206 12.3825L15.5978 11.178L13.7251 15.493C13.5833 15.8198 13.2579 16.0317 12.8978 16.0317C12.5378 16.0317 12.2125 15.8198 12.0706 15.493L10.9544 12.9212H4.55552Z" fill="#E1DBC5"/>
</svg>
