<svg xmlns="http://www.w3.org/2000/svg" fill="currentColor" viewBox="0 0 24 24">
<g clip-path="url(#clip0_7617_51496)">
<path d="M12 9.23047C11.2044 9.23047 10.4413 9.54654 9.87868 10.1091C9.31607 10.6718 9 11.4348 9 12.2305C9 13.0261 9.31607 13.7892 9.87868 14.3518C10.4413 14.9144 11.2044 15.2305 12 15.2305C12.7956 15.2305 13.5587 14.9144 14.1213 14.3518C14.6839 13.7892 15 13.0261 15 12.2305C15 11.4348 14.6839 10.6718 14.1213 10.1091C13.5587 9.54654 12.7956 9.23047 12 9.23047ZM12 7.23047C13.3261 7.23047 14.5979 7.75725 15.5355 8.69493C16.4732 9.63262 17 10.9044 17 12.2305C17 13.5566 16.4732 14.8283 15.5355 15.766C14.5979 16.7037 13.3261 17.2305 12 17.2305C10.6739 17.2305 9.40215 16.7037 8.46447 15.766C7.52678 14.8283 7 13.5566 7 12.2305C7 10.9044 7.52678 9.63262 8.46447 8.69493C9.40215 7.75725 10.6739 7.23047 12 7.23047V7.23047ZM18.5 6.98047C18.5 7.31199 18.3683 7.62993 18.1339 7.86435C17.8995 8.09877 17.5815 8.23047 17.25 8.23047C16.9185 8.23047 16.6005 8.09877 16.3661 7.86435C16.1317 7.62993 16 7.31199 16 6.98047C16 6.64895 16.1317 6.33101 16.3661 6.09659C16.6005 5.86216 16.9185 5.73047 17.25 5.73047C17.5815 5.73047 17.8995 5.86216 18.1339 6.09659C18.3683 6.33101 18.5 6.64895 18.5 6.98047V6.98047ZM12 4.23047C9.526 4.23047 9.122 4.23747 7.971 4.28847C7.187 4.32547 6.661 4.43047 6.173 4.62047C5.739 4.78847 5.426 4.98947 5.093 5.32347C4.78001 5.62587 4.53935 5.99505 4.389 6.40347C4.199 6.89347 4.094 7.41847 4.058 8.20147C4.006 9.30547 4 9.69147 4 12.2305C4 14.7045 4.007 15.1085 4.058 16.2595C4.095 17.0425 4.2 17.5695 4.389 18.0565C4.559 18.4915 4.759 18.8045 5.091 19.1365C5.428 19.4725 5.741 19.6735 6.171 19.8395C6.665 20.0305 7.191 20.1365 7.971 20.1725C9.075 20.2245 9.461 20.2305 12 20.2305C14.474 20.2305 14.878 20.2235 16.029 20.1725C16.811 20.1355 17.338 20.0305 17.826 19.8415C18.259 19.6725 18.574 19.4715 18.906 19.1395C19.243 18.8025 19.444 18.4895 19.61 18.0595C19.8 17.5665 19.906 17.0395 19.942 16.2595C19.994 15.1555 20 14.7695 20 12.2305C20 9.75647 19.993 9.35247 19.942 8.20147C19.905 7.41947 19.8 6.89147 19.61 6.40347C19.4593 5.99547 19.2191 5.62643 18.907 5.32347C18.6047 5.01031 18.2355 4.76964 17.827 4.61947C17.337 4.42947 16.811 4.32447 16.029 4.28847C14.925 4.23647 14.539 4.23047 12 4.23047ZM12 2.23047C14.717 2.23047 15.056 2.24047 16.122 2.29047C17.187 2.34047 17.912 2.50747 18.55 2.75547C19.21 3.00947 19.766 3.35347 20.322 3.90847C20.8305 4.40836 21.224 5.01306 21.475 5.68047C21.722 6.31747 21.89 7.04347 21.94 8.10847C21.987 9.17447 22 9.51347 22 12.2305C22 14.9475 21.99 15.2865 21.94 16.3525C21.89 17.4175 21.722 18.1425 21.475 18.7805C21.2247 19.4482 20.8311 20.0531 20.322 20.5525C19.822 21.0608 19.2173 21.4542 18.55 21.7055C17.913 21.9525 17.187 22.1205 16.122 22.1705C15.056 22.2175 14.717 22.2305 12 22.2305C9.283 22.2305 8.944 22.2205 7.878 22.1705C6.813 22.1205 6.088 21.9525 5.45 21.7055C4.78233 21.4549 4.17753 21.0614 3.678 20.5525C3.16941 20.0527 2.77593 19.4479 2.525 18.7805C2.277 18.1435 2.11 17.4175 2.06 16.3525C2.013 15.2865 2 14.9475 2 12.2305C2 9.51347 2.01 9.17447 2.06 8.10847C2.11 7.04247 2.277 6.31847 2.525 5.68047C2.77524 5.01265 3.1688 4.40779 3.678 3.90847C4.17767 3.3997 4.78243 3.0062 5.45 2.75547C6.088 2.50747 6.812 2.34047 7.878 2.29047C8.944 2.24347 9.283 2.23047 12 2.23047Z" fill="#19191B"/>
</g>
<defs>
<clipPath id="clip0_7617_51496">
<rect width="24" height="24" fill="white" transform="translate(0 0.230469)"/>
</clipPath>
</defs>
</svg>
