<svg width="24" height="24" viewBox="0 0 24 24" fill="currentColor" xmlns="http://www.w3.org/2000/svg">
<path d="M12.6796 5.32559L8.71221 9.39039C8.44723 9.66187 8.29684 10.0361 8.29684 10.4249V17.7548C8.29684 18.5619 8.94137 19.2222 9.72913 19.2222H16.1744C16.7473 19.2222 17.2629 18.87 17.4921 18.3344L19.8267 12.7508C20.4283 11.2981 19.3899 9.68388 17.8502 9.68388H13.804L14.4843 6.32345C14.5559 5.95659 14.4485 5.58239 14.1907 5.31826C13.7682 4.8927 13.095 4.8927 12.6796 5.32559ZM5.43228 19.2222C6.22004 19.2222 6.86456 18.5619 6.86456 17.7548V11.885C6.86456 11.0779 6.22004 10.4176 5.43228 10.4176C4.64453 10.4176 4 11.0779 4 11.885V17.7548C4 18.5619 4.64453 19.2222 5.43228 19.2222Z"/>
</svg>
