<svg width="16" height="17" viewBox="0 0 16 17" fill="none" xmlns="http://www.w3.org/2000/svg">
<path d="M0.473672 7.03516C0.212067 7.03516 0 7.24725 0 7.50883V14.4659C0 14.7275 0.212098 14.9396 0.473672 14.9396H3.32749V7.03516H0.473672Z" fill="#E1DBC5"/>
<path d="M16.0005 9.65067C16.0005 9.04937 15.6774 8.52209 15.1957 8.23331C15.3803 7.96683 15.4885 7.64355 15.4885 7.29557C15.4885 6.3851 14.7478 5.64435 13.8373 5.64435H10.3516C10.4584 5.16023 10.6045 4.43377 10.7063 3.67329C10.971 1.69426 10.7901 0.596705 10.1369 0.219262C9.72962 -0.0160099 9.29054 -0.0637337 8.90049 0.084754C8.59917 0.199529 8.19224 0.481711 7.96034 1.17427L7.04421 3.57299C6.57976 4.72002 5.15747 5.92422 4.27539 6.59007V15.149C5.91019 15.7218 7.61611 16.0122 9.3565 16.0122H13.1546C14.065 16.0122 14.8058 15.2714 14.8058 14.3609C14.8058 14.0421 14.7149 13.7441 14.5578 13.4914C15.1082 13.2233 15.4885 12.6581 15.4885 12.0058C15.4885 11.6578 15.3802 11.3346 15.1957 11.0681C15.6774 10.7793 16.0005 10.252 16.0005 9.65067Z" fill="#E1DBC5"/>
</svg>
