<svg viewBox="0 0 24 24" fill="currentColor" xmlns="http://www.w3.org/2000/svg">
<path d="M5.97173 5.00001C7.55393 5.00703 9.06611 5.63711 10.1723 6.74324C11.2854 7.85638 11.9085 9.36156 11.9015 10.9228V10.9578C11.8595 13.079 10.6693 15.0323 9.18513 16.5584C8.34503 17.4196 7.41391 18.1826 6.39879 18.8267C6.12575 19.0578 5.7267 19.0578 5.45367 18.8267C3.94849 17.8466 2.61832 16.6145 1.54019 15.1793C0.595073 13.9331 0.0560069 12.4349 0 10.8738C0.0140017 7.61835 2.68833 4.99303 5.97173 5.00001ZM5.97173 9.15154C4.92861 9.15154 4.0885 9.98464 4.0885 11.0208C4.0885 12.0436 4.9146 12.869 5.95073 12.883H5.97173C6.4688 12.883 6.94485 12.694 7.2949 12.3509C7.65894 11.9939 7.86267 11.5185 7.86267 11.0208C7.86267 9.98464 7.01486 9.15154 5.97173 9.15154Z"/>
</svg>
