<svg width="12" height="14" viewBox="0 0 12 14" fill="none" xmlns="http://www.w3.org/2000/svg">
<path d="M5.97173 1.39136e-05C7.55393 0.00702874 9.06612 0.637106 10.1723 1.74324C11.2854 2.85638 11.9085 4.36156 11.9015 5.92276V5.95776C11.8595 8.07902 10.6693 10.0323 9.18513 11.5584C8.34503 12.4196 7.41391 13.1826 6.39879 13.8267C6.12575 14.0578 5.7267 14.0578 5.45367 13.8267C3.94849 12.8466 2.61832 11.6145 1.54019 10.1793C0.595073 8.93313 0.0560069 7.43494 0 5.87375C0.0140017 2.61835 2.68833 -0.00697298 5.97173 1.39136e-05ZM5.97173 4.15154C4.92861 4.15154 4.0885 4.98464 4.0885 6.02077C4.0885 7.04359 4.9146 7.869 5.95073 7.883H5.97173C6.4688 7.883 6.94485 7.69397 7.2949 7.35093C7.65894 6.99389 7.86267 6.51853 7.86267 6.02077C7.86267 4.98464 7.01486 4.15154 5.97173 4.15154Z" fill="#E1DBC5"/>
</svg>
