<svg width="82" height="108" viewBox="0 0 82 108" fill="none" xmlns="http://www.w3.org/2000/svg">
<path d="M81.8637 45.0708L73.5191 13.8428C73.3571 13.2368 73.0515 12.6785 72.6278 12.2148C72.2042 11.7511 71.6751 11.3955 71.0848 11.1779L42.9479 0.359714C41.7 -0.119904 40.3177 -0.119904 39.0699 0.359714L10.9059 11.1469C10.3205 11.3726 9.79575 11.7308 9.37326 12.1933C8.95076 12.6558 8.64211 13.2099 8.47163 13.8118L0.12703 45.0968C-0.0108383 45.6143 -0.0368468 46.1551 0.0507823 46.6833C0.138411 47.2116 0.337638 47.7153 0.635303 48.1611L39.4438 107.18C39.6126 107.432 39.8414 107.639 40.1097 107.782C40.378 107.925 40.6776 108 40.9818 108C41.2861 108 41.5857 107.925 41.854 107.782C42.1222 107.639 42.3509 107.432 42.5197 107.18L81.3293 48.1931C81.6437 47.744 81.8545 47.2312 81.9469 46.6915C82.0393 46.1517 82.0109 45.5983 81.8637 45.0708ZM79.4033 44.6443C79.4033 44.6713 79.4304 44.7242 79.4304 44.7512L58.9955 59.3799L58.2194 56.7689L71.7806 16.131L79.4033 44.6443ZM17.2725 69.3441L3.20397 47.9744L28.319 35.5311L52.7654 63.8286L42.0937 71.4755L17.2725 69.3441ZM39.9532 73.0207L26.2055 82.879L18.5297 71.2089L39.9532 73.0207ZM56.4018 56.74L54.4226 62.6819L54.2351 62.8148L29.9763 34.7091L47.3884 26.0763L56.4018 56.74ZM48.9665 25.2982L70.4441 14.6668L57.3652 53.8354L48.9665 25.2982ZM53.4862 65.4796L51.2393 72.2476L44.8227 71.6883L53.4862 65.4796ZM55.0373 66.3856L60.8142 73.0777L53.031 72.4114L55.0373 66.3856ZM61.1089 74.8326L43.0552 102.277L52.4696 74.0865L61.1089 74.8326ZM55.6799 64.4449L55.9205 63.7517L58.0329 62.2325L60.2266 69.7236L55.6799 64.4449ZM56.8299 60.928L57.258 59.6755L57.4986 60.4746L56.8299 60.928ZM42.949 2.81481L69.2169 12.8869C69.3732 12.9468 69.525 13.0179 69.6711 13.0996L48.4611 23.5982L42.2781 2.59807C42.5198 2.67797 42.7343 2.73091 42.9479 2.81081L42.949 2.81481ZM39.0709 2.81481C39.5167 2.64274 39.985 2.53511 40.4614 2.49519L46.9072 24.3973L28.8273 33.3497L11.71 13.5251C12.0454 13.2505 12.4251 13.0344 12.8329 12.8859L39.0709 2.81481ZM2.58946 44.6743L10.3725 15.5507C10.4279 15.341 10.4996 15.136 10.5871 14.9375L27.1701 34.1487L2.50624 46.3523C2.41352 45.7925 2.44145 45.2194 2.58836 44.6713L2.58946 44.6743ZM27.142 84.3273L42.6281 73.2405L50.6488 73.9336L40.4585 104.497C40.3986 104.441 40.3448 104.378 40.298 104.311L27.142 84.3273ZM62.7943 72.2566L59.5308 61.1458L79.296 46.9975C79.1872 47.2627 79.062 47.5209 78.921 47.7706L62.7943 72.2566Z" fill="url(#paint0_linear_1066_20692)"/>
<defs>
<linearGradient id="paint0_linear_1066_20692" x1="60.926" y1="11.556" x2="19.1669" y2="75.6285" gradientUnits="userSpaceOnUse">
<stop stop-color="#E7D0AA"/>
<stop offset="0.179" stop-color="#E1CAA5"/>
<stop offset="0.368" stop-color="#D3BA96"/>
<stop offset="0.562" stop-color="#BFA280"/>
<stop offset="0.759" stop-color="#A68364"/>
<stop offset="0.957" stop-color="#886246"/>
<stop offset="1" stop-color="#825B40"/>
</linearGradient>
</defs>
</svg>
