<svg width="25" height="24" viewBox="0 0 25 24" fill="none" xmlns="http://www.w3.org/2000/svg">
<path d="M18.8687 10.79V14.79C18.8687 15.05 18.8587 15.3 18.8287 15.54C18.5987 18.24 17.0087 19.58 14.0787 19.58H13.6787C13.4287 19.58 13.1887 19.7 13.0387 19.9L11.8387 21.5C11.3087 22.21 10.4487 22.21 9.91867 21.5L8.71866 19.9C8.58866 19.73 8.29867 19.58 8.07867 19.58H7.67868C4.48868 19.58 2.88867 18.79 2.88867 14.79V10.79C2.88867 7.86001 4.23868 6.27001 6.92868 6.04001C7.16868 6.01001 7.41868 6 7.67868 6H14.0787C17.2687 6 18.8687 7.60001 18.8687 10.79Z" stroke="#E1DBC5" stroke-width="1.5" stroke-miterlimit="10" stroke-linecap="round" stroke-linejoin="round"/>
<path d="M22.8687 6.79001V10.79C22.8687 13.73 21.5187 15.31 18.8287 15.54C18.8587 15.3 18.8687 15.05 18.8687 14.79V10.79C18.8687 7.60001 17.2687 6 14.0787 6H7.67871C7.41871 6 7.16871 6.01001 6.92871 6.04001C7.15871 3.35001 8.74871 2 11.6787 2H18.0787C21.2687 2 22.8687 3.60001 22.8687 6.79001Z" stroke="#E1DBC5" stroke-width="1.5" stroke-miterlimit="10" stroke-linecap="round" stroke-linejoin="round"/>
<path d="M14.3842 13.25H14.3932" stroke="#E1DBC5" stroke-width="2" stroke-linecap="round" stroke-linejoin="round"/>
<path d="M10.8842 13.25H10.8932" stroke="#E1DBC5" stroke-width="2" stroke-linecap="round" stroke-linejoin="round"/>
<path d="M7.38417 13.25H7.39317" stroke="#E1DBC5" stroke-width="2" stroke-linecap="round" stroke-linejoin="round"/>
</svg>
