<svg width="13" height="12" viewBox="0 0 13 12" fill="none" xmlns="http://www.w3.org/2000/svg">
<g clip-path="url(#clip0_72_7871)">
<path d="M10.2632 6.48877C10.394 6.48877 10.5 6.38272 10.5 6.25193V2.77339C10.5 2.64259 10.394 2.53655 10.2632 2.53655H8.83625V6.48877H10.2632Z" fill="#EB4336"/>
<path d="M2.49999 5.18077C2.49999 5.48142 2.66154 5.74506 2.90237 5.88945C2.8101 6.02269 2.75598 6.18433 2.75598 6.35832C2.75598 6.81355 3.12636 7.18393 3.58159 7.18393H5.32445C5.27103 7.42599 5.19798 7.78922 5.14711 8.16946C5.01473 9.15898 5.1052 9.70775 5.43181 9.89647C5.63543 10.0141 5.85497 10.038 6.05 9.96373C6.20066 9.90634 6.40413 9.76525 6.52007 9.41897L6.97814 8.21961C7.21036 7.64609 7.92151 7.04399 8.36255 6.71107V2.4316C7.54515 2.1452 6.69219 2.00003 5.822 2.00003H3.92296C3.46773 2.00003 3.09735 2.3704 3.09735 2.82564C3.09735 2.98506 3.14278 3.13407 3.22135 3.26041C2.94613 3.39444 2.75601 3.67706 2.75601 4.0032C2.75601 4.17721 2.81013 4.33882 2.9024 4.47207C2.66153 4.61647 2.49999 4.88012 2.49999 5.18077Z" fill="#EB4336"/>
</g>
<defs>
<clipPath id="clip0_72_7871">
<rect width="12" height="12" fill="white" transform="translate(0.5)"/>
</clipPath>
</defs>
</svg>
