<!-- <svg width="13" height="12" viewBox="0 0 13 12" fill="none" xmlns="http://www.w3.org/2000/svg">
<g clip-path="url(#clip0_72_7871)">
<path d="M10.2632 6.48877C10.394 6.48877 10.5 6.38272 10.5 6.25193V2.77339C10.5 2.64259 10.394 2.53655 10.2632 2.53655H8.83625V6.48877H10.2632Z" fill="#EB4336"/>
<path d="M2.49999 5.18077C2.49999 5.48142 2.66154 5.74506 2.90237 5.88945C2.8101 6.02269 2.75598 6.18433 2.75598 6.35832C2.75598 6.81355 3.12636 7.18393 3.58159 7.18393H5.32445C5.27103 7.42599 5.19798 7.78922 5.14711 8.16946C5.01473 9.15898 5.1052 9.70775 5.43181 9.89647C5.63543 10.0141 5.85497 10.038 6.05 9.96373C6.20066 9.90634 6.40413 9.76525 6.52007 9.41897L6.97814 8.21961C7.21036 7.64609 7.92151 7.04399 8.36255 6.71107V2.4316C7.54515 2.1452 6.69219 2.00003 5.822 2.00003H3.92296C3.46773 2.00003 3.09735 2.3704 3.09735 2.82564C3.09735 2.98506 3.14278 3.13407 3.22135 3.26041C2.94613 3.39444 2.75601 3.67706 2.75601 4.0032C2.75601 4.17721 2.81013 4.33882 2.9024 4.47207C2.66153 4.61647 2.49999 4.88012 2.49999 5.18077Z" fill="#EB4336"/>
</g>
<defs>
<clipPath id="clip0_72_7871">
<rect width="12" height="12" fill="white" transform="translate(0.5)"/>
</clipPath>
</defs>
</svg> -->
<svg width="24" height="25" viewBox="0 0 24 25" fill="none" xmlns="http://www.w3.org/2000/svg">
<path d="M19.5 6.22838V13.1328H17.1725V6.22838H19.5Z" stroke="#E1DBC5"/>
<path d="M5.52125 12.2804L5.21727 12.7193C5.08861 12.9051 5.01343 13.1296 5.01343 13.3724C5.01343 14.0067 5.53032 14.5236 6.16465 14.5236H9.65036H10.2727L10.1386 15.1314C10.0335 15.6078 9.89047 16.3194 9.79127 17.061L9.79127 17.061C9.66126 18.0327 9.64763 18.7444 9.72948 19.241C9.81138 19.7377 9.97245 19.9333 10.1152 20.0158L5.52125 12.2804ZM5.52125 12.2804L5.06331 12.0058M5.52125 12.2804L5.06331 12.0058M5.06331 12.0058C4.72555 11.8033 4.50144 11.4352 4.50144 11.0173C4.50144 10.5994 4.72555 10.2313 5.06335 10.0288L5.52131 9.75424L5.21734 9.31527C5.08866 9.12943 5.01349 8.90493 5.01349 8.66217C5.01349 8.20892 5.27751 7.81388 5.66309 7.6261L6.16159 7.38332L5.86874 6.91249C5.75932 6.73658 5.69617 6.52961 5.69617 6.30704C5.69617 5.67271 6.21306 5.15582 6.84739 5.15582H10.6455C12.2112 5.15582 13.7474 5.39857 15.2266 5.87799V13.831C14.8069 14.1571 14.3005 14.5806 13.8307 15.0537C13.2918 15.5965 12.7641 16.241 12.4943 16.9073L12.4942 16.9073L12.4906 16.9166L11.5745 19.3153L11.5708 19.3251M5.06331 12.0058L11.5708 19.3251M11.5708 19.3251L11.5675 19.3349M11.5708 19.3251L11.5675 19.3349M11.5675 19.3349C11.3858 19.8776 11.0929 20.0514 10.9236 20.1159L11.5675 19.3349ZM10.9235 20.116C10.693 20.2037 10.4108 20.1865 10.1152 20.0158L10.9235 20.116Z" stroke="#E1DBC5"/>
</svg>
