<svg width="24" height="24" viewBox="0 0 24 24" fill="none" xmlns="http://www.w3.org/2000/svg">
<path fill-rule="evenodd" clip-rule="evenodd" d="M14.6368 3.44306C14.6809 3.50149 14.7195 3.56416 14.7518 3.6302L14.882 3.89636C15.1626 4.46966 15.7864 4.77684 16.3998 4.64366L16.6845 4.58183C17.2869 4.45101 17.879 4.84427 18.0069 5.46018C18.0219 5.53242 18.03 5.60597 18.0311 5.6798L18.0355 5.97739C18.045 6.61837 18.4767 7.17189 19.0858 7.32397L19.3686 7.39458C19.9668 7.54396 20.3334 8.16092 20.1873 8.77259C20.1702 8.84433 20.1462 8.91419 20.1159 8.9812L19.9936 9.25127C19.7301 9.83297 19.8842 10.5232 20.3684 10.9304L20.5932 11.1195C21.0689 11.5195 21.1373 12.2379 20.7461 12.7242C20.7002 12.7813 20.649 12.8336 20.5932 12.8805L20.3684 13.0696C19.8842 13.4768 19.7301 14.167 19.9936 14.7487L20.1159 15.0188C20.3747 15.5902 20.1314 16.2678 19.5726 16.5324C19.5071 16.5635 19.4387 16.5879 19.3686 16.6054L19.0858 16.676C18.4767 16.8281 18.045 17.3816 18.0355 18.0226L18.0311 18.3202C18.0218 18.9498 17.5151 19.4524 16.8993 19.4429C16.8271 19.4418 16.7551 19.4335 16.6845 19.4182L16.3998 19.3563C15.7864 19.2232 15.1626 19.5303 14.882 20.1036L14.7518 20.3698C14.4762 20.9329 13.8064 21.161 13.2556 20.8792C13.191 20.8462 13.1297 20.8068 13.0726 20.7617L12.8423 20.5796C12.3462 20.1876 11.6538 20.1876 11.1577 20.5796L10.9274 20.7617C10.4402 21.1468 9.73988 21.0551 9.36323 20.5569C9.31906 20.4985 9.28055 20.4358 9.24823 20.3698L9.11798 20.1036C8.83743 19.5303 8.21355 19.2232 7.60025 19.3563L7.31551 19.4182C6.71311 19.549 6.12105 19.1557 5.9931 18.5398C5.9781 18.4676 5.96999 18.394 5.9689 18.3202L5.9645 18.0226C5.95502 17.3816 5.52328 16.8281 4.9142 16.676L4.63142 16.6054C4.03316 16.456 3.66662 15.8391 3.81272 15.2274C3.82985 15.1557 3.85376 15.0858 3.88411 15.0188L4.00643 14.7487C4.26989 14.167 4.11581 13.4768 3.63158 13.0696L3.40677 12.8805C2.93114 12.4805 2.86271 11.7621 3.25392 11.2758C3.2998 11.2187 3.35099 11.1664 3.40677 11.1195L3.63158 10.9304C4.11581 10.5232 4.26989 9.83297 4.00643 9.25127L3.88411 8.9812C3.62533 8.40983 3.86856 7.73216 4.42739 7.46757C4.49293 7.43654 4.56126 7.4121 4.63142 7.39458L4.9142 7.32397C5.52328 7.17189 5.95502 6.61837 5.9645 5.97739L5.9689 5.6798C5.97821 5.05022 6.48494 4.54756 7.10071 4.55708C7.17292 4.5582 7.24486 4.56649 7.31551 4.58183L7.60025 4.64366C8.21355 4.77684 8.83743 4.46966 9.11798 3.89636L9.24823 3.6302C9.52379 3.06709 10.1936 2.83901 10.7444 3.12075C10.809 3.15379 10.8703 3.19317 10.9274 3.23833L11.1577 3.42036C11.6538 3.81242 12.3462 3.81242 12.8423 3.42036L13.0726 3.23833C13.5598 2.85324 14.2601 2.9449 14.6368 3.44306ZM15.6455 9.62838C15.371 9.37723 14.9538 9.38357 14.6867 9.64294L11.7912 12.4542C11.4753 12.7608 10.981 12.7642 10.6612 12.4618L9.44878 11.3156C9.14569 11.0291 8.67451 11.0415 8.38631 11.3437C8.37269 11.358 8.35968 11.3729 8.34731 11.3883C8.10898 11.6855 8.1514 12.1239 8.44206 12.3676L10.4111 14.0184C10.9531 14.4728 11.7423 14.4385 12.2447 13.9389L15.6641 10.5378C15.6742 10.5278 15.684 10.5174 15.6933 10.5067C15.9173 10.2506 15.896 9.85742 15.6455 9.62838Z" fill="#F86969"/>
<circle cx="12" cy="12" r="5" fill="#F86969"/>
<path d="M12.5284 11.9997L14.8892 9.64239C14.9597 9.57182 14.9994 9.4761 14.9994 9.3763C14.9994 9.2765 14.9597 9.18079 14.8892 9.11022C14.8186 9.03965 14.7229 9 14.6231 9C14.5233 9 14.4276 9.03965 14.357 9.11022L12 11.4713L9.64296 9.11022C9.5724 9.03965 9.47669 9 9.3769 9C9.27711 9 9.18141 9.03965 9.11084 9.11022C9.04028 9.18079 9.00064 9.2765 9.00064 9.3763C9.00064 9.4761 9.04028 9.57182 9.11084 9.64239L11.4716 11.9997L9.11084 14.357C9.07572 14.3918 9.04784 14.4333 9.02882 14.4789C9.00979 14.5246 9 14.5736 9 14.6231C9 14.6725 9.00979 14.7215 9.02882 14.7672C9.04784 14.8129 9.07572 14.8543 9.11084 14.8891C9.14568 14.9243 9.18713 14.9522 9.23279 14.9712C9.27845 14.9902 9.32743 15 9.3769 15C9.42637 15 9.47535 14.9902 9.52101 14.9712C9.56668 14.9522 9.60812 14.9243 9.64296 14.8891L12 12.5281L14.357 14.8891C14.3919 14.9243 14.4333 14.9522 14.479 14.9712C14.5247 14.9902 14.5736 15 14.6231 15C14.6726 15 14.7215 14.9902 14.7672 14.9712C14.8129 14.9522 14.8543 14.9243 14.8892 14.8891C14.9243 14.8543 14.9522 14.8129 14.9712 14.7672C14.9902 14.7215 15 14.6725 15 14.6231C15 14.5736 14.9902 14.5246 14.9712 14.4789C14.9522 14.4333 14.9243 14.3918 14.8892 14.357L12.5284 11.9997Z" fill="#262626" stroke="#262626" stroke-width="0.4"/>
</svg>
