<svg width="22" height="14" viewBox="0 0 22 14" fill="none" xmlns="http://www.w3.org/2000/svg">
<g clip-path="url(#clip0_10631_290097)">
<path d="M0.381444 12.0786C0.381444 8.70764 0.381444 5.33456 0.381444 1.96363C0.390425 1.96363 0.401652 1.96363 0.394916 1.96363C0.412879 1.85822 0.428596 1.75281 0.45105 1.64956C0.495957 1.44089 0.596998 1.25373 0.724983 1.08379C0.897876 0.853612 1.11118 0.664306 1.38063 0.539537C1.47269 0.496513 1.57148 0.464245 1.66579 0.427674C1.81623 0.367441 1.97565 0.352382 2.13507 0.354534C2.16875 0.382499 2.20467 0.380348 2.23835 0.354534C2.25632 0.354534 2.27652 0.352382 2.29449 0.352382C3.32735 0.352382 4.36021 0.352382 5.39308 0.352382C7.81357 0.352382 10.2341 0.352382 12.6546 0.352382C15.0548 0.352382 17.4551 0.352382 19.8532 0.352382C19.8577 0.341626 19.8644 0.33087 19.8689 0.322266C19.8756 0.322266 19.8824 0.322266 19.8891 0.322266C19.8958 0.333022 19.9048 0.341626 19.9116 0.352382C19.9452 0.356685 19.9789 0.358836 20.0126 0.363138C20.0844 0.369592 20.1585 0.369592 20.2259 0.386802C20.4212 0.436279 20.6099 0.505117 20.7827 0.608375C21.0163 0.748203 21.2071 0.926752 21.3531 1.14833C21.4137 1.23868 21.4676 1.33333 21.5058 1.43444C21.5641 1.58502 21.6248 1.73345 21.6248 1.89909C21.6248 1.9959 21.6517 2.09485 21.6517 2.19166C21.6517 5.2356 21.6517 8.2774 21.6517 11.3213C21.6517 11.5795 21.6405 11.8355 21.6315 12.0936C21.6315 12.1517 21.6225 12.2119 21.609 12.27C21.5911 12.3475 21.5641 12.4249 21.5372 12.5024C21.4384 12.7842 21.27 13.0208 21.0432 13.2209C20.8703 13.3714 20.6772 13.4919 20.4549 13.5629C20.3202 13.6059 20.1832 13.6446 20.044 13.664C19.8869 13.6855 19.7274 13.6855 19.5703 13.6855C15.9552 13.6855 12.3402 13.6855 8.72519 13.6855C6.57189 13.6855 4.41635 13.6855 2.26305 13.6855C2.14405 13.6855 2.0228 13.6748 1.90604 13.6554C1.81398 13.6403 1.72192 13.6102 1.63211 13.5844C1.45248 13.5349 1.29081 13.4467 1.14037 13.3435C0.983199 13.2359 0.848478 13.1047 0.73621 12.9541C0.603734 12.7777 0.498202 12.5862 0.448805 12.3711C0.426351 12.2743 0.415124 12.1775 0.401652 12.0829C0.394916 12.0829 0.385935 12.0829 0.376953 12.085L0.381444 12.0786ZM0.922575 4.45257C0.922575 4.47193 0.922575 4.48483 0.922575 4.49774C0.922575 6.96732 0.922575 9.43689 0.922575 11.9065C0.922575 12.0398 0.940538 12.1711 0.983199 12.3001C1.15385 12.8035 1.62762 13.1413 2.17773 13.1606C2.32592 13.1649 2.47636 13.1606 2.62455 13.1606C5.25162 13.1606 7.87869 13.1606 10.5058 13.1606C13.5325 13.1606 16.5592 13.1606 19.586 13.1606C19.7544 13.1606 19.9228 13.152 20.0889 13.1284C20.3606 13.0896 20.5852 12.9563 20.7715 12.7669C21.0208 12.5153 21.1196 12.2076 21.1196 11.8677C21.1196 9.41323 21.1196 6.95871 21.1196 4.5042C21.1196 4.48699 21.1196 4.46978 21.1196 4.45042H0.922575V4.45257ZM0.922575 3.19627H21.1173L21.1218 3.18981C21.1196 2.80475 21.1151 2.41968 21.1128 2.03247C21.1128 1.9163 21.0881 1.80659 21.0522 1.69688C20.9534 1.40217 20.7581 1.1849 20.4886 1.02356C20.2775 0.898787 20.044 0.860065 19.8038 0.849309C19.678 0.842856 19.55 0.842856 19.4243 0.842856C18.0704 0.842856 16.7164 0.842856 15.3625 0.842856C12.1628 0.842856 8.96095 0.842856 5.76132 0.842856C4.64538 0.842856 3.53168 0.842856 2.41574 0.842856C2.24958 0.842856 2.08118 0.849309 1.91951 0.883728C1.7062 0.926752 1.5131 1.02571 1.35144 1.17199C1.08649 1.40862 0.938292 1.69688 0.927065 2.04322C0.920329 2.2605 0.927065 2.47777 0.927065 2.69504C0.927065 2.86068 0.927065 3.02632 0.927065 3.19627H0.922575Z" fill="white"/>
<path d="M5.74782 13.9998C4.58922 13.9998 3.43061 13.9998 2.27201 13.9998C2.14627 13.9998 2.01155 13.989 1.86335 13.9675C1.76905 13.9525 1.68597 13.9288 1.61187 13.9073L1.54676 13.8879C1.35366 13.8342 1.16505 13.7438 0.953984 13.6018C0.769865 13.4771 0.605954 13.32 0.468987 13.1372C0.291604 12.8984 0.179336 12.6682 0.125448 12.4337C0.125448 12.4316 0.125448 12.4273 0.125448 12.4251L0.0715592 12.4294L0.0468602 12.0788V2.27362H0.00195312L0.0468602 1.96385V1.62611H0.116466C0.118712 1.61535 0.123202 1.60029 0.125448 1.58524C0.177091 1.35291 0.284868 1.12703 0.455515 0.896852C0.671069 0.60644 0.936021 0.387018 1.24139 0.249341C1.30875 0.219224 1.37611 0.19341 1.44347 0.167595C1.47491 0.154688 1.50859 0.143932 1.54002 0.131025C1.71516 0.0621867 1.91275 0.0320699 2.14402 0.0320699H2.24057C2.26527 0.0320699 2.28099 0.0320699 2.29895 0.0320699H5.40203H19.6556L19.6713 0.00195312H20.0507L20.0912 0.0449771C20.0912 0.0449771 20.1069 0.0449771 20.1136 0.0449771C20.172 0.0492795 20.2438 0.0535819 20.3224 0.0729427C20.5762 0.137479 20.7872 0.221375 20.9713 0.333238C21.2475 0.49888 21.4743 0.714 21.6472 0.974295C21.728 1.09691 21.7886 1.21093 21.8335 1.32064C21.9009 1.49704 21.9728 1.67989 21.975 1.89716C21.975 1.93158 21.9817 1.96815 21.9862 2.00257C21.9952 2.06495 22.002 2.12949 22.002 2.19187C22.002 5.23582 22.002 8.27761 22.002 11.3216C22.002 11.5281 21.9952 11.7324 21.9862 11.939L21.9795 12.1046C21.9773 12.1928 21.966 12.2702 21.9481 12.3434C21.9256 12.4316 21.8964 12.5176 21.8672 12.6037C21.7527 12.9307 21.5551 13.2168 21.2789 13.4577C21.0544 13.6535 20.8231 13.7868 20.5694 13.8664C20.4324 13.9094 20.2708 13.9568 20.1001 13.9804C19.9205 14.0041 19.7476 14.0041 19.5792 14.0041C16.5659 14.0041 13.5527 14.0041 10.5417 14.0041H7.24323C6.74476 14.0041 6.24629 14.0041 5.74782 14.0041V13.9998ZM1.25935 4.77331V11.9067C1.25935 12.0164 1.27507 12.1132 1.30426 12.2014C1.43224 12.5757 1.78028 12.8252 2.19118 12.8403C2.28997 12.8446 2.38652 12.8403 2.48532 12.8403H2.62453H12.0191C14.5406 12.8403 17.0644 12.8403 19.5859 12.8403C19.7588 12.8403 19.907 12.8317 20.0373 12.8123C20.2169 12.7865 20.3763 12.7005 20.5268 12.5477C20.7019 12.3713 20.7827 12.1562 20.7827 11.8701V4.77331H1.25711H1.25935ZM0.718222 4.12795H21.3239C21.3239 3.92144 21.3239 3.71277 21.3239 3.50626L21.3194 3.51486L21.1173 3.51916H0.718222V4.1301V4.12795ZM1.25935 2.87165H20.7827L20.776 2.03268C20.776 1.95954 20.7625 1.88425 20.7311 1.7939C20.6615 1.58308 20.5268 1.42605 20.309 1.29697C20.1787 1.21953 20.0215 1.18296 19.7858 1.1722C19.6645 1.16575 19.5433 1.16575 19.422 1.16575H15.3602H5.75905H4.77558C3.98746 1.16575 3.20159 1.16575 2.41571 1.16575C2.28324 1.16575 2.12831 1.17005 1.98909 1.19802C1.83865 1.22814 1.70169 1.29913 1.58044 1.40669C1.37387 1.58954 1.27058 1.80035 1.26384 2.05205C1.25935 2.19833 1.25935 2.34246 1.2616 2.48874V2.87165H1.25935Z" fill="white"/>
<path d="M19.8605 0.35258C17.4602 0.35258 15.0599 0.35258 12.6619 0.35258C10.2414 0.35258 7.8209 0.35258 5.4004 0.35258C4.36754 0.35258 3.33468 0.35258 2.30181 0.35258C2.28385 0.35258 2.26364 0.35258 2.24568 0.354732C2.22098 0.346127 2.17832 0.371941 2.17383 0.320312C2.18056 0.320312 2.1873 0.320312 2.19404 0.320312C2.19628 0.322464 2.19853 0.324615 2.20077 0.326766C2.20077 0.324615 2.20077 0.322464 2.20302 0.320312C2.24119 0.320312 2.27936 0.320312 2.31753 0.320312C2.31753 0.322464 2.31753 0.324615 2.31978 0.326766C2.32202 0.324615 2.32427 0.322464 2.32651 0.320312C8.16893 0.320312 14.0136 0.320312 19.856 0.320312C19.856 0.331068 19.8583 0.341824 19.8605 0.350429V0.35258Z" fill="white"/>
<path d="M2.34416 0.886294L2.26108 0.815304L2.19596 0.873387L2.11289 0.688384L2.07471 0.656116C1.92877 0.606638 1.84569 0.481868 1.83446 0.350645L1.80078 0H2.18698H2.30599H2.32619H20.1476L20.2441 0.64536L19.8602 0.675476H5.39784H2.42499L2.34416 0.886294Z" fill="white"/>
<path d="M2.16815 0.322266C2.17264 0.371743 2.21531 0.345929 2.24 0.356685C2.20408 0.382499 2.1704 0.38465 2.13672 0.356685C2.14121 0.345929 2.14345 0.335173 2.14795 0.324417C2.15468 0.324417 2.16142 0.324417 2.16815 0.324417V0.322266Z" fill="white"/>
<path d="M2.18814 0.696988C2.09159 0.696988 1.99504 0.662569 1.9142 0.595882L1.74805 0.456054L1.89849 0H2.45309L2.46881 0.0946527L2.93359 0.264597L2.43737 0.615243C2.35878 0.669023 2.27121 0.696988 2.18365 0.696988H2.18814ZM2.498 0.258144L2.50249 0.292563C2.50249 0.281807 2.50024 0.2689 2.498 0.258144ZM2.18589 0.0516288C2.13425 0.0516288 2.08036 0.0666872 2.03994 0.0946527L2.19263 0.292563L2.35878 0.111862C2.31163 0.0731407 2.24876 0.0516288 2.18589 0.0516288Z" fill="white"/>
<path d="M19.8602 0.352382C19.8602 0.352382 19.8578 0.33087 19.8555 0.322266C19.8625 0.322266 19.8696 0.322266 19.8766 0.322266C19.8719 0.333022 19.8649 0.343778 19.8602 0.352382Z" fill="white"/>
<path d="M19.6779 1.42194L19.5252 0.400123L19.8575 0.352797L19.5252 0.385065L19.4668 0.0150584L19.8552 0H20.4009L20.1606 0.496927L19.6779 1.42194Z" fill="white"/>
<path d="M19.917 0.322266C19.917 0.322266 19.917 0.341626 19.917 0.352382C19.9102 0.341626 19.9013 0.333022 19.8945 0.322266C19.9013 0.322266 19.908 0.322266 19.9147 0.322266H19.917Z" fill="white"/>
<path d="M20.3151 1.4284L19.2598 0.0301168L19.8952 0H20.2185L20.2545 0.335587L20.3151 1.4284Z" fill="white"/>
<path d="M2.20117 0.322266C2.20117 0.322266 2.20117 0.327106 2.19873 0.329526C2.19629 0.327106 2.19385 0.324686 2.19141 0.322266C2.19629 0.322266 2.19873 0.322266 2.20361 0.322266H2.20117Z" fill="white"/>
<path d="M2.34215 0.894899L1.33398 0.0064536L2.67222 0L2.34215 0.894899Z" fill="white"/>
<path d="M2.32617 0.322266C2.32617 0.322266 2.32129 0.327106 2.31885 0.329526C2.31885 0.327106 2.31885 0.324686 2.31641 0.322266C2.32129 0.322266 2.32373 0.322266 2.32861 0.322266H2.32617Z" fill="white"/>
<path d="M2.20036 0.894899L1.81641 0.0064536L2.31488 0H3.18158L2.55737 0.55716L2.20036 0.894899Z" fill="white"/>
<path d="M2.64842 8.9376C2.64842 8.70097 2.63719 8.46219 2.65291 8.22771C2.66413 8.02765 2.75844 7.8491 2.89541 7.69636C3.06605 7.50706 3.27712 7.38659 3.53982 7.35432C3.63862 7.34357 3.73741 7.33496 3.83621 7.33496C4.80845 7.33496 5.78293 7.33496 6.75517 7.33496C6.99543 7.33496 7.22894 7.37368 7.43327 7.51136C7.60167 7.62537 7.73415 7.76735 7.81049 7.9502C7.85315 8.05131 7.88234 8.15672 7.89132 8.26858C7.92276 8.69882 7.91827 9.12906 7.89806 9.55715C7.87785 9.97878 7.65556 10.2907 7.24466 10.4628C7.12116 10.5144 6.98644 10.5359 6.85172 10.5359C5.83009 10.5381 4.81069 10.5424 3.78906 10.5445C3.63637 10.5445 3.48369 10.5338 3.34223 10.48C3.04584 10.366 2.83029 10.1702 2.71353 9.87983C2.6574 9.74 2.64842 9.59587 2.64617 9.45174C2.64393 9.27964 2.64617 9.10755 2.64617 8.93545C2.64842 8.93545 2.65066 8.93545 2.65515 8.93545L2.64842 8.9376ZM5.2418 10.0283C5.76722 10.0283 6.29038 10.0283 6.8158 10.0283C6.86969 10.0283 6.92582 10.0261 6.97746 10.0111C7.19302 9.95297 7.36366 9.76366 7.36142 9.50767C7.35917 9.1183 7.36142 8.72894 7.35917 8.33957C7.35917 8.18253 7.28732 8.05561 7.15934 7.95451C7.04931 7.86846 6.92133 7.84264 6.78436 7.84264C5.78967 7.84264 4.79273 7.84264 3.79804 7.84264C3.72843 7.84264 3.65658 7.85125 3.58697 7.85985C3.3804 7.88782 3.18057 8.09864 3.17832 8.28579C3.17158 8.69667 3.17383 9.10755 3.17158 9.51843C3.17158 9.6432 3.212 9.75076 3.29508 9.84326C3.39612 9.95512 3.52186 10.0283 3.68352 10.0261C4.2022 10.0261 4.72312 10.0261 5.2418 10.0261V10.0283Z" fill="white"/>
<path d="M3.7751 10.8696C3.60895 10.8696 3.41136 10.8588 3.21376 10.7835C2.82083 10.633 2.54689 10.3705 2.39645 10.0005C2.31787 9.80906 2.30889 9.61975 2.30664 9.46056C2.30664 9.33794 2.30664 9.21532 2.30664 9.09271L2.31113 8.61514C2.31113 8.48177 2.31113 8.34624 2.31787 8.20856C2.33358 7.94827 2.44361 7.70518 2.6412 7.48576C2.87472 7.22762 3.16212 7.07488 3.49892 7.03616C3.62017 7.0211 3.7302 7.01465 3.83573 7.01465C4.81021 7.01465 5.78245 7.01465 6.75694 7.01465C7.11395 7.01465 7.39013 7.08994 7.62813 7.25128C7.86165 7.40832 8.02781 7.60623 8.12211 7.83425C8.18274 7.97838 8.21642 8.11391 8.2254 8.24944C8.25459 8.65386 8.25683 9.0884 8.23213 9.57673C8.20519 10.1231 7.90207 10.5426 7.37665 10.762C7.21948 10.8266 7.0421 10.861 6.849 10.861L3.78633 10.8696H3.7751ZM5.29296 8.16769C4.79449 8.16769 4.29827 8.16769 3.7998 8.16769C3.74367 8.16769 3.68978 8.17414 3.63589 8.18275C3.59547 8.18705 3.52362 8.25804 3.51689 8.29891C3.5124 8.5377 3.5124 8.77863 3.5124 9.01957C3.5124 9.18951 3.5124 9.3573 3.51015 9.52725C3.51015 9.57242 3.52138 9.60469 3.55281 9.63911C3.61119 9.7058 3.65161 9.7101 3.68529 9.7101H5.59384C6.00025 9.7101 6.40891 9.7101 6.81756 9.7101C6.86471 9.7101 6.88492 9.70795 6.89166 9.7058C6.95677 9.68859 7.03087 9.62835 7.03087 9.51649C7.03087 9.33149 7.03087 9.14649 7.03087 8.95933C7.03087 8.75497 7.03087 8.55276 7.03087 8.34839C7.03087 8.30107 7.0174 8.26019 6.95453 8.21071C6.93207 8.1935 6.89166 8.17199 6.79286 8.17199C6.29439 8.17199 5.79817 8.17199 5.2997 8.17199L5.29296 8.16769Z" fill="white"/>
<path d="M14.7597 7.33516C16.2102 7.33516 17.6607 7.33516 19.1134 7.33516C19.192 7.33516 19.2773 7.33516 19.3492 7.38033C19.457 7.45132 19.4817 7.55888 19.4525 7.66644C19.4255 7.77185 19.3177 7.83854 19.1987 7.83854C17.9368 7.83854 16.675 7.83854 15.4131 7.84069C13.8368 7.84069 12.2628 7.84069 10.6866 7.84069C10.5878 7.84069 10.489 7.84284 10.3902 7.84069C10.2398 7.83639 10.1544 7.72022 10.141 7.62342C10.1253 7.52016 10.1904 7.38464 10.3296 7.35237C10.3722 7.34161 10.4149 7.33301 10.4576 7.33301C11.8901 7.33301 13.3249 7.33301 14.7574 7.33301L14.7597 7.33516Z" fill="white"/>
<path d="M10.5039 8.16769C10.4612 8.16769 10.4208 8.16769 10.3781 8.16769C10.0503 8.15693 9.84151 7.90955 9.80783 7.67291C9.7719 7.42122 9.92683 7.11791 10.2502 7.04261C10.2996 7.03186 10.3737 7.01465 10.459 7.01465C11.6872 7.01465 12.9176 7.01465 14.1459 7.01465H15.4863C16.6966 7.01465 17.9046 7.01465 19.1148 7.0168C19.2204 7.0168 19.3843 7.0168 19.5414 7.11791C19.7548 7.25773 19.8468 7.50082 19.7839 7.75036C19.7211 7.99559 19.4808 8.16769 19.2046 8.16769H10.6027C10.5712 8.17199 10.5398 8.17199 10.5084 8.17199L10.5039 8.16769Z" fill="white"/>
<path d="M12.5037 9.86961C11.8054 9.86961 11.1094 9.86961 10.4111 9.86961C10.2719 9.86961 10.1618 9.7728 10.1416 9.64803C10.1214 9.52111 10.2067 9.4028 10.3415 9.37053C10.3819 9.36192 10.4223 9.35547 10.4627 9.35547C11.8279 9.35547 13.1908 9.35547 14.556 9.35547C14.6481 9.35547 14.7446 9.36407 14.8165 9.43721C14.8861 9.5082 14.9063 9.5921 14.8816 9.68245C14.8546 9.78141 14.7805 9.83949 14.6795 9.85885C14.6368 9.86745 14.5942 9.86961 14.5515 9.86961C13.8689 9.86961 13.1863 9.86961 12.506 9.86961H12.5037Z" fill="white"/>
<path d="M12.5045 10.1927H11.9814C11.4582 10.1927 10.935 10.1927 10.4096 10.1927C10.1065 10.1927 9.855 9.98403 9.80785 9.69792C9.7607 9.40751 9.9538 9.13216 10.2569 9.05902C10.3265 9.04181 10.3939 9.0332 10.4612 9.0332C11.8264 9.0332 13.1894 9.0332 14.5545 9.0332C14.6443 9.0332 14.8801 9.0332 15.0597 9.21605C15.2057 9.36449 15.2596 9.56455 15.2057 9.76461C15.1473 9.97973 14.9789 10.1303 14.7454 10.1776C14.6848 10.1884 14.6219 10.1948 14.5478 10.1948H12.5023L12.5045 10.1927Z" fill="white"/>
</g>
<defs>
<clipPath id="clip0_10631_290097">
<rect width="22" height="14" fill="white"/>
</clipPath>
</defs>
</svg>
