<svg width="18" height="14" viewBox="0 0 18 14" fill="currentColor" xmlns="http://www.w3.org/2000/svg">
<g id="Group 8">
<path id="Certificate" d="M12.4518 11.4341V13.3854C12.4518 13.4343 12.4653 13.4824 12.491 13.5249C12.5166 13.5674 12.5536 13.6028 12.5981 13.6276C12.6427 13.6525 12.6933 13.6659 12.745 13.6665C12.7968 13.6672 12.8478 13.6551 12.893 13.6314L13.4618 13.3333C13.5279 13.2987 13.6022 13.2805 13.6778 13.2805C13.7533 13.2805 13.8276 13.2987 13.8937 13.3333L14.4622 13.6314C14.5074 13.6551 14.5584 13.6672 14.6102 13.6666C14.6619 13.6659 14.7125 13.6525 14.7571 13.6277C14.8016 13.6028 14.8386 13.5674 14.8642 13.5249C14.8899 13.4824 14.9034 13.4343 14.9034 13.3854V11.4343C14.521 11.6084 14.102 11.6987 13.6776 11.6987C13.2532 11.6987 12.8342 11.6082 12.4518 11.4341ZM17.3332 0.614427V11.3975C17.3332 11.4721 17.3019 11.5436 17.2461 11.5963C17.1904 11.6491 17.1148 11.6787 17.036 11.6787H15.7937V10.807C16.2742 10.3114 16.5404 9.66316 16.5397 8.99065C16.5408 8.55043 16.4285 8.11658 16.2125 7.72668C15.9964 7.33679 15.6832 7.00261 15.2998 6.7531C14.9165 6.50359 14.4746 6.34627 14.0125 6.29477C13.5504 6.24327 13.082 6.29915 12.6478 6.45756C12.2137 6.61597 11.8269 6.87213 11.5211 7.20386C11.2152 7.53559 10.9994 7.93287 10.8924 8.3613C10.7854 8.78972 10.7904 9.23637 10.9071 9.66254C11.0237 10.0887 11.2484 10.4816 11.5617 10.807V11.6787H0.963698C0.884878 11.6787 0.809285 11.6491 0.75355 11.5963C0.697815 11.5436 0.666504 11.4721 0.666504 11.3975V0.614427C0.666504 0.539855 0.697815 0.468337 0.75355 0.415606C0.809285 0.362876 0.884878 0.333252 0.963698 0.333252H17.036C17.1148 0.333252 17.1904 0.362876 17.2461 0.415606C17.3019 0.468337 17.3332 0.539855 17.3332 0.614427ZM5.83472 2.60234C5.83464 2.65775 5.84611 2.71262 5.86849 2.76383C5.89087 2.81503 5.9237 2.86156 5.96511 2.90073C6.00652 2.93991 6.0557 2.97098 6.10982 2.99215C6.16394 3.01332 6.22194 3.02418 6.28051 3.0241H11.7192C11.8374 3.0241 11.9508 2.97967 12.0344 2.90057C12.118 2.82147 12.165 2.7142 12.165 2.60234C12.165 2.49048 12.118 2.3832 12.0344 2.30411C11.9508 2.22501 11.8374 2.18058 11.7192 2.18058H6.28051C6.22194 2.1805 6.16394 2.19136 6.10982 2.21253C6.0557 2.2337 6.00652 2.26476 5.96511 2.30394C5.9237 2.34312 5.89087 2.38965 5.86849 2.44085C5.84611 2.49205 5.83464 2.54693 5.83472 2.60234ZM9.87359 8.34957C9.87367 8.29416 9.86219 8.23928 9.83982 8.18808C9.81744 8.13687 9.78461 8.09035 9.74319 8.05117C9.70178 8.01199 9.65261 7.98093 9.59849 7.95976C9.54437 7.93859 9.48636 7.92773 9.4278 7.9278H2.76767C2.64944 7.9278 2.53605 7.97224 2.45245 8.05133C2.36884 8.13043 2.32188 8.23771 2.32188 8.34957C2.32188 8.46142 2.36884 8.5687 2.45245 8.6478C2.53605 8.72689 2.64944 8.77133 2.76767 8.77133H9.4278C9.48636 8.7714 9.54437 8.76054 9.59849 8.73938C9.65261 8.71821 9.70178 8.68714 9.74319 8.64796C9.78461 8.60878 9.81744 8.56226 9.83982 8.51106C9.86219 8.45985 9.87367 8.40497 9.87359 8.34957ZM10.4828 6.43476C10.4829 6.37935 10.4714 6.32448 10.4491 6.27327C10.4267 6.22207 10.3939 6.17554 10.3524 6.13636C10.311 6.09718 10.2619 6.06612 10.2077 6.04495C10.1536 6.02378 10.0956 6.01292 10.037 6.013H2.76767C2.64944 6.013 2.53605 6.05743 2.45245 6.13653C2.36884 6.21562 2.32188 6.3229 2.32188 6.43476C2.32188 6.54662 2.36884 6.6539 2.45245 6.73299C2.53605 6.81209 2.64944 6.85652 2.76767 6.85652H10.037C10.0956 6.8566 10.1536 6.84574 10.2077 6.82457C10.2619 6.8034 10.311 6.77234 10.3524 6.73316C10.3939 6.69398 10.4267 6.64745 10.4491 6.59625C10.4714 6.54505 10.4829 6.49017 10.4828 6.43476ZM15.6778 4.51714C15.6775 4.40539 15.6304 4.2983 15.5468 4.21927C15.4633 4.14025 15.3501 4.09571 15.232 4.09538H2.76767C2.64944 4.09538 2.53605 4.13982 2.45245 4.21891C2.36884 4.29801 2.32188 4.40528 2.32188 4.51714C2.32188 4.629 2.36884 4.73628 2.45245 4.81538C2.53605 4.89447 2.64944 4.93891 2.76767 4.93891H15.232C15.2906 4.93898 15.3486 4.92812 15.4027 4.90695C15.4568 4.88578 15.506 4.85472 15.5474 4.81554C15.5888 4.77636 15.6216 4.72984 15.644 4.67863C15.6664 4.62743 15.6779 4.57255 15.6778 4.51714Z" />
<ellipse id="Ellipse 62" cx="13.6665" cy="9" rx="2" ry="2"/>
</g>
</svg>
