<svg width="24" height="25" viewBox="0 0 24 25" fill="none" xmlns="http://www.w3.org/2000/svg">
<path fill-rule="evenodd" clip-rule="evenodd" d="M13.0013 4.67135L5.87554 11.7972C5.50658 12.1662 5.21348 12.6038 5.01247 13.0854L3.23944 17.338C2.20888 19.8106 4.68932 22.2911 7.16176 21.2606L11.4138 19.488C11.8955 19.2874 12.3336 18.9938 12.7029 18.6246L19.8287 11.4985C21.3904 9.93672 21.3904 7.40446 19.8287 5.8427L18.657 4.67123C17.0954 3.10957 14.5631 3.10957 13.0013 4.67135ZM14.4131 6.08591C15.1532 5.34581 16.329 5.30686 17.115 5.96905L17.2422 6.08591L18.4141 7.25763C19.1542 7.99773 19.1931 9.17359 18.531 9.95956L18.4141 10.0868L11.2861 17.2151C11.1476 17.3536 10.9897 17.4709 10.8178 17.5632L10.6413 17.6471L6.38799 19.4201C5.59774 19.7495 4.80509 19.0035 5.04291 18.215L5.07985 18.112L6.85311 13.8588C6.92858 13.678 7.02993 13.5096 7.15379 13.3588L7.28502 13.2141L14.4131 6.08591Z" fill="white"/>
</svg>
