<svg width="80" height="80" viewBox="0 0 80 80" fill="none" xmlns="http://www.w3.org/2000/svg">
<path d="M39.9993 36.6667C42.6364 36.6667 45.2143 35.8847 47.407 34.4196C49.5996 32.9545 51.3086 30.8721 52.3177 28.4358C53.3269 25.9994 53.591 23.3185 53.0765 20.7321C52.562 18.1457 51.2921 15.7699 49.4274 13.9052C47.5627 12.0405 45.187 10.7707 42.6006 10.2562C40.0141 9.74173 37.3333 10.0058 34.8969 11.0149C32.4606 12.0241 30.3782 13.7331 28.9131 15.9257C27.448 18.1184 26.666 20.6963 26.666 23.3333C26.666 26.8696 28.0708 30.2609 30.5713 32.7614C33.0717 35.2619 36.4631 36.6667 39.9993 36.6667ZM59.9994 70C60.8834 70 61.7313 69.6488 62.3564 69.0237C62.9815 68.3986 63.3327 67.5507 63.3327 66.6667C63.3327 60.4783 60.8744 54.5434 56.4985 50.1675C52.1227 45.7917 46.1877 43.3333 39.9993 43.3333C33.811 43.3333 27.876 45.7917 23.5002 50.1675C19.1243 54.5434 16.666 60.4783 16.666 66.6667C16.666 67.5507 17.0172 68.3986 17.6423 69.0237C18.2674 69.6488 19.1153 70 19.9993 70H59.9994Z" fill="#3D3D3D"/>
</svg>
