<svg width="24" height="24" viewBox="0 0 24 24" fill="none" xmlns="http://www.w3.org/2000/svg">
<path fill-rule="evenodd" clip-rule="evenodd" d="M15.17 12.6941C16.1417 11.8695 16.7 10.6717 16.7 9.41176C16.7 6.97521 14.6853 5 12.2 5C9.71472 5 7.7 6.97521 7.7 9.41176C7.69999 10.6717 8.25832 11.8695 9.23 12.6941C6.65685 13.8364 5.00271 16.3484 5 19.1176C5 19.605 5.40294 20 5.9 20C6.39706 20 6.8 19.605 6.8 19.1176C6.8 16.1938 9.21766 13.8235 12.2 13.8235C15.1823 13.8235 17.6 16.1938 17.6 19.1176C17.6 19.605 18.0029 20 18.5 20C18.9971 20 19.4 19.605 19.4 19.1176C19.3973 16.3484 17.7432 13.8364 15.17 12.6941ZM12.2 12.0589C10.7088 12.0589 9.5 10.8737 9.5 9.41181C9.5 7.94988 10.7088 6.76475 12.2 6.76475C13.6912 6.76475 14.9 7.94988 14.9 9.41181C14.9 10.1139 14.6155 10.7871 14.1092 11.2836C13.6028 11.78 12.9161 12.0589 12.2 12.0589Z" fill="white"/>
</svg>
