<!-- <svg width="13" height="12" viewBox="0 0 13 12" fill="none" xmlns="http://www.w3.org/2000/svg">
<g clip-path="url(#clip0_72_7868)">
<path d="M2.73684 5.51758C2.60603 5.51758 2.5 5.62363 2.5 5.75441V9.23296C2.5 9.36376 2.60605 9.4698 2.73684 9.4698H4.16375V5.51758H2.73684Z" fill="#00FF50"/>
<path d="M10.5 6.82533C10.5 6.52468 10.3385 6.26105 10.0976 6.11666C10.1899 5.98341 10.244 5.82178 10.244 5.64779C10.244 5.19255 9.87364 4.82217 9.41841 4.82217H7.67555C7.72897 4.58012 7.80202 4.21689 7.85289 3.83664C7.98527 2.84713 7.8948 2.29835 7.56819 2.10963C7.36457 1.992 7.14503 1.96813 6.95 2.04238C6.79934 2.09976 6.59587 2.24086 6.47993 2.58713L6.02186 3.7865C5.78964 4.36001 5.07849 4.96211 4.63745 5.29503V9.5745C5.45485 9.8609 6.30781 10.0061 7.178 10.0061H9.07704C9.53227 10.0061 9.90265 9.6357 9.90265 9.18047C9.90265 9.02105 9.85722 8.87203 9.77865 8.7457C10.0539 8.61166 10.244 8.32904 10.244 8.0029C10.244 7.82889 10.1899 7.66729 10.0976 7.53403C10.3385 7.38964 10.5 7.12598 10.5 6.82533Z" fill="#00FF50"/>
</g>
<defs>
<clipPath id="clip0_72_7868">
<rect width="12" height="12" fill="white" transform="translate(0.5)"/>
</clipPath>
</defs>
</svg> -->
<svg width="24" height="25" viewBox="0 0 24 25" fill="none" xmlns="http://www.w3.org/2000/svg">
<g clip-path="url(#clip0_10618_243904)">
<path d="M4.47367 11.6909C4.21207 11.6909 4 11.903 4 12.1646V19.1217C4 19.3833 4.2121 19.5954 4.47367 19.5954H7.32749V11.6909H4.47367Z" fill="#E1DBC5"/>
<path d="M19.9986 14.3064C19.9986 13.7051 19.6755 13.1779 19.1938 12.8891C19.3783 12.6226 19.4866 12.2993 19.4866 11.9513C19.4866 11.0409 18.7458 10.3001 17.8354 10.3001H14.3496C14.4565 9.81599 14.6026 9.08953 14.7043 8.32905C14.9691 6.35002 14.7881 5.25247 14.1349 4.87502C13.7277 4.63975 13.2886 4.59203 12.8985 4.74052C12.5972 4.85529 12.1903 5.13747 11.9584 5.83003L11.0423 8.22876C10.5778 9.37578 9.15551 10.58 8.27344 11.2458V19.8048C9.90824 20.3776 11.6142 20.6679 13.3545 20.6679H17.1526C18.0631 20.6679 18.8038 19.9272 18.8038 19.0167C18.8038 18.6979 18.713 18.3998 18.5558 18.1472C19.1063 17.8791 19.4865 17.3138 19.4865 16.6616C19.4865 16.3135 19.3783 15.9903 19.1937 15.7238C19.6755 15.435 19.9986 14.9077 19.9986 14.3064Z" fill="#E1DBC5"/>
</g>
<defs>
<clipPath id="clip0_10618_243904">
<rect width="24" height="24" fill="white" transform="translate(0 0.655762)"/>
</clipPath>
</defs>
</svg>
