<svg width="13" height="12" viewBox="0 0 13 12" fill="none" xmlns="http://www.w3.org/2000/svg">
<g clip-path="url(#clip0_72_7868)">
<path d="M2.73684 5.51758C2.60603 5.51758 2.5 5.62363 2.5 5.75441V9.23296C2.5 9.36376 2.60605 9.4698 2.73684 9.4698H4.16375V5.51758H2.73684Z" fill="#00FF50"/>
<path d="M10.5 6.82533C10.5 6.52468 10.3385 6.26105 10.0976 6.11666C10.1899 5.98341 10.244 5.82178 10.244 5.64779C10.244 5.19255 9.87364 4.82217 9.41841 4.82217H7.67555C7.72897 4.58012 7.80202 4.21689 7.85289 3.83664C7.98527 2.84713 7.8948 2.29835 7.56819 2.10963C7.36457 1.992 7.14503 1.96813 6.95 2.04238C6.79934 2.09976 6.59587 2.24086 6.47993 2.58713L6.02186 3.7865C5.78964 4.36001 5.07849 4.96211 4.63745 5.29503V9.5745C5.45485 9.8609 6.30781 10.0061 7.178 10.0061H9.07704C9.53227 10.0061 9.90265 9.6357 9.90265 9.18047C9.90265 9.02105 9.85722 8.87203 9.77865 8.7457C10.0539 8.61166 10.244 8.32904 10.244 8.0029C10.244 7.82889 10.1899 7.66729 10.0976 7.53403C10.3385 7.38964 10.5 7.12598 10.5 6.82533Z" fill="#00FF50"/>
</g>
<defs>
<clipPath id="clip0_72_7868">
<rect width="12" height="12" fill="white" transform="translate(0.5)"/>
</clipPath>
</defs>
</svg>
