<svg xmlns="http://www.w3.org/2000/svg" fill="currentColor" viewBox="0 0 24 25">
  <path fill-rule="evenodd" d="M8.4 10.9a2.701 2.701 0 0 0 2.546-1.8H20.1a.9.9 0 1 0 0-1.8h-9.154a2.701 2.701 0 0 0-5.092 0H3.9a.9.9 0 0 0 0 1.8h1.954A2.701 2.701 0 0 0 8.4 10.9Zm0-3.6a.9.9 0 0 0-.9.895v.01a.9.9 0 1 0 .9-.905ZM3 17.2a.9.9 0 0 1 .9-.9h9.154a2.701 2.701 0 0 1 5.092 0H20.1a.9.9 0 1 1 0 1.8h-1.954a2.701 2.701 0 0 1-5.092 0H3.9a.9.9 0 0 1-.9-.9Zm11.7.007a.9.9 0 1 0 0-.014v.014Z" clip-rule="evenodd"/>
</svg>