<svg viewBox="0 0 24 24" fill="currentColor" xmlns="http://www.w3.org/2000/svg">
<path fill-rule="evenodd" clip-rule="evenodd" d="M9.27829 9.27829C8.74726 9.80931 8.44185 10.7015 8.44185 12.2093V15.9767C8.44185 17.4845 8.74726 18.3767 9.27829 18.9077C9.80931 19.4388 10.7015 19.7442 12.2093 19.7442H15.9767C17.4845 19.7442 18.3767 19.4388 18.9077 18.9077C19.4388 18.3767 19.7442 17.4845 19.7442 15.9767V12.2093C19.7442 10.7015 19.4388 9.80931 18.9077 9.27829C18.3767 8.74726 17.4845 8.44185 15.9767 8.44185H12.2093C10.7015 8.44185 9.80931 8.74726 9.27829 9.27829ZM8.39029 8.39029C9.27206 7.50853 10.5776 7.18604 12.2093 7.18604H15.9767C17.6085 7.18604 18.914 7.50853 19.7957 8.39029C20.6775 9.27206 21 10.5776 21 12.2093V15.9767C21 17.6085 20.6775 18.914 19.7957 19.7957C18.914 20.6775 17.6085 21 15.9767 21H12.2093C10.5776 21 9.27206 20.6775 8.39029 19.7957C7.50853 18.914 7.18604 17.6085 7.18604 15.9767V12.2093C7.18604 10.5776 7.50853 9.27206 8.39029 8.39029V8.39029Z"/>
<path fill-rule="evenodd" clip-rule="evenodd" d="M8.29802 4.39139C5.97971 4.92924 4.25581 7.00472 4.25581 9.48837C4.25581 9.83515 3.97469 10.1163 3.62791 10.1163C3.28113 10.1163 3 9.83515 3 9.48837C3 5.90159 5.90159 3 9.48837 3C9.71459 3 9.92332 3.12168 10.0348 3.31854C10.1462 3.51539 10.1432 3.75698 10.0268 3.95096L9.14773 5.41608C8.96931 5.71345 8.58361 5.80987 8.28625 5.63145C7.98888 5.45303 7.89246 5.06733 8.07088 4.76997L8.29802 4.39139Z"/>
<path d="M7.90478 2.66995L9.46362 3.56995" stroke-width="1.2" stroke-linecap="round"/>
</svg>
