<svg width="16" height="15" viewBox="0 0 16 15" fill="currentColor" xmlns="http://www.w3.org/2000/svg">
<g id="Setting">
<path id="Combined Shape" fill-rule="evenodd" clip-rule="evenodd" d="M9.69942 0.54777C9.3602 0.209288 8.89205 0 8.375 0H7.625C7.10795 0 6.6398 0.209288 6.30058 0.54777C6.28744 0.56088 6.2745 0.574193 6.26175 0.587685C5.96193 0.905085 5.77173 1.32715 5.75175 1.7933L5.75114 1.80904C5.75038 1.83093 5.75 1.85292 5.75 1.875V1.8857C5.75 1.91618 5.73147 1.94359 5.70331 1.95526C5.67513 1.96696 5.64265 1.96067 5.62108 1.9391L5.61351 1.93154C5.5979 1.91592 5.58208 1.90064 5.56607 1.8857L5.5545 1.875C5.21075 1.5595 4.77781 1.39555 4.34137 1.38313C4.32282 1.38259 4.30425 1.38234 4.2857 1.38236C3.80651 1.38287 3.32748 1.56593 2.96187 1.93154L2.43154 2.46187C2.06593 2.82748 1.88287 3.30651 1.88236 3.7857C1.88234 3.80425 1.88259 3.82282 1.88313 3.84137C1.89555 4.27781 2.0595 4.71075 2.375 5.05451L2.3857 5.06607C2.40064 5.08208 2.41592 5.0979 2.43154 5.11351L2.4391 5.12108C2.46067 5.14265 2.46696 5.17513 2.45526 5.20331C2.44359 5.23147 2.41618 5.25 2.3857 5.25H2.375C2.35292 5.25 2.33094 5.25038 2.30904 5.25114L2.2933 5.25175C1.82715 5.27173 1.40509 5.46193 1.08768 5.76175C1.07419 5.7745 1.06088 5.78744 1.04777 5.80058C0.709288 6.1398 0.5 6.60795 0.5 7.125V7.875C0.5 8.39205 0.709288 8.8602 1.04777 9.19942C1.06088 9.21255 1.07419 9.22552 1.08768 9.23828C1.40509 9.53805 1.82715 9.72825 2.2933 9.74827L2.30904 9.74887C2.33094 9.74963 2.35292 9.75 2.375 9.75H2.3857C2.41618 9.75 2.44359 9.76853 2.45526 9.79673C2.46696 9.82485 2.46067 9.85732 2.4391 9.87893L2.43154 9.8865C2.41592 9.9021 2.40064 9.91792 2.3857 9.9339L2.375 9.94553C2.0595 10.2893 1.89555 10.7222 1.88313 11.1587C1.88259 11.1772 1.88234 11.1958 1.88236 11.2143C1.88287 11.6935 2.06593 12.1725 2.43154 12.5381L2.96187 13.0685C3.32748 13.4341 3.80651 13.6171 4.2857 13.6176C4.30425 13.6177 4.32281 13.6174 4.34137 13.6168C4.77781 13.6045 5.21075 13.4405 5.5545 13.125L5.56606 13.1143C5.58208 13.0994 5.5979 13.0841 5.61351 13.0685L5.62108 13.0609C5.64265 13.0393 5.67513 13.033 5.7033 13.0448C5.73147 13.0564 5.75 13.0838 5.75 13.1143V13.125C5.75 13.147 5.75038 13.1691 5.75114 13.1909L5.75175 13.2067C5.77173 13.6729 5.96193 14.0949 6.26175 14.4123C6.2745 14.4258 6.28744 14.4391 6.30058 14.4522C6.6398 14.7907 7.10795 15 7.625 15H8.375C8.89205 15 9.3602 14.7907 9.69942 14.4522C9.71255 14.4391 9.72552 14.4258 9.73828 14.4123C10.0381 14.0949 10.2282 13.6729 10.2483 13.2067L10.2489 13.1909C10.2496 13.1691 10.25 13.147 10.25 13.125V13.1143C10.25 13.0838 10.2685 13.0564 10.2967 13.0448C10.3249 13.033 10.3573 13.0393 10.3789 13.0609L10.3865 13.0685C10.4021 13.0841 10.4179 13.0994 10.4339 13.1143L10.4455 13.125C10.7893 13.4405 11.2222 13.6045 11.6587 13.6168C11.6772 13.6174 11.6958 13.6177 11.7143 13.6176C12.1935 13.6171 12.6725 13.4341 13.0381 13.0685L13.5685 12.5381C13.9341 12.1725 14.1172 11.6935 14.1177 11.2143C14.1177 11.1958 14.1174 11.1772 14.1168 11.1587C14.1045 10.7222 13.9405 10.2893 13.625 9.94553L13.6143 9.9339C13.5994 9.91792 13.5841 9.9021 13.5685 9.8865L13.5609 9.87893C13.5393 9.85732 13.533 9.82485 13.5448 9.79673C13.5564 9.76853 13.5838 9.75 13.6143 9.75H13.625C13.647 9.75 13.6691 9.74963 13.6909 9.74887L13.7067 9.74827C14.1729 9.72825 14.5949 9.53805 14.9123 9.23828C14.9258 9.22552 14.9391 9.21255 14.9522 9.19942C15.2907 8.8602 15.5 8.39205 15.5 7.875V7.125C15.5 6.60795 15.2907 6.1398 14.9522 5.80058C14.9391 5.78744 14.9258 5.7745 14.9123 5.76175C14.5949 5.46193 14.1729 5.27173 13.7067 5.25175L13.6909 5.25114C13.6691 5.25038 13.647 5.25 13.625 5.25H13.6143C13.5838 5.25 13.5564 5.23147 13.5448 5.20331C13.533 5.17513 13.5393 5.14265 13.5609 5.12108L13.5685 5.11351C13.5841 5.0979 13.5994 5.08208 13.6143 5.06607L13.625 5.05451C13.9405 4.71075 14.1045 4.27781 14.1168 3.84137C14.1174 3.82282 14.1177 3.80425 14.1177 3.7857C14.1172 3.30651 13.9341 2.82748 13.5685 2.46187L13.0381 1.93154C12.6725 1.56593 12.1935 1.38287 11.7143 1.38236C11.6958 1.38234 11.6772 1.38259 11.6587 1.38313C11.2222 1.39555 10.7893 1.5595 10.4455 1.875L10.4339 1.8857C10.4179 1.90064 10.4021 1.91592 10.3865 1.93154L10.3789 1.9391C10.3573 1.96067 10.3249 1.96696 10.2967 1.95526C10.2685 1.94359 10.25 1.91618 10.25 1.8857V1.875C10.25 1.85292 10.2496 1.83093 10.2489 1.80904L10.2483 1.7933C10.2282 1.32715 10.0381 0.905085 9.73828 0.587685C9.72552 0.574193 9.71255 0.56088 9.69942 0.54777ZM7.62484 13.5C7.41776 13.5 7.24984 13.3321 7.24984 13.125V13.1143C7.24984 12.4697 6.85894 11.9002 6.27772 11.6592C5.69528 11.4177 5.01583 11.5447 4.56025 12.0003L4.55269 12.0078C4.40624 12.1543 4.16881 12.1543 4.02236 12.0078L3.49203 11.4775C3.34558 11.331 3.34558 11.0937 3.49203 10.9472L3.4996 10.9396C3.95517 10.4841 4.08222 9.80456 3.84069 9.22211C3.59967 8.64094 3.0302 8.25004 2.38553 8.25004H2.37484C2.16773 8.25004 1.99984 8.08212 1.99984 7.87504V7.12504C1.99984 6.91797 2.16773 6.75004 2.37484 6.75004H2.38553C3.0302 6.75004 3.59967 6.35914 3.8407 5.77793C4.08222 5.19549 3.95517 4.51603 3.49959 4.06046L3.49203 4.0529C3.34558 3.90645 3.34558 3.66901 3.49203 3.52257L4.02236 2.99223C4.16881 2.84579 4.40624 2.84579 4.55269 2.99223L4.56025 2.9998C5.01583 3.45537 5.69527 3.58242 6.27772 3.3409C6.85894 3.09987 7.24984 2.5304 7.24984 1.88574V1.87504C7.24984 1.66794 7.41776 1.50004 7.62484 1.50004H8.37484C8.58191 1.50004 8.74984 1.66794 8.74984 1.87504V1.88574C8.74984 2.5304 9.14074 3.09987 9.72199 3.3409C10.3044 3.58242 10.9839 3.45537 11.4394 2.9998L11.447 2.99223C11.5935 2.84579 11.8308 2.84579 11.9773 2.99223L12.5076 3.52257C12.6541 3.66901 12.6541 3.90645 12.5076 4.0529L12.5001 4.06046C12.0445 4.51603 11.9175 5.19549 12.159 5.77793C12.4 6.35914 12.9695 6.75004 13.6141 6.75004H13.6248C13.8319 6.75004 13.9998 6.91797 13.9998 7.12504V7.87504C13.9998 8.08212 13.8319 8.25004 13.6248 8.25004H13.6141C12.9695 8.25004 12.4 8.64094 12.159 9.22211C11.9175 9.80456 12.0445 10.4841 12.5001 10.9396L12.5076 10.9472C12.6541 11.0937 12.6541 11.331 12.5076 11.4775L11.9773 12.0078C11.8308 12.1543 11.5935 12.1543 11.447 12.0078L11.4394 12.0003C10.9839 11.5447 10.3044 11.4177 9.72199 11.6592C9.14074 11.9002 8.74984 12.4697 8.74984 13.1143V13.125C8.74984 13.3321 8.58191 13.5 8.37484 13.5H7.62484ZM9.50049 7.49988C9.50049 8.32833 8.82894 8.99988 8.00049 8.99988C7.17204 8.99988 6.50049 8.32833 6.50049 7.49988C6.50049 6.67143 7.17204 5.99988 8.00049 5.99988C8.82894 5.99988 9.50049 6.67143 9.50049 7.49988ZM11.0007 7.49984C11.0007 9.15666 9.65748 10.4998 8.00065 10.4998C6.3438 10.4998 5.00065 9.15666 5.00065 7.49984C5.00065 5.84298 6.3438 4.49984 8.00065 4.49984C9.65748 4.49984 11.0007 5.84298 11.0007 7.49984Z" />
</g>
</svg>
