<svg width="24" height="24" viewBox="0 0 24 24" fill="none" xmlns="http://www.w3.org/2000/svg">
<path d="M20.9945 8.39992C20.9945 8.18812 20.8877 7.98713 20.6975 7.87913L12.2976 3.0792C12.1128 2.9736 11.8866 2.9736 11.7024 3.0792L3.30253 7.87913C3.11233 7.98773 3.00613 8.18812 3.00553 8.39992H3.00013V10.7999C3.00013 11.1317 3.26893 11.3999 3.60013 11.3999H20.3999C20.7311 11.3999 20.9999 11.1317 20.9999 10.7999V8.39992H20.9945ZM12 4.29058L18.1403 7.79993H5.85969L12 4.29058ZM4.20012 10.1999V8.99991H19.7999V10.1999H4.20012ZM20.3999 16.7998H16.1999C15.8687 16.7998 15.5999 17.068 15.5999 17.3998C15.5999 17.7316 15.8687 17.9998 16.1999 17.9998H19.7999V19.1998H4.20012V17.9998H7.80006C8.13126 17.9998 8.40005 17.7316 8.40005 17.3998C8.40005 17.068 8.13126 16.7998 7.80006 16.7998H3.60013C3.26893 16.7998 3.00013 17.068 3.00013 17.3998V19.7997C3.00013 20.1315 3.26893 20.3997 3.60013 20.3997H20.3999C20.7311 20.3997 20.9999 20.1315 20.9999 19.7997V17.3998C20.9999 17.068 20.7311 16.7998 20.3999 16.7998ZM4.80011 14.3998C5.3941 14.3998 6.17469 14.0914 6.51848 13.5022C6.59828 13.3648 6.91988 13.1998 7.20007 13.1998C7.48027 13.1998 7.80186 13.3648 7.88166 13.5022C8.22546 14.0914 9.00604 14.3998 9.60004 14.3998C10.194 14.3998 10.9746 14.0914 11.3184 13.5022C11.3982 13.3648 11.7198 13.1998 12 13.1998C12.2802 13.1998 12.6018 13.3648 12.6816 13.5022C13.0254 14.0914 13.806 14.3998 14.4 14.3998C14.994 14.3998 15.7745 14.0914 16.1183 13.5022C16.1981 13.3648 16.5197 13.1998 16.7999 13.1998C17.0801 13.1998 17.4017 13.3648 17.4815 13.5022C17.8253 14.0914 18.6059 14.3998 19.1999 14.3998C19.7939 14.3998 20.5745 14.0914 20.9183 13.5022C21.0851 13.2154 20.9885 12.8483 20.7023 12.6815C20.4155 12.5159 20.0483 12.6119 19.8815 12.8975C19.8017 13.0349 19.4801 13.1998 19.1999 13.1998C18.9197 13.1998 18.5981 13.0349 18.5183 12.8975C18.1745 12.3083 17.3939 11.9999 16.7999 11.9999C16.2059 11.9999 15.4253 12.3083 15.0816 12.8975C15.0018 13.0349 14.6802 13.1998 14.4 13.1998C14.1198 13.1998 13.7982 13.0349 13.7184 12.8975C13.3746 12.3083 12.594 11.9999 12 11.9999C11.406 11.9999 10.6254 12.3083 10.2816 12.8975C10.2018 13.0349 9.88023 13.1998 9.60004 13.1998C9.31984 13.1998 8.99824 13.0349 8.91845 12.8975C8.57465 12.3083 7.79406 11.9999 7.20007 11.9999C6.60608 11.9999 5.82549 12.3083 5.4817 12.8975C5.4019 13.0349 5.0803 13.1998 4.80011 13.1998C4.51991 13.1998 4.19832 13.0349 4.11852 12.8975C3.95232 12.6113 3.58513 12.5153 3.29773 12.6815C3.01153 12.8483 2.91494 13.216 3.08173 13.5022C3.42553 14.0914 4.20612 14.3998 4.80011 14.3998Z" fill="#E1DBC5"/>
<path d="M20.3997 14.9998H15.5998C15.4816 14.9998 15.3652 15.0352 15.2668 15.1006L11.9999 17.2785L8.73291 15.1006C8.63452 15.0352 8.51812 14.9998 8.39992 14.9998H3.59999C3.2688 14.9998 3 15.268 3 15.5997C3 15.9315 3.2688 16.1997 3.59999 16.1997H8.21812L11.6669 18.4989C11.7677 18.5661 11.8841 18.5997 11.9999 18.5997C12.1157 18.5997 12.2321 18.5661 12.3329 18.4989L15.7816 16.1997H20.3997C20.7309 16.1997 20.9997 15.9315 20.9997 15.5997C20.9997 15.268 20.7309 14.9998 20.3997 14.9998Z" fill="#E1DBC5"/>
</svg>
