<svg width="49" height="90" viewBox="0 0 49 90" fill="none" xmlns="http://www.w3.org/2000/svg">
<path d="M48.2625 1L28.7023 20.5599C26.3923 22.8699 22.6123 22.8699 20.3023 20.5599L0.742188 1" stroke="#E1DBC5" stroke-width="0.45" stroke-miterlimit="10" stroke-linecap="round" stroke-linejoin="round"/>
<path d="M48.2625 17.7925L28.7023 37.3524C26.3923 39.6623 22.6123 39.6623 20.3023 37.3524L0.742188 17.7925" stroke="#E1DBC5" stroke-width="0.45" stroke-miterlimit="10" stroke-linecap="round" stroke-linejoin="round"/>
<path d="M48.2625 34.585L28.7023 54.1448C26.3923 56.4548 22.6123 56.4548 20.3023 54.1448L0.742188 34.585" stroke="#E1DBC5" stroke-width="0.45" stroke-miterlimit="10" stroke-linecap="round" stroke-linejoin="round"/>
<path d="M48.2625 51.377L28.7023 70.9368C26.3923 73.2468 22.6123 73.2468 20.3023 70.9368L0.742188 51.377" stroke="#E1DBC5" stroke-width="0.45" stroke-miterlimit="10" stroke-linecap="round" stroke-linejoin="round"/>
<path d="M48.2625 68.1694L28.7023 87.7293C26.3923 90.0393 22.6123 90.0393 20.3023 87.7293L0.742188 68.1694" stroke="#E1DBC5" stroke-width="0.45" stroke-miterlimit="10" stroke-linecap="round" stroke-linejoin="round"/>
</svg>
