<svg width="24" height="24" viewBox="0 0 24 24" fill="none" xmlns="http://www.w3.org/2000/svg">
<circle cx="12" cy="12" r="7" fill="#E1DBC5"/>
<path d="M12.0031 9.9002C12.0031 9.5136 12.3165 9.2002 12.7031 9.2002C13.0897 9.2002 13.4031 9.5136 13.4031 9.9002V12.7002C13.4031 13.0868 13.0897 13.4002 12.7031 13.4002H9.90312C9.51653 13.4002 9.20312 13.0868 9.20312 12.7002C9.20312 12.3136 9.51652 12.0002 9.90312 12.0002H12.0031V9.9002Z" fill="#262626"/>
<path fill-rule="evenodd" clip-rule="evenodd" d="M19 12C19 15.866 15.866 19 12 19C8.134 19 5 15.866 5 12C5 8.134 8.134 5 12 5C15.866 5 19 8.134 19 12ZM17.6 12C17.6 15.0928 15.0928 17.6 12 17.6C8.9072 17.6 6.4 15.0928 6.4 12C6.4 8.9072 8.9072 6.4 12 6.4C15.0928 6.4 17.6 8.9072 17.6 12Z" fill="#E1DBC5"/>
</svg>
