<svg width="24" height="25" viewBox="0 0 24 25" fill="none" xmlns="http://www.w3.org/2000/svg">
<path d="M17.8446 9.92955L17.5547 18.7045C17.53 19.456 17.2134 20.1683 16.6721 20.6903C16.1308 21.2122 15.4075 21.5026 14.6556 21.5H9.14721C8.39577 21.5027 7.67282 21.2126 7.13162 20.6913C6.59042 20.17 6.27351 19.4584 6.24808 18.7074L5.95816 9.92955C5.95182 9.73733 6.0221 9.55046 6.15353 9.41005C6.28497 9.26964 6.4668 9.1872 6.65903 9.18085C6.85125 9.17451 7.03812 9.24479 7.17853 9.37622C7.31894 9.50766 7.40138 9.68949 7.40773 9.88172L7.69764 18.6588C7.71208 19.0335 7.87115 19.3881 8.14145 19.6479C8.41174 19.9078 8.77223 20.0529 9.14721 20.0526H14.6556C15.031 20.0528 15.3919 19.9074 15.6623 19.6469C15.9327 19.3864 16.0914 19.0311 16.1051 18.6559L16.395 9.88172C16.4014 9.68949 16.4838 9.50766 16.6242 9.37622C16.7646 9.24479 16.9515 9.17451 17.1437 9.18085C17.336 9.1872 17.5178 9.26964 17.6492 9.41005C17.7807 9.55046 17.8509 9.73733 17.8446 9.92955ZM18.8035 7.0094C18.8035 7.20163 18.7271 7.38598 18.5912 7.5219C18.4553 7.65783 18.2709 7.73419 18.0787 7.73419H5.72478C5.53256 7.73419 5.34821 7.65783 5.21228 7.5219C5.07636 7.38598 5 7.20163 5 7.0094C5 6.81718 5.07636 6.63283 5.21228 6.49691C5.34821 6.36098 5.53256 6.28462 5.72478 6.28462H7.97161C8.20125 6.28524 8.42292 6.2004 8.59346 6.0466C8.764 5.8928 8.87122 5.68106 8.89426 5.45257C8.94774 4.91658 9.19885 4.41971 9.59867 4.05875C9.99848 3.69779 10.5184 3.49861 11.057 3.50001H12.7458C13.2844 3.49861 13.8043 3.69779 14.2041 4.05875C14.6039 4.41971 14.855 4.91658 14.9085 5.45257C14.9315 5.68106 15.0388 5.8928 15.2093 6.0466C15.3798 6.2004 15.6015 6.28524 15.8312 6.28462H18.078C18.2702 6.28462 18.4546 6.36098 18.5905 6.49691C18.7264 6.63283 18.8028 6.81718 18.8028 7.0094H18.8035ZM10.1525 6.28462H13.6517C13.5565 6.067 13.4942 5.8364 13.4669 5.60043C13.449 5.42177 13.3653 5.25615 13.2322 5.13563C13.0991 5.01512 12.926 4.9483 12.7465 4.94812H11.0577C10.8782 4.9483 10.7051 5.01512 10.572 5.13563C10.4389 5.25615 10.3553 5.42177 10.3373 5.60043C10.3098 5.83644 10.2472 6.06704 10.1518 6.28462H10.1525ZM10.8823 17.2658V11.0943C10.8823 10.9021 10.806 10.7177 10.6701 10.5818C10.5341 10.4459 10.3498 10.3695 10.1576 10.3695C9.96533 10.3695 9.78098 10.4459 9.64505 10.5818C9.50913 10.7177 9.43277 10.9021 9.43277 11.0943V17.2687C9.43277 17.4609 9.50913 17.6453 9.64505 17.7812C9.78098 17.9171 9.96533 17.9935 10.1576 17.9935C10.3498 17.9935 10.5341 17.9171 10.6701 17.7812C10.806 17.6453 10.8823 17.4609 10.8823 17.2687V17.2658ZM14.3714 17.2658V11.0943C14.3714 10.9021 14.2951 10.7177 14.1592 10.5818C14.0232 10.4459 13.8389 10.3695 13.6467 10.3695C13.4544 10.3695 13.2701 10.4459 13.1342 10.5818C12.9982 10.7177 12.9219 10.9021 12.9219 11.0943V17.2687C12.9219 17.4609 12.9982 17.6453 13.1342 17.7812C13.2701 17.9171 13.4544 17.9935 13.6467 17.9935C13.8389 17.9935 14.0232 17.9171 14.1592 17.7812C14.2951 17.6453 14.3714 17.4609 14.3714 17.2687V17.2658Z" fill="#F86969"/>
</svg>
