<svg xmlns="http://www.w3.org/2000/svg" fill="currentColor" viewBox="0 0 24 24">
<g clip-path="url(#clip0_7617_51491)">
<path d="M22.1621 5.8864C21.3986 6.22409 20.589 6.44587 19.7601 6.5444C20.6338 6.02183 21.2878 5.19941 21.6001 4.2304C20.7801 4.7184 19.8811 5.0604 18.9441 5.2454C18.3147 4.57197 17.4804 4.12536 16.571 3.97498C15.6616 3.8246 14.728 3.97889 13.9153 4.41385C13.1026 4.84881 12.4564 5.54008 12.0772 6.38019C11.6979 7.2203 11.6068 8.16218 11.8181 9.0594C10.1552 8.97605 8.52838 8.54392 7.04334 7.79106C5.55829 7.0382 4.24818 5.98144 3.19805 4.6894C2.82634 5.32785 2.63101 6.05362 2.63205 6.7924C2.63205 8.2424 3.37005 9.5234 4.49205 10.2734C3.82806 10.2525 3.17869 10.0732 2.59805 9.7504V9.80239C2.59825 10.7681 2.93242 11.704 3.5439 12.4515C4.15538 13.1989 5.00653 13.7119 5.95305 13.9034C5.33667 14.0704 4.69036 14.0951 4.06305 13.9754C4.32992 14.8066 4.85006 15.5336 5.55064 16.0545C6.25123 16.5754 7.09718 16.8642 7.97005 16.8804C7.10253 17.5617 6.10923 18.0654 5.04693 18.3626C3.98464 18.6598 2.87418 18.7446 1.77905 18.6124C3.69075 19.8418 5.91615 20.4945 8.18905 20.4924C15.8821 20.4924 20.0891 14.1194 20.0891 8.5924C20.0891 8.4124 20.0841 8.2304 20.0761 8.0524C20.8949 7.46056 21.6017 6.72741 22.1631 5.8874L22.1621 5.8864Z" fill="#19191B"/>
</g>
<defs>
<clipPath id="clip0_7617_51491">
<rect width="24" height="24" fill="white" transform="translate(0 0.230469)"/>
</clipPath>
</defs>
</svg>
