<svg width="24" height="24" viewBox="0 0 24 24" fill="none" xmlns="http://www.w3.org/2000/svg">
<g id="Upload">
<path id="Combined Shape" fill-rule="evenodd" clip-rule="evenodd" d="M2.66667 12C2.66667 11.2637 2.06973 10.6667 1.33333 10.6667C0.596933 10.6667 0 11.2637 0 12L0 16.3217L0 16.3218C0 17.3951 0 18.2809 0.0589313 19.0025C0.120131 19.752 0.251598 20.4409 0.581331 21.088C1.09266 22.0915 1.90853 22.9075 2.912 23.4188C3.5592 23.7485 4.24813 23.8799 4.9976 23.9411C5.7192 24.0001 6.60493 24.0001 7.67827 24H16.3217C17.395 24.0001 18.2808 24.0001 19.0024 23.9411C19.7519 23.8799 20.4408 23.7485 21.0879 23.4188C22.0915 22.9075 22.9074 22.0915 23.4187 21.088C23.7484 20.4409 23.8798 19.752 23.9411 19.0025C24 18.281 24 17.3951 24 16.322V16.3219V12C24 11.2637 23.403 10.6667 22.6667 10.6667C21.9303 10.6667 21.3333 11.2637 21.3333 12V16.2667C21.3333 17.4088 21.3323 18.1852 21.2833 18.7853C21.2355 19.3699 21.1489 19.6688 21.0427 19.8773C20.787 20.3791 20.3791 20.7871 19.8773 21.0428C19.6688 21.1489 19.3698 21.2356 18.7853 21.2833C18.1852 21.3324 17.4088 21.3333 16.2667 21.3333H7.73333C6.5912 21.3333 5.8148 21.3324 5.21466 21.2833C4.63013 21.2356 4.3312 21.1489 4.12267 21.0428C3.62093 20.7871 3.21293 20.3791 2.95733 19.8773C2.85107 19.6688 2.76453 19.3699 2.7168 18.7853C2.66773 18.1852 2.66667 17.4088 2.66667 16.2667L2.66667 12ZM12 17.3332C12.7364 17.3332 13.3333 16.7362 13.3333 15.9999L13.3333 4.55213L15.0572 6.276C15.5779 6.79667 16.4221 6.79667 16.9428 6.276C17.4635 5.75533 17.4635 4.91107 16.9428 4.3904L12.9428 0.3904C12.4221 -0.130268 11.5779 -0.130268 11.0572 0.3904L7.05719 4.3904C6.53649 4.91107 6.53649 5.75533 7.05719 6.276C7.57789 6.79667 8.42211 6.79667 8.94281 6.276L10.6667 4.55213L10.6667 15.9999C10.6667 16.7362 11.2636 17.3332 12 17.3332Z" fill="white"/>
</g>
</svg>
