<svg width="25" height="25" viewBox="0 0 25 25" fill="none" xmlns="http://www.w3.org/2000/svg">
<path d="M10.509 14.9394L10.8288 14.9408C15.4732 14.9812 18.101 15.9192 18.101 18.4814C18.101 20.9893 15.5825 21.9567 11.1411 22.0378L10.509 22.0434C5.66463 22.0434 2.91797 21.1225 2.91797 18.5014C2.91797 15.8769 5.67556 14.9394 10.509 14.9394ZM10.509 16.4394C6.49162 16.4394 4.41797 17.1444 4.41797 18.5014C4.41797 19.8498 6.48664 20.5434 10.509 20.5434C14.5266 20.5434 16.601 19.8384 16.601 18.4814C16.601 17.1337 14.5304 16.4394 10.509 16.4394ZM18.5047 14.2312C19.0852 14.2707 19.6624 14.3539 20.2171 14.4769C21.4052 14.7133 22.2884 15.1544 22.6931 16.0036C22.992 16.6323 22.992 17.3637 22.6932 17.9924C22.2908 18.8394 21.4167 19.2774 20.2219 19.5231C19.8161 19.6066 19.4196 19.3453 19.3361 18.9396C19.2527 18.5339 19.5139 18.1373 19.9197 18.0539C20.6885 17.8958 21.2002 17.6394 21.3384 17.3486C21.4436 17.1273 21.4436 16.8687 21.3387 16.6482C21.1996 16.3564 20.6853 16.0994 19.9087 15.9448C19.4113 15.8347 18.9084 15.7622 18.4029 15.7278C17.9896 15.6997 17.6774 15.3419 17.7055 14.9286C17.7336 14.5154 18.0914 14.2031 18.5047 14.2312ZM10.509 2.98291C13.357 2.98291 15.644 5.26952 15.644 8.11691C15.644 10.9651 13.3572 13.2519 10.509 13.2519C7.66089 13.2519 5.37497 10.9653 5.37497 8.11691C5.37497 5.26938 7.66107 2.98291 10.509 2.98291ZM16.9377 4.05251C19.1726 4.05251 20.9847 5.86499 20.9847 8.09951C20.9847 10.3347 19.1729 12.1465 16.9377 12.1465C16.5235 12.1465 16.1877 11.8107 16.1877 11.3965C16.1877 10.9823 16.5235 10.6465 16.9377 10.6465C18.3445 10.6465 19.4847 9.5063 19.4847 8.09951C19.4847 6.69334 18.3441 5.55251 16.9377 5.55251C16.5235 5.55251 16.1877 5.21672 16.1877 4.80251C16.1877 4.3883 16.5235 4.05251 16.9377 4.05251ZM10.509 4.48291C8.48955 4.48291 6.87497 6.09775 6.87497 8.11691C6.87497 10.1369 8.48943 11.7519 10.509 11.7519C12.5288 11.7519 14.144 10.1367 14.144 8.11691C14.144 6.098 12.5286 4.48291 10.509 4.48291Z" fill="#E1DBC5"/>
</svg>
