<svg viewBox="0 0 24 24" fill="currentColor" xmlns="http://www.w3.org/2000/svg">
<path d="M18.6533 4C18.3533 3.4 17.6533 3 17.0533 3H12.3533C11.3533 3 10.4533 3.8 10.4533 4.9V7C10.4533 8 11.2533 8.9 12.3533 8.9H15.5533C15.6533 8.9 15.7533 9 15.7533 9.1V12.9C14.3533 12.6 12.8533 12.5 11.4533 12.8C10.1533 11.7 8.45328 11.2 6.75328 11.7C5.05328 12.1 3.65328 13.5 3.15328 15.3C2.75328 16.8 3.15328 18.4 4.15328 19.7C5.15328 20.9 6.55328 21.6 8.15328 21.6C14.7533 21.6 19.4533 19.2 20.9533 18.4L21.1533 18.3C21.4533 18.2 21.6533 17.9 21.6533 17.6V15.3C21.6533 11.3 20.6533 7.4 18.6533 4ZM8.85328 13.7C8.45328 13.9 8.25328 14.4 8.45328 14.8C8.55328 15 8.75328 15.1 8.95328 15.2C9.15328 15.3 9.35328 15.3 9.55328 15.2C11.9533 14 14.8533 14 17.2533 15.2C17.4533 15.3 17.6533 15.3 17.8533 15.2C18.0533 15.1 18.2533 15 18.3533 14.8C18.5533 14.4 18.3533 13.9 17.9533 13.7C17.7533 13.6 17.5533 13.5 17.3533 13.4V9.1C17.3533 8.1 16.5533 7.2 15.4533 7.2H15.2533V5.9C15.2533 5.4 14.8533 5.1 14.4533 5.1H13.3533C12.8533 5.1 12.5533 5.5 12.5533 5.9C12.5533 6.3 12.9533 6.7 13.3533 6.7H13.5533V7.2H12.3533C12.2533 7.2 12.1533 7.1 12.1533 7V4.9C12.1533 4.8 12.2533 4.7 12.3533 4.7H17.0533C17.1533 4.7 17.2533 4.7 17.2533 4.8C19.0533 8 19.9533 11.6 19.9533 15.3V17.1C18.2533 18 14.0533 20 8.05328 20C7.05328 20 6.05328 19.5 5.35328 18.7C4.65328 17.9 4.45328 16.8 4.75328 15.8C5.05328 14.5 6.05328 13.5 7.25328 13.2C7.55328 13.1 7.85328 13.1 8.15328 13.1C8.65328 13.1 9.05328 13.2 9.45328 13.4C9.25328 13.5 9.05328 13.6 8.85328 13.7Z"/>
</svg>
