<svg width="25" height="24" viewBox="0 0 25 24" fill="none" xmlns="http://www.w3.org/2000/svg">
<path d="M17.5 18.5H7.5C4.06 18.5 1.75 16.19 1.75 12.75V6.75C1.75 3.31 4.06 1 7.5 1H17.5C20.94 1 23.25 3.31 23.25 6.75V12.75C23.25 16.19 20.94 18.5 17.5 18.5ZM7.5 2.5C4.92 2.5 3.25 4.17 3.25 6.75V12.75C3.25 15.33 4.92 17 7.5 17H17.5C20.08 17 21.75 15.33 21.75 12.75V6.75C21.75 4.17 20.08 2.5 17.5 2.5H7.5Z" fill="#797979"/>
<path d="M11.0916 13.2792C10.8016 13.2792 10.5216 13.2092 10.2716 13.0692C9.69161 12.7392 9.35156 12.0692 9.35156 11.2392V8.27924C9.35156 7.44924 9.68161 6.77925 10.2716 6.44925C10.8516 6.11925 11.6016 6.17923 12.3116 6.60923L14.7816 8.08924C15.4616 8.49924 15.8516 9.10925 15.8516 9.75925C15.8516 10.4093 15.4616 11.0192 14.7816 11.4292L12.3116 12.9092C11.9016 13.1492 11.4816 13.2792 11.0916 13.2792ZM11.0916 7.71924C11.0516 7.71924 11.0216 7.72923 11.0016 7.73923C10.9316 7.77923 15.002 9.44925 15.002 9.75925L11.502 11.25C11.502 11.55 12.932 8.7 13.002 8.75C13.082 8.79 11.2716 11.7792 11.5316 11.6192L11.0916 7.71924C11.3416 7.56924 14.0016 9.35923 14.3416 9.74924C14.3416 9.65924 14.2516 9.51923 14.0016 9.35923L11.5316 7.87925C11.3516 7.76925 11.1916 7.71924 11.0916 7.71924Z" fill="#797979"/>
<path d="M7.5 21.75H17.5" stroke="#797979" stroke-width="1.5"/>
</svg>
