<svg viewBox="0 0 24 24" fill="currentColor" xmlns="http://www.w3.org/2000/svg">
<path d="M12 19C11.6764 19 11.4141 18.7365 11.4141 18.4114V17.2291C11.4141 16.904 11.6764 16.6404 12 16.6404C12.3236 16.6404 12.5859 16.904 12.5859 17.2291V18.4114C12.5859 18.7365 12.3236 19 12 19Z"/>
<path d="M12 15.4532C11.6764 15.4532 11.4141 15.1897 11.4141 14.8645V13.6823C11.4141 13.3572 11.6764 13.0936 12 13.0936C12.3236 13.0936 12.5859 13.3572 12.5859 13.6823V14.8645C12.5859 15.1897 12.3236 15.4532 12 15.4532Z"/>
<path d="M12 11.9064C11.6764 11.9064 11.4141 11.6429 11.4141 11.3178V10.1355C11.4141 9.81039 11.6764 9.54681 12 9.54681C12.3236 9.54681 12.5859 9.81039 12.5859 10.1355V11.3178C12.5859 11.6429 12.3236 11.9064 12 11.9064Z"/>
<path d="M12 8.35963C11.6764 8.35963 11.4141 8.09606 11.4141 7.77095V6.58868C11.4141 6.26357 11.6764 6 12 6C12.3236 6 12.5859 6.26357 12.5859 6.58868V7.77095C12.5859 8.09606 12.3236 8.35963 12 8.35963Z"/>
<path d="M21.4275 17.9999C21.3136 17.9999 21.2001 17.9614 21.1028 17.8854L14.2479 12.5344C14.0928 12.4133 14.0001 12.2135 14.0001 12C14.0001 11.7864 14.0928 11.5866 14.2479 11.4655L21.1028 6.11451C21.2779 5.97781 21.5056 5.96236 21.6938 6.07449C21.8821 6.18667 22 6.40786 22 6.64891V17.351C22.0062 17.7003 21.7343 18.0068 21.4275 17.9999ZM15.582 12L20.855 16.1162V7.8838L15.582 12Z"/>
<path d="M2.57258 17.9999C2.26583 18.0067 1.99388 17.7003 2.0001 17.351V6.64893C2.0001 6.40788 2.118 6.18664 2.30629 6.07451C2.49453 5.96234 2.72216 5.97782 2.89731 6.11453L9.75222 11.4655C9.90733 11.5866 10 11.7865 10 12C10 12.2135 9.90733 12.4133 9.75222 12.5344L2.89735 17.8855C2.80002 17.9614 2.68651 17.9999 2.57258 17.9999V17.9999ZM3.14513 7.88378V16.1162L8.4181 12L3.14513 7.88378Z"/>
</svg>
