<svg width="24" height="24" viewBox="0 0 24 24" fill="none" xmlns="http://www.w3.org/2000/svg">
<path d="M14.2227 13.8931C14.0057 13.8931 13.8297 14.0692 13.8297 14.2862C13.8297 14.5033 14.0057 14.6793 14.2227 14.6793C14.4398 14.6793 14.6157 14.5033 14.6157 14.2862V14.2859C14.6157 14.0689 14.4398 13.8931 14.2227 13.8931Z" fill="white" stroke="white" stroke-width="0.4"/>
<path d="M21.7293 18.8389H21.3756V17.2668C21.3756 16.8344 21.1415 16.4559 20.7936 16.2507C20.5934 15.4861 20.2091 14.8453 19.7044 14.4241C19.8373 14.1873 19.9135 13.9146 19.9135 13.6243C19.9135 13.6084 19.9132 13.5925 19.9128 13.5804C19.9015 12.9986 19.6575 12.384 19.2075 11.8029C19.0312 11.5752 18.8592 11.3992 18.7459 11.2916C18.6507 11.2012 18.579 11.1374 18.5162 11.0938C18.2259 9.62522 17.2639 8.5651 16.1319 8.47235C16.1191 8.45133 16.1068 8.43034 16.0932 8.40928C17.5467 7.84455 17.7742 6.43599 17.7905 6.32056C17.8087 6.19311 17.7633 6.06636 17.6718 5.9797C17.4832 5.79255 16.5101 4.92222 15.0836 5.29884C15.0012 3.83113 13.8806 3.17401 13.6364 3.04777C13.5282 2.9889 13.3971 2.98359 13.2829 3.03657C13.2248 3.06361 11.9028 3.69605 11.8133 5.29892C10.3919 4.92343 9.42054 5.78638 9.22502 5.97962C9.13557 6.06435 9.08998 6.18741 9.10515 6.31231C9.11285 6.37598 9.30598 7.82903 10.8032 8.40924C10.8002 8.41395 10.7975 8.41867 10.7946 8.42335H6.88006C6.15007 8.42335 5.47307 8.81094 4.9737 9.51479C4.50338 10.1777 4.24435 11.0523 4.24435 11.9774C4.24435 12.6659 4.38803 13.3262 4.65524 13.8922C4.64872 13.8921 4.64224 13.8919 4.63571 13.8919C3.90573 13.8919 3.22872 14.2795 2.72936 14.9833C2.25904 15.6462 2 16.5208 2 17.4459C2 18.371 2.25904 19.2456 2.72936 19.9085C3.22872 20.6124 3.90573 21 4.63571 21C4.6365 21 4.63724 21 4.63803 21L20.9433 21C21.5934 21 22.1223 20.4711 22.1223 19.821V19.2319C22.1223 19.0148 21.9464 18.8389 21.7293 18.8389ZM20.5896 17.2668V18.8389H15.9914V17.2668C15.9914 17.0501 16.1677 16.8738 16.3844 16.8738H20.1966C20.4133 16.8738 20.5896 17.0501 20.5896 17.2668ZM19.1271 13.5993C19.1273 13.6076 19.1275 13.6159 19.1275 13.6243C19.1275 14.0948 18.7447 14.4775 18.2742 14.4775C17.8037 14.4775 17.4209 14.0948 17.4209 13.6243C17.4209 13.6159 17.4211 13.6074 17.4214 13.5956C17.435 12.9103 17.9476 12.2604 18.2754 11.9293C18.5949 12.2524 19.1134 12.9027 19.1271 13.5993ZM14.8433 6.22691C14.943 6.17554 15.0499 6.13117 15.1611 6.09509C16.0299 5.81263 16.6755 6.18018 16.9681 6.40714C16.8697 6.7451 16.5661 7.43421 15.6887 7.71926C15.6365 7.73624 15.584 7.75098 15.5315 7.76379C14.9955 7.31013 14.4082 7.17152 13.9812 7.14023C14.1151 6.84445 14.3691 6.47128 14.8433 6.22691ZM14.0023 7.92956C14.3215 7.96517 14.7488 8.08936 15.1248 8.4553C15.1285 8.45935 15.1317 8.46379 15.1356 8.46768C15.216 8.5471 15.292 8.63573 15.3613 8.73123C15.8984 9.47041 15.7484 10.1978 15.6229 10.5462C15.2706 10.5572 14.5218 10.4812 13.9797 9.73503C13.9471 9.69011 13.9165 9.6442 13.8878 9.59771C14.1541 8.94739 14.1045 8.34557 14.0023 7.92956ZM13.447 3.84897C13.7533 4.05699 14.3024 4.55742 14.3024 5.47118C14.3024 5.52612 14.3002 5.58063 14.2962 5.63455C13.6991 6.00415 13.3857 6.51986 13.224 6.91633C12.984 6.69742 12.7075 6.34045 12.6217 5.81369C12.6037 5.70314 12.5946 5.5879 12.5946 5.47118C12.5946 4.54791 13.1572 4.04615 13.447 3.84897ZM13.0962 9.44153C13.0458 9.54163 12.9854 9.64035 12.9166 9.73503C12.3739 10.4821 11.6239 10.5576 11.2735 10.5464C11.148 10.1982 10.9979 9.47065 11.535 8.73127C11.5679 8.68607 11.6022 8.64257 11.6378 8.60067C11.7047 8.60563 11.7703 8.6081 11.8346 8.6081C12.4425 8.6081 12.9292 8.39756 13.2582 8.19351C13.3236 8.51173 13.3375 8.96421 13.0962 9.44153ZM9.92851 6.40726C10.221 6.18029 10.8666 5.81267 11.7357 6.09509C11.788 6.11211 11.8393 6.13105 11.8894 6.1516C12.0564 6.8336 12.45 7.29091 12.777 7.56724C12.4947 7.72779 12.07 7.8804 11.5429 7.79943C11.4319 7.78246 11.3192 7.7555 11.2078 7.71926C10.3298 7.43393 10.0265 6.74384 9.92851 6.40726ZM5.61479 9.96962C5.96261 9.47937 6.41198 9.20937 6.88006 9.20937C7.34814 9.20937 7.79751 9.47937 8.14533 9.96962C8.52219 10.5008 8.72974 11.2138 8.72974 11.9774C8.72974 12.741 8.52219 13.454 8.14533 13.9852C8.05973 14.1058 7.96792 14.213 7.87128 14.3062C7.78867 14.3655 7.70838 14.4309 7.63064 14.5023C7.39577 14.6613 7.14086 14.7454 6.88002 14.7454C6.60499 14.7454 6.33664 14.6515 6.09132 14.4752C6.03524 14.4252 5.97786 14.3782 5.9193 14.3344C5.81149 14.2347 5.70927 14.1184 5.61479 13.9852C5.23793 13.454 5.03038 12.741 5.03038 11.9774C5.03038 11.2138 5.23793 10.5008 5.61479 9.96962ZM6.89134 15.5312C6.88603 15.5424 6.88116 15.554 6.87597 15.5653C6.87075 15.554 6.86583 15.5424 6.86053 15.5311C6.86705 15.5312 6.87354 15.5314 6.88006 15.5314C6.88383 15.5314 6.88757 15.5313 6.89134 15.5312ZM4.63681 20.2139H4.63575C4.63559 20.2139 4.63544 20.2139 4.63532 20.2139C4.16732 20.2138 3.71814 19.9438 3.37044 19.4537C2.99358 18.9226 2.78603 18.2095 2.78603 17.4459C2.78603 16.6823 2.99358 15.9693 3.37044 15.4382C3.71826 14.9479 4.16763 14.6779 4.63571 14.6779C4.91074 14.6779 5.17913 14.7718 5.42445 14.9481C5.4805 14.9981 5.5378 15.045 5.59636 15.0888C5.70424 15.1885 5.80646 15.3049 5.90102 15.4381C6.25434 15.9361 6.45883 16.594 6.483 17.3035C6.48162 17.3509 6.48052 17.3983 6.48052 17.4459C6.48052 17.4935 6.48166 17.5409 6.483 17.5883C6.45883 18.2978 6.25434 18.9557 5.90102 19.4537C5.55348 19.9435 5.10454 20.2135 4.63681 20.2139ZM6.29647 20.214C6.38235 20.12 6.46437 20.0181 6.54211 19.9086C6.66936 19.7291 6.78059 19.5338 6.87597 19.3266C6.97136 19.5338 7.08258 19.7291 7.20984 19.9086C7.28758 20.0181 7.3696 20.12 7.45547 20.214H6.29647ZM9.11729 20.214H9.11517C8.64745 20.2136 8.1985 19.9436 7.85092 19.4538C7.4976 18.9557 7.29312 18.2979 7.26895 17.5884C7.27032 17.541 7.27142 17.4936 7.27142 17.446C7.27142 17.3983 7.27028 17.3509 7.26895 17.3036C7.29312 16.5941 7.4976 15.9362 7.85092 15.4382C7.93652 15.3176 8.02833 15.2104 8.12501 15.1172C8.20758 15.0578 8.28788 14.9924 8.36561 14.921C8.59942 14.7627 8.85311 14.6788 9.1127 14.6781C9.11391 14.6781 9.11505 14.6782 9.11627 14.6782H9.12472C9.58974 14.6815 10.0358 14.9509 10.3815 15.4382C10.7584 15.9694 10.9659 16.6824 10.9659 17.446C10.9659 18.2096 10.7584 18.9226 10.3815 19.4538C10.034 19.9436 9.58502 20.2135 9.11729 20.214ZM15.2054 18.8389H14.8511C14.634 18.8389 14.4581 19.0148 14.4581 19.2319V19.8079C14.4497 19.948 14.4672 20.0849 14.5084 20.214H10.7769C10.8628 20.12 10.9448 20.0181 11.0225 19.9086C11.4929 19.2457 11.7519 18.3711 11.7519 17.446C11.7519 16.5209 11.4929 15.6463 11.0225 14.9834C10.9448 14.8739 10.8629 14.7721 10.777 14.6781L12.7031 14.678C12.9202 14.678 13.0961 14.502 13.0961 14.2849C13.0961 14.0679 12.9201 13.8919 12.703 13.8919L9.13463 13.8923C9.12849 13.8922 9.12236 13.8919 9.11619 13.8919C9.11242 13.8919 9.10869 13.8921 9.10491 13.8921C9.37212 13.3261 9.51577 12.6659 9.51577 11.9774C9.51577 11.0523 9.25673 10.1778 8.78641 9.51482C8.70868 9.40525 8.62665 9.30338 8.54078 9.20941H10.4497C10.2149 10.1247 10.5532 10.8918 10.6495 11.0835C10.7024 11.1947 10.8054 11.276 10.9287 11.3002C10.9916 11.3124 12.4336 11.578 13.4482 10.3328C14.1487 11.1926 15.0529 11.3321 15.5663 11.3321C15.7965 11.3321 15.9482 11.304 15.9676 11.3002C16.091 11.276 16.1939 11.1947 16.2469 11.0835C16.3351 10.9086 16.6449 10.2119 16.4801 9.36025C17.098 9.62907 17.5961 10.3729 17.7619 11.334C17.6503 11.4433 17.4986 11.6036 17.3441 11.8024C16.8921 12.3843 16.647 12.999 16.6355 13.5767C16.6351 13.5925 16.6348 13.6084 16.6348 13.6243C16.6348 13.7155 16.6427 13.8049 16.657 13.892L15.5983 13.8922C15.3812 13.8923 15.2053 14.0682 15.2054 14.2853C15.2054 14.5024 15.3814 14.6782 15.5984 14.6782C15.5984 14.6782 15.5984 14.6782 15.5985 14.6782L17.0197 14.678C17.3206 15.0357 17.7712 15.2636 18.2742 15.2636C18.6024 15.2636 18.9082 15.1662 19.1648 14.9994C19.4782 15.2491 19.7402 15.6302 19.9161 16.0878H16.3844C15.7343 16.0878 15.2054 16.6167 15.2054 17.2668V18.8389ZM21.3363 19.821C21.3363 20.0377 21.16 20.214 20.9433 20.214H15.6049C15.4989 20.2139 15.3986 20.1714 15.3297 20.0972C15.2853 20.0495 15.2343 19.9678 15.243 19.85C15.2437 19.8403 15.2441 19.8307 15.2441 19.821V19.6249H15.5877C15.5913 19.625 15.5947 19.6255 15.5983 19.6255H20.9826C20.9862 19.6255 20.9897 19.625 20.9932 19.6249H21.3363V19.821Z" fill="white" stroke="white" stroke-width="0.4"/>
</svg>
