<svg width="24" height="24" viewBox="0 0 24 24" fill="none" xmlns="http://www.w3.org/2000/svg">
<path d="M22.8182 15.5658C21.0531 14.3336 19.3045 13.499 17.6127 13.0799C18.4295 10.4208 17.5659 7.87524 17.5238 7.75441C17.4385 7.50947 17.1346 7.38955 16.904 7.51496C16.0898 7.95799 15.3543 8.43827 14.7087 8.94732C14.2674 7.40393 13.4728 5.80424 12.3402 4.18181C12.1714 3.94005 11.7953 3.93874 11.6256 4.18181C10.4932 5.80394 9.69871 7.40336 9.25733 8.94658C8.61194 8.43779 7.87683 7.95773 7.06298 7.51492C6.8315 7.3889 6.52874 7.5089 6.44321 7.75436C6.40107 7.87533 5.53567 10.4261 6.35697 13.0883C4.68699 13.5007 2.94852 14.3324 1.18181 15.5657C0.940052 15.7345 0.938745 16.1106 1.18181 16.2803C3.82869 18.128 6.3822 19.0634 8.7777 19.0633C9.87911 19.0628 10.9779 18.858 11.9996 18.4447C12.882 18.8018 13.9586 19.0632 15.2211 19.0632C15.9078 19.0632 15.9018 18.1917 15.2215 18.1917C14.4335 18.1917 13.7264 18.0785 13.1024 17.9023C13.3541 17.7548 13.5794 17.6056 13.7769 17.4626C14.4956 16.9426 15.249 16.5915 15.8914 15.9495C16.4828 15.3586 16.9626 14.6653 17.3042 13.9021C18.7551 14.2469 20.2602 14.9246 21.7903 15.9231C20.7313 16.6145 19.6852 17.1536 18.6734 17.5288C18.149 17.7231 18.4502 18.541 18.9763 18.3459C20.2257 17.8827 21.5183 17.1878 22.8182 16.2804C23.0599 16.1116 23.0613 15.7355 22.8182 15.5658ZM11.9829 5.20957C13.019 6.79606 13.7075 8.34594 14.0321 9.82392C14.6055 12.4348 13.9915 15.3587 11.9829 17.2213C9.97432 15.3587 9.36035 12.4348 9.93371 9.82392C10.2583 8.34589 10.9469 6.79606 11.9829 5.20957ZM7.1266 8.55183C7.83848 8.96972 8.47612 9.41723 9.03092 9.88702C8.58663 12.1639 8.95675 14.5452 10.2474 16.4924C7.35985 14.8749 6.39597 11.6712 7.1266 8.55183ZM2.21036 15.9225C3.74059 14.9233 5.23561 14.2485 6.66648 13.9103C7.3819 15.5034 8.68842 16.7054 10.2392 17.4741C10.4384 17.6176 10.6635 17.7659 10.9135 17.9118C7.64353 18.8452 4.32323 17.2945 2.21036 15.9225ZM13.7178 16.4935C15.0089 14.5461 15.3793 12.1649 14.9351 9.88785C15.4902 9.41776 16.1281 8.96998 16.8404 8.55183C17.5713 11.6726 16.6067 14.8762 13.7178 16.4935Z" fill="white" stroke="white" stroke-width="0.4"/>
<path d="M17.5573 18.3302C17.4673 18.1106 17.2072 18.0034 16.9882 18.0945C16.7692 18.1856 16.6619 18.4439 16.7529 18.6632C16.8439 18.8823 17.1021 18.99 17.3216 18.8989C17.5407 18.808 17.6487 18.5497 17.5573 18.3302Z" fill="white" stroke="white" stroke-width="0.4"/>
</svg>
