<svg width="24" height="24" viewBox="0 0 24 24" fill="none" xmlns="http://www.w3.org/2000/svg">
<path fill-rule="evenodd" clip-rule="evenodd" d="M14.5 7.83325C14.7806 7.83325 15.0398 7.97416 15.193 8.20375L15.2454 8.29391L17.7454 13.2939C17.9512 13.7056 17.7843 14.2061 17.3727 14.4119C16.9905 14.6031 16.5315 14.4728 16.3031 14.1237L16.2547 14.0393L13.9842 9.49992H10.015L7.74538 14.0393C7.55425 14.4215 7.109 14.5927 6.71677 14.4504L6.62734 14.4119C6.2451 14.2208 6.07392 13.7756 6.21622 13.3833L6.25466 13.2939L8.75466 8.29391C8.88014 8.04296 9.12207 7.87417 9.39597 7.83975L9.50002 7.83325H14.5ZM9.50002 15.3333C9.92738 15.3333 10.2796 15.655 10.3277 16.0694L10.3333 16.1666V21.1666C10.3333 21.6268 9.96025 21.9999 9.50002 21.9999C9.07265 21.9999 8.72043 21.6782 8.67229 21.2638L8.66668 21.1666V16.1666C8.66668 15.7063 9.03978 15.3333 9.50002 15.3333ZM15.3277 16.0694C15.2796 15.655 14.9274 15.3333 14.5 15.3333C14.0398 15.3333 13.6667 15.7063 13.6667 16.1666V21.1666L13.6723 21.2638C13.7204 21.6782 14.0727 21.9999 14.5 21.9999C14.9603 21.9999 15.3333 21.6268 15.3333 21.1666V16.1666L15.3277 16.0694Z" fill="white"/>
<path d="M4.49996 10.3333C4.92732 10.3333 5.27955 10.655 5.32769 11.0694L5.33329 11.1666V16.1666C5.33329 16.6268 4.9602 16.9999 4.49996 16.9999C4.0726 16.9999 3.72037 16.6782 3.67223 16.2638L3.66663 16.1666V11.1666C3.66663 10.7063 4.03972 10.3333 4.49996 10.3333Z" fill="white"/>
<path d="M21.1667 12.8333C21.6269 12.8333 22 13.2063 22 13.6666C22 14.0939 21.6783 14.4462 21.2639 14.4943L21.1667 14.4999H2.83333C2.3731 14.4999 2 14.1268 2 13.6666C2 13.2392 2.3217 12.887 2.73615 12.8389L2.83333 12.8333H21.1667Z" fill="white"/>
<path d="M19.5 10.3333C19.9273 10.3333 20.2795 10.655 20.3277 11.0694L20.3333 11.1666V16.1666C20.3333 16.6268 19.9602 16.9999 19.5 16.9999C19.0726 16.9999 18.7204 16.6782 18.6722 16.2638L18.6666 16.1666V11.1666C18.6666 10.7063 19.0397 10.3333 19.5 10.3333Z" fill="white"/>
<path fill-rule="evenodd" clip-rule="evenodd" d="M9.5 4.5C9.5 3.11929 10.6193 2 12 2C13.3807 2 14.5 3.11929 14.5 4.5C14.5 5.88071 13.3807 7 12 7C10.6193 7 9.5 5.88071 9.5 4.5ZM12.8333 4.5C12.8333 4.03976 12.4602 3.66667 12 3.66667C11.5398 3.66667 11.1667 4.03976 11.1667 4.5C11.1667 4.96024 11.5398 5.33333 12 5.33333C12.4602 5.33333 12.8333 4.96024 12.8333 4.5Z" fill="white"/>
</svg>
