<svg width="24" height="24" viewBox="0 0 24 24" fill="none" xmlns="http://www.w3.org/2000/svg">
<path d="M15.9583 19.5203H4.42958L4.28083 18.5649H14.4608C14.5437 18.5649 14.6232 18.532 14.6818 18.4734C14.7404 18.4148 14.7733 18.3353 14.7733 18.2524C14.7733 18.1696 14.7404 18.0901 14.6818 18.0315C14.6232 17.9729 14.5437 17.9399 14.4608 17.9399H3.57208V17.1587H13.5417C13.6245 17.1587 13.704 17.1258 13.7626 17.0672C13.8212 17.0085 13.8542 16.9291 13.8542 16.8462C13.8542 16.7633 13.8212 16.6838 13.7626 16.6252C13.704 16.5666 13.6245 16.5337 13.5417 16.5337H3.96375L3.19417 11.5974H9.93458C10.0175 11.5974 10.0969 11.5645 10.1556 11.5059C10.2142 11.4473 10.2471 11.3678 10.2471 11.2849C10.2471 11.2021 10.2142 11.1226 10.1556 11.064C10.0969 11.0054 10.0175 10.9724 9.93458 10.9724H2.625V10.1891H9.05208C9.13496 10.1891 9.21445 10.1562 9.27305 10.0976C9.33166 10.039 9.36458 9.95948 9.36458 9.8766C9.36458 9.79372 9.33166 9.71423 9.27305 9.65563C9.21445 9.59702 9.13496 9.5641 9.05208 9.5641H2.87708L2.6775 8.28451H7.91917C8.00205 8.28451 8.08153 8.25159 8.14014 8.19298C8.19874 8.13438 8.23167 8.05489 8.23167 7.97201C8.23167 7.88913 8.19874 7.80965 8.14014 7.75104C8.08153 7.69244 8.00205 7.65951 7.91917 7.65951H5.04167V6.79285C5.0286 6.39821 4.86265 6.02411 4.57886 5.74956C4.29508 5.47502 3.91569 5.32153 3.52083 5.32153C3.12598 5.32153 2.74659 5.47502 2.4628 5.74956C2.17902 6.02411 2.01307 6.39821 2 6.79285V7.97201C2.00002 7.9882 2.00127 8.00435 2.00375 8.02035L2.24667 9.57743C2.17749 9.59147 2.11524 9.62885 2.07033 9.68331C2.02543 9.73778 2.0006 9.80601 2 9.8766V11.2849C2 11.3678 2.03292 11.4473 2.09153 11.5059C2.15013 11.5645 2.22962 11.5974 2.3125 11.5974H2.5625L3.33333 16.5337H3.25958C3.1767 16.5337 3.09722 16.5666 3.03861 16.6252C2.98001 16.6838 2.94708 16.7633 2.94708 16.8462V18.2541C2.94708 18.337 2.98001 18.4165 3.03861 18.4751C3.09722 18.5337 3.1767 18.5666 3.25958 18.5666H3.64792L3.85333 19.8824C3.86469 19.9562 3.90207 20.0234 3.95871 20.0719C4.01534 20.1204 4.08749 20.1471 4.16208 20.147H15.9583C16.0412 20.147 16.1207 20.1141 16.1793 20.0555C16.2379 19.9969 16.2708 19.9174 16.2708 19.8345C16.2708 19.7516 16.2379 19.6721 16.1793 19.6135C16.1207 19.5549 16.0412 19.522 15.9583 19.522V19.5203ZM3.52167 5.89535C3.75926 5.89601 3.98691 5.99086 4.15468 6.1591C4.32245 6.32734 4.41667 6.55525 4.41667 6.79285V7.65951H2.625V6.79285C2.625 6.55496 2.71944 6.3268 2.88758 6.15851C3.05571 5.99022 3.28378 5.89557 3.52167 5.89535Z" fill="white" stroke="white" stroke-width="0.4"/>
<path d="M16.8575 6.46533C16.7747 6.46533 16.6952 6.49826 16.6366 6.55686C16.578 6.61547 16.545 6.69495 16.545 6.77783C16.545 6.86071 16.578 6.9402 16.6366 6.9988C16.6952 7.05741 16.7747 7.09033 16.8575 7.09033H16.8659C16.9067 7.09022 16.9471 7.08204 16.9847 7.06624C17.0223 7.05045 17.0565 7.02736 17.0851 6.99831C17.1138 6.96926 17.1364 6.93482 17.1517 6.89698C17.167 6.85914 17.1747 6.81864 17.1742 6.77783C17.1732 6.69454 17.1394 6.61499 17.0801 6.55648C17.0208 6.49797 16.9408 6.46522 16.8575 6.46533Z" fill="white" stroke="white" stroke-width="0.4"/>
<path d="M3.51746 7.09033H3.52579C3.5666 7.09022 3.60699 7.08204 3.64462 7.06624C3.68225 7.05045 3.71639 7.02736 3.74505 6.99831C3.77371 6.96926 3.79634 6.93482 3.81163 6.89698C3.82692 6.85914 3.83456 6.81864 3.83412 6.77783C3.83314 6.69454 3.79932 6.61499 3.74003 6.55648C3.68074 6.49797 3.60076 6.46522 3.51746 6.46533C3.43458 6.46533 3.35509 6.49826 3.29649 6.55686C3.23788 6.61547 3.20496 6.69495 3.20496 6.77783C3.20496 6.86071 3.23788 6.9402 3.29649 6.9988C3.35509 7.05741 3.43458 7.09033 3.51746 7.09033Z" fill="white" stroke="white" stroke-width="0.4"/>
<path d="M19.2367 15.774C19.0184 15.774 17.4921 15.7924 16.8071 16.2378L8.46922 4.35611C8.34059 4.17623 8.14702 4.05347 7.92947 4.01381C7.71192 3.97414 7.48747 4.0207 7.30364 4.14361C7.11981 4.26653 6.99103 4.45615 6.94455 4.67235C6.89808 4.88855 6.93756 5.11434 7.05464 5.30194L14.9476 17.7186C15.4879 18.652 16.2758 19.4179 17.2242 19.9315C17.7587 20.1748 18.3399 20.2986 18.9271 20.2944C20.6213 20.2961 22.0001 19.3119 22.0001 18.1036V16.7511C22.0001 15.8015 19.5196 15.774 19.2367 15.774ZM19.2367 16.399C19.9507 16.3536 20.6654 16.4741 21.3251 16.7511C20.6654 17.0281 19.9507 17.1486 19.2367 17.1032C18.5226 17.1484 17.8078 17.0279 17.148 16.7511C17.8077 16.4742 18.5226 16.3537 19.2367 16.399ZM18.9271 19.6711C18.4313 19.6753 17.9406 19.5717 17.4888 19.3674C16.648 18.9026 15.9509 18.216 15.4734 17.3824L7.58339 4.96653C7.55636 4.9169 7.54889 4.85895 7.56244 4.80409C7.57598 4.74923 7.60957 4.70142 7.65659 4.67008C7.70361 4.63873 7.76065 4.62612 7.8165 4.63471C7.87236 4.64331 7.92297 4.67249 7.95839 4.71653L16.4955 16.8832C16.713 17.7044 18.968 17.7311 19.2371 17.7311C19.962 17.7384 20.6835 17.6322 21.3755 17.4165V18.1036C21.3751 18.9536 20.2542 19.6711 18.9271 19.6711Z" fill="white" stroke="white" stroke-width="0.4"/>
<path d="M11.9166 8.28435H17.7016L17.502 9.56393H13.2979C13.215 9.56393 13.1355 9.59686 13.0769 9.65546C13.0183 9.71407 12.9854 9.79355 12.9854 9.87643C12.9854 9.95931 13.0183 10.0388 13.0769 10.0974C13.1355 10.156 13.215 10.1889 13.2979 10.1889H17.7562V10.9723H14.3475C14.2646 10.9723 14.1851 11.0052 14.1265 11.0638C14.0679 11.1224 14.035 11.2019 14.035 11.2848C14.035 11.3676 14.0679 11.4471 14.1265 11.5057C14.1851 11.5643 14.2646 11.5973 14.3475 11.5973H17.185L16.6791 14.8398C16.6664 14.9217 16.6868 15.0053 16.7357 15.0723C16.7846 15.1392 16.858 15.184 16.94 15.1969C16.9561 15.1993 16.9724 15.2006 16.9887 15.2006C17.0631 15.2005 17.1351 15.1738 17.1916 15.1254C17.2481 15.077 17.2855 15.01 17.297 14.9364L17.8179 11.5973H18.0679C18.1508 11.5973 18.2302 11.5643 18.2888 11.5057C18.3475 11.4471 18.3804 11.3676 18.3804 11.2848V9.87643C18.3798 9.80585 18.355 9.73761 18.31 9.68315C18.2651 9.62869 18.2029 9.59131 18.1337 9.57727L18.375 8.02019C18.3774 8.00419 18.3787 7.98803 18.3787 7.97185V6.79269C18.3628 6.4 18.1956 6.0287 17.9121 5.75649C17.6287 5.48429 17.2509 5.33228 16.8579 5.33228C16.4649 5.33228 16.0871 5.48429 15.8036 5.75649C15.5202 6.0287 15.353 6.4 15.337 6.79269V7.65935H11.9166C11.8337 7.65935 11.7543 7.69228 11.6957 7.75088C11.6371 7.80949 11.6041 7.88897 11.6041 7.97185C11.6041 8.05473 11.6371 8.13422 11.6957 8.19282C11.7543 8.25143 11.8337 8.28435 11.9166 8.28435ZM15.9625 6.79269C15.9675 6.55817 16.0642 6.33496 16.2319 6.17089C16.3995 6.00681 16.6248 5.91493 16.8593 5.91493C17.0939 5.91493 17.3192 6.00681 17.4868 6.17089C17.6544 6.33496 17.7512 6.55817 17.7562 6.79269V7.65935H15.9645L15.9625 6.79269Z" fill="white" stroke="white" stroke-width="0.4"/>
</svg>
