<svg width="24" height="24" viewBox="0 0 24 24" fill="none" xmlns="http://www.w3.org/2000/svg">
<path d="M18.4485 16.2404H17.6509L14.2625 14.161L18.1152 12.0523C18.1394 12.0386 18.1618 12.022 18.1818 12.0028C18.5365 11.7954 18.8314 11.4998 19.0377 11.145C19.244 10.7901 19.3547 10.388 19.359 9.97786C19.3633 9.56767 19.261 9.16336 19.0622 8.80429C18.8634 8.44521 18.5748 8.1436 18.2245 7.92882L10.7726 3.35284C10.3498 3.09169 9.85511 2.97026 9.35907 3.00582H7.07331C6.39687 3.00664 5.74838 3.27507 5.27008 3.75224C4.79179 4.22941 4.52275 4.87635 4.52199 5.55115V7.09073H3.35728C3.26804 7.09078 3.18248 7.12617 3.11939 7.18911C3.05629 7.25205 3.02082 7.33741 3.02077 7.42643V9.27523C3.00736 9.31115 3.00034 9.34913 3 9.38745V20.6345C3 20.7236 3.03545 20.8089 3.09856 20.8719C3.16167 20.9348 3.24726 20.9702 3.33651 20.9702C3.42576 20.9702 3.51135 20.9348 3.57446 20.8719C3.63757 20.8089 3.67302 20.7236 3.67302 20.6345V19.3219H5.74361V20.6345C5.74361 20.7236 5.77907 20.8089 5.84217 20.8719C5.90528 20.9348 5.99087 20.9702 6.08012 20.9702C6.16937 20.9702 6.25496 20.9348 6.31807 20.8719C6.38118 20.8089 6.41663 20.7236 6.41663 20.6345V9.72295H12.0417L12.2352 9.84169L8.42781 11.927L8.42627 11.9282H8.42415L8.33666 11.9775C7.97731 12.1827 7.67761 12.4775 7.46698 12.8331C7.25634 13.1887 7.14201 13.5929 7.13521 14.0059C7.1284 14.4188 7.22935 14.8265 7.42815 15.1888C7.62695 15.5512 7.91677 15.8557 8.26917 16.0725L15.7216 20.6468C16.0531 20.8503 16.4293 20.9701 16.8177 20.9959H16.8296C16.8737 20.9983 16.9186 20.9996 16.9642 20.9998C17.0086 20.9998 17.0542 20.9986 17.1001 20.9961H20.6635C20.7527 20.9961 20.8383 20.9607 20.9014 20.8977C20.9645 20.8348 21 20.7494 21 20.6604V18.7855C20.9992 18.1107 20.7302 17.4638 20.2518 16.9866C19.7735 16.5095 19.1249 16.2411 18.4485 16.2404ZM5.195 5.55115C5.19556 5.05435 5.39363 4.57806 5.74575 4.22676C6.09788 3.87545 6.5753 3.67782 7.07331 3.67721H9.37099H9.3958C9.75472 3.64957 10.1132 3.73642 10.4194 3.92524L17.872 8.50084C18.1274 8.65823 18.3368 8.87979 18.4794 9.14333C18.6219 9.40688 18.6926 9.70315 18.6842 10.0025C18.6759 10.3018 18.5889 10.5937 18.4319 10.849C18.2749 11.1042 18.0534 11.3138 17.7897 11.4569C17.525 11.5998 17.2273 11.6708 16.9264 11.6628C16.6255 11.6547 16.3321 11.5679 16.0754 11.411L12.3138 9.10182L9.12005 7.14061C9.06698 7.108 9.00587 7.09074 8.94353 7.09073H5.195V5.55115ZM3.67302 14.2046H5.74361V16.0915H3.67302V14.2046ZM5.74361 13.5332H3.67302V11.6458H5.74361V13.5332ZM3.67302 18.6505V16.7629H5.74361V18.6505H3.67302ZM5.74361 10.9744H3.67302V9.72295H5.74361V10.9744ZM3.69379 9.05157V7.76212H8.84835L10.9484 9.05157H3.69379ZM15.7216 11.9834C15.9167 12.1027 16.1281 12.1932 16.3492 12.252L13.6029 13.7561L10.7724 12.0191C10.5783 11.9004 10.3683 11.81 10.1486 11.7505L12.8949 10.2466L15.7216 11.9834ZM20.3262 20.3253H17.0919H17.0726C17.0027 20.3297 16.9325 20.3297 16.8625 20.3253C16.5835 20.3081 16.3131 20.2221 16.0756 20.075L8.62298 15.5019C8.36993 15.3463 8.16177 15.1278 8.01892 14.8677C7.87608 14.6077 7.80346 14.3151 7.80819 14.0186C7.81292 13.7221 7.89484 13.4319 8.04591 13.1766C8.19698 12.9212 8.41201 12.7094 8.6699 12.562L8.74278 12.5201C9.00461 12.3866 9.29662 12.3229 9.59043 12.3352C9.88424 12.3475 10.1699 12.4354 10.4196 12.5903L17.3793 16.8619C17.4324 16.8945 17.4934 16.9118 17.5557 16.9118H18.4485C18.9465 16.9123 19.424 17.1099 19.7762 17.4611C20.1283 17.8124 20.3264 18.2887 20.327 18.7855L20.3262 20.3253Z" fill="white" stroke="white" stroke-width="0.5"/>
</svg>
