<svg width="18" height="16" viewBox="0 0 18 16" fill="none" xmlns="http://www.w3.org/2000/svg">
<path fill-rule="evenodd" clip-rule="evenodd" d="M9 3.74317L7.79958 2.68221C7.16146 2.11825 6.32318 1.77744 5.4 1.77744C3.41178 1.77744 1.8 3.36901 1.8 5.33231C1.8 7.99811 3.00578 9.96432 4.52902 11.4201C6.07894 12.9014 7.90182 13.7914 8.89713 14.2012C8.96634 14.2296 9.03366 14.2296 9.10287 14.2012C10.0982 13.7914 11.921 12.9014 13.471 11.4201C14.9942 9.96423 16.2 7.99811 16.2 5.33235C16.2 3.36905 14.5882 1.77744 12.6 1.77744C11.6768 1.77744 10.8385 2.11825 10.2004 2.68221L9 3.74317ZM9 1.35778C8.04465 0.513422 6.78304 0 5.4 0C2.41766 0 0 2.38736 0 5.33231C0 11.8654 6.00431 14.9359 8.2044 15.8418C8.71695 16.0527 9.28305 16.0527 9.7956 15.8418C11.9956 14.9359 18 11.8655 18 5.33236C18 2.3874 15.5823 0 12.6 0C11.217 0 9.95535 0.513422 9 1.35778Z" fill="white"/>
<path fill-rule="evenodd" clip-rule="evenodd" d="M0.657574 8.88722C0.440107 8.33195 0.268738 7.74006 0.155518 7.10978H7.64986C8.00995 7.10978 8.3353 7.32165 8.47714 7.64843L8.99986 8.85292L10.8727 4.5379C11.0145 4.21114 11.3399 3.99927 11.6999 3.99927C12.06 3.99927 12.3853 4.21114 12.5271 4.5379L13.6433 7.10978H17.8443C17.731 7.74006 17.5597 8.33195 17.3422 8.88722H13.0499C12.6899 8.88722 12.3645 8.67535 12.2227 8.34857L11.6999 7.14409L9.82714 11.4591C9.6853 11.7859 9.35995 11.9977 8.99986 11.9977C8.63986 11.9977 8.31451 11.7859 8.17267 11.4591L7.05645 8.88722H0.657574Z" fill="white"/>
</svg>
