<svg width="24" height="24" viewBox="0 0 24 24" fill="none" xmlns="http://www.w3.org/2000/svg">
<path fill-rule="evenodd" clip-rule="evenodd" d="M17.9927 11.3971L5.39274 12.8302C4.02937 12.9853 3 14.1312 3 15.4938V15.6593L3.00454 15.8152C3.06745 16.8934 3.77869 17.7989 4.75692 18.153L4.9233 18.2064L4.96872 18.339C5.35373 19.3789 6.34597 20.1001 7.5 20.1001L7.65865 20.0955C8.69977 20.0356 9.58263 19.39 9.97796 18.4855L10.0461 18.3127H13.9584L13.9679 18.339C14.3529 19.3789 15.3451 20.1001 16.5 20.1001L16.6586 20.0955C17.761 20.0321 18.6859 19.312 19.0426 18.3232L19.0857 18.1912L19.2264 18.1452C20.2737 17.7629 21 16.7776 21 15.6317V14.0607C21 13.9588 20.9941 13.8569 20.9825 13.7556C20.8128 12.2845 19.4742 11.2286 17.9927 11.3971ZM18.1976 13.1728C18.6914 13.1166 19.1376 13.4686 19.1942 13.959C19.198 13.9928 19.2 14.0267 19.2 14.0607V15.6317C19.2 16.1002 18.8351 16.4887 18.3681 16.5229L18.2669 16.5259C17.8176 16.5423 17.4552 16.8838 17.4058 17.3174L17.4 17.419C17.4 17.8773 17.0526 18.2551 16.6043 18.3067L16.4992 18.3127C16.0273 18.3127 15.6361 17.9504 15.6017 17.4867L15.5986 17.3862C15.5808 16.9057 15.1834 16.5253 14.6992 16.5253H9.3C8.83845 16.5253 8.45804 16.8703 8.40605 17.3148L8.4 17.419C8.4 17.9126 7.99706 18.3127 7.5 18.3127C7.02811 18.3127 6.63695 17.9504 6.6025 17.4867L6.59939 17.3862C6.58288 16.9401 6.23903 16.5802 5.80232 16.5311L5.6722 16.5253C5.1905 16.5253 4.8 16.1376 4.8 15.6593V15.4938C4.8 15.0396 5.14312 14.6576 5.59758 14.6059L18.1976 13.1728Z" fill="white"/>
<path fill-rule="evenodd" clip-rule="evenodd" d="M13.7234 3.10385C15.106 2.71159 16.5449 3.46415 17.0133 4.79499L17.0613 4.94521L18.2654 9.13023C18.402 9.60481 18.1252 10.0995 17.6473 10.235C17.2035 10.361 16.7423 10.133 16.5693 9.71982L16.5347 9.62126L15.3305 5.43624C15.194 4.96166 14.6958 4.68686 14.2179 4.82245L14.1389 4.84886L14.0626 4.88241L12.4025 5.70665C11.958 5.92738 11.4174 5.74844 11.1951 5.30698C10.9887 4.89705 11.1293 4.4049 11.5064 4.15996L11.5976 4.10797L13.2577 3.28374C13.407 3.20961 13.5629 3.14939 13.7234 3.10385Z" fill="white" fill-opacity="0.6"/>
</svg>
