<svg width="24" height="24" viewBox="0 0 24 24" fill="none" xmlns="http://www.w3.org/2000/svg">
<path d="M18.8905 10.4179C18.7078 10.4179 18.5305 10.4415 18.3613 10.4853L18.7286 6.40538C18.7288 6.40355 18.7289 6.40173 18.7291 6.39993C18.8503 4.92435 17.7974 3.60079 16.3322 3.38665C15.1251 3.21023 13.3876 3 11.9648 3C10.5492 3 8.84347 3.20813 7.66176 3.38275C6.19982 3.59871 5.14935 4.92193 5.27036 6.39515C5.2705 6.39701 5.27068 6.39881 5.27085 6.40064L5.63859 10.4853C5.46938 10.4415 5.29209 10.4179 5.10934 10.4179C3.94623 10.4179 3 11.3642 3 12.5273C3 15.4751 4.86037 17.4034 5.70865 18.1293L5.13715 20.1009C5.02905 20.4739 5.24378 20.8639 5.61676 20.972C5.68215 20.991 5.74799 21 5.81282 21C6.11777 21 6.39867 20.8 6.48782 20.4924L7.04389 18.5741H16.956L17.5121 20.4924C17.6013 20.8001 17.8821 21 18.1871 21C18.2519 21 18.3178 20.991 18.3831 20.972C18.7561 20.8639 18.9708 20.4739 18.8627 20.1009L18.1596 17.6752C18.0687 17.3616 17.7783 17.1607 17.4666 17.1687C17.4607 17.1686 17.455 17.1679 17.4491 17.1679H6.75318C6.52175 16.9807 6.07639 16.5869 5.63774 16.0115C4.82057 14.9396 4.40622 13.7673 4.40622 12.5272C4.40622 12.1395 4.72164 11.8241 5.10934 11.8241C5.49705 11.8241 5.81247 12.1395 5.81247 12.5272C5.81247 12.555 5.81412 12.5827 5.81739 12.6103L5.86552 13.0146C5.87909 13.459 6.08142 13.8737 6.42532 14.1582C6.7818 14.4532 7.24702 14.5727 7.70181 14.4862C9.38273 14.1661 10.8288 14.0038 11.9999 14.0038C13.1711 14.0038 14.6172 14.1661 16.2981 14.4862C16.7528 14.5729 17.218 14.4533 17.5746 14.1582C17.9185 13.8737 18.1208 13.459 18.1344 13.0147L18.1825 12.6104C18.1858 12.5828 18.1874 12.555 18.1874 12.5273C18.1874 12.1396 18.5028 11.8241 18.8906 11.8241C19.2783 11.8241 19.5937 12.1396 19.5937 12.5273C19.5937 13.3886 19.3894 14.2278 18.9865 15.0214C18.8107 15.3677 18.9489 15.7909 19.2951 15.9667C19.6415 16.1426 20.0646 16.0043 20.2404 15.658C20.7444 14.6653 20.9999 13.6119 20.9999 12.5273C20.9999 11.3642 20.0536 10.4179 18.8905 10.4179ZM17.3278 6.2824L16.7317 12.9038C16.7315 12.9059 16.7316 12.9079 16.7314 12.91C16.7299 12.9289 16.7288 12.9478 16.7288 12.9668C16.7288 13.0214 16.7012 13.0557 16.678 13.0749C16.6546 13.0943 16.6153 13.1153 16.5611 13.1048C14.7937 12.7682 13.2591 12.5976 11.9999 12.5976C10.7407 12.5976 9.20614 12.7682 7.4387 13.1048C7.38445 13.1151 7.34518 13.0942 7.3218 13.0749C7.29863 13.0557 7.271 13.0214 7.271 12.9668C7.271 12.9478 7.26995 12.9289 7.2684 12.91C7.26822 12.9079 7.26836 12.9059 7.26815 12.9038L6.67166 6.27766C6.61249 5.54198 7.13727 4.88167 7.86732 4.77385C9.00241 4.60619 10.6347 4.40625 11.9648 4.40625C13.3031 4.40625 14.9679 4.60847 16.1288 4.77814C16.8608 4.88508 17.387 5.5456 17.3278 6.2824Z" fill="white"/>
</svg>
