<svg width="24" height="24" viewBox="0 0 24 24" fill="none" xmlns="http://www.w3.org/2000/svg">
<path d="M19.0714 6.28571H17.6674C17.5349 5.91099 17.2899 5.58634 16.9659 5.3562C16.6418 5.12605 16.2546 5.00165 15.8571 5H4.92857C4.41708 5 3.92654 5.20319 3.56487 5.56487C3.20319 5.92654 3 6.41708 3 6.92857V9.5C3.00124 10.6363 3.27653 11.7555 3.80251 12.7627C4.3285 13.7699 5.08966 14.6354 6.02143 15.2857H4.28571C3.94472 15.2857 3.6177 15.4212 3.37658 15.6623C3.13546 15.9034 3 16.2304 3 16.5714C3 17.2534 3.27092 17.9075 3.75315 18.3897C4.23539 18.8719 4.88944 19.1429 5.57143 19.1429H15.8571C16.5391 19.1429 17.1932 18.8719 17.6754 18.3897C18.1577 17.9075 18.4286 17.2534 18.4286 16.5714C18.4286 16.2304 18.2931 15.9034 18.052 15.6623C17.8109 15.4212 17.4838 15.2857 17.1429 15.2857H14.7675C15.5053 14.7665 16.1379 14.1121 16.6318 13.3571H17.4643C18.4017 13.3561 19.3004 12.9833 19.9633 12.3204C20.6261 11.6576 20.999 10.7588 21 9.82143V8.21429C21 7.7028 20.7968 7.21226 20.4351 6.85058C20.0735 6.4889 19.5829 6.28571 19.0714 6.28571ZM17.1429 16.5714C17.1429 16.9124 17.0074 17.2394 16.7663 17.4806C16.5252 17.7217 16.1981 17.8571 15.8571 17.8571H5.57143C5.23044 17.8571 4.90341 17.7217 4.66229 17.4806C4.42117 17.2394 4.28571 16.9124 4.28571 16.5714H17.1429ZM10.7143 15.2857H10.0714C8.53748 15.284 7.06685 14.6739 5.98219 13.5892C4.89753 12.5046 4.28742 11.0339 4.28571 9.5V6.92857C4.28571 6.75808 4.35344 6.59456 4.474 6.474C4.59456 6.35344 4.75808 6.28571 4.92857 6.28571H15.8571C16.0276 6.28571 16.1912 6.35344 16.3117 6.474C16.4323 6.59456 16.5 6.75808 16.5 6.92857V9.5C16.4983 11.0339 15.8882 12.5046 14.8035 13.5892C13.7189 14.6739 12.2482 15.284 10.7143 15.2857ZM19.7143 9.82143C19.7143 10.4182 19.4772 10.9905 19.0553 11.4124C18.6333 11.8344 18.061 12.0714 17.4643 12.0714H17.2946C17.618 11.2526 17.7846 10.3803 17.7857 9.5V7.57143H19.0714C19.2419 7.57143 19.4054 7.63916 19.526 7.75972C19.6466 7.88028 19.7143 8.04379 19.7143 8.21429V9.82143Z" fill="white"/>
</svg>
