<svg width="24" height="24" viewBox="0 0 24 24" fill="none" xmlns="http://www.w3.org/2000/svg">
<path opacity="0.6" fill-rule="evenodd" clip-rule="evenodd" d="M6.99296 6.0001C6.53391 6.00727 6.16733 6.38445 6.17362 6.84314V11.6935C6.15876 11.7833 6.15876 11.8749 6.17362 11.9647V16.8232C6.16937 17.1231 6.32708 17.4021 6.58636 17.5533C6.84563 17.7045 7.1663 17.7045 7.42557 17.5533C7.68484 17.4021 7.84255 17.1231 7.83831 16.8232V12.6648H16.1618V16.8232C16.1575 17.1231 16.3152 17.4021 16.5745 17.5533C16.8338 17.7045 17.1544 17.7045 17.4137 17.5533C17.673 17.4021 17.8307 17.1231 17.8265 16.8232V11.9728C17.8413 11.883 17.8413 11.7914 17.8265 11.7016V6.84314C17.8295 6.61834 17.7414 6.40187 17.5822 6.24305C17.4229 6.08423 17.2061 5.99659 16.9811 6.0001C16.5221 6.00727 16.1555 6.38445 16.1618 6.84314V11.0015H7.83831V6.84314C7.84139 6.61834 7.75326 6.40187 7.59401 6.24305C7.43475 6.08423 7.21793 5.99659 6.99296 6.0001Z" fill="white"/>
<path fill-rule="evenodd" clip-rule="evenodd" d="M4.49589 7.66343C4.03683 7.6706 3.67026 8.04778 3.67655 8.50647V11.0015H2.8442C2.54403 10.9972 2.26482 11.1548 2.11349 11.4139C1.96217 11.6729 1.96217 11.9933 2.11349 12.2524C2.26482 12.5115 2.54403 12.6691 2.8442 12.6648H3.67655V15.1598C3.6723 15.4597 3.83001 15.7387 4.08928 15.8899C4.34856 16.0411 4.66923 16.0411 4.9285 15.8899C5.18777 15.7387 5.34548 15.4597 5.34124 15.1598V11.9728C5.35609 11.883 5.35609 11.7914 5.34124 11.7016V8.50647C5.34432 8.28167 5.25619 8.0652 5.09693 7.90638C4.93768 7.74756 4.72086 7.65992 4.49589 7.66343ZM19.4781 7.66349C19.0191 7.67066 18.6525 8.04784 18.6588 8.50653V11.6935C18.6439 11.7833 18.6439 11.875 18.6588 11.9648V15.1599C18.6545 15.4598 18.8122 15.7388 19.0715 15.89C19.3308 16.0412 19.6514 16.0412 19.9107 15.89C20.17 15.7388 20.3277 15.4598 20.3235 15.1599V12.6649H21.1558C21.456 12.6691 21.7352 12.5115 21.8865 12.2525C22.0378 11.9934 22.0378 11.673 21.8865 11.4139C21.7352 11.1549 21.456 10.9973 21.1558 11.0015H20.3235V8.50653C20.3265 8.28173 20.2384 8.06526 20.0792 7.90644C19.9199 7.74762 19.7031 7.65998 19.4781 7.66349Z" fill="white"/>
</svg>
