<svg width="24" height="24" viewBox="0 0 24 24" fill="none" xmlns="http://www.w3.org/2000/svg">
<circle cx="12" cy="12" r="9" fill="#E1DBC5"/>
<path d="M12.0004 9.30024C12.0004 8.80319 12.4033 8.40024 12.9004 8.40024C13.3975 8.40024 13.8004 8.80319 13.8004 9.30024V12.9002C13.8004 13.3973 13.3975 13.8002 12.9004 13.8002H9.30039C8.80334 13.8002 8.40039 13.3973 8.40039 12.9002C8.40039 12.4032 8.80333 12.0002 9.30039 12.0002H12.0004V9.30024Z" fill="#262626"/>
<path fill-rule="evenodd" clip-rule="evenodd" d="M21 12C21 16.9705 16.9705 21 12 21C7.02943 21 3 16.9705 3 12C3 7.02943 7.02943 3 12 3C16.9705 3 21 7.02943 21 12ZM19.2 12C19.2 15.9765 15.9765 19.2 12 19.2C8.02355 19.2 4.8 15.9765 4.8 12C4.8 8.02355 8.02355 4.8 12 4.8C15.9765 4.8 19.2 8.02355 19.2 12Z" fill="#E1DBC5"/>
</svg>
