<svg width="24" height="24" viewBox="0 0 24 24" fill="none" xmlns="http://www.w3.org/2000/svg">
<circle cx="11.5" cy="12.5" r="8.5" fill="#DBB582"/>
<path d="M12 9.9002C12 9.5136 12.3133 9.2002 12.7 9.2002C13.0866 9.2002 13.4 9.5136 13.4 9.9002V12.7002C13.4 13.0868 13.0866 13.4002 12.7 13.4002H9.89995C9.51336 13.4002 9.19995 13.0868 9.19995 12.7002C9.19995 12.3136 9.51335 12.0002 9.89995 12.0002H12V9.9002Z" fill="#262626"/>
<path fill-rule="evenodd" clip-rule="evenodd" d="M19 12C19 15.866 15.866 19 12 19C8.134 19 5 15.866 5 12C5 8.134 8.134 5 12 5C15.866 5 19 8.134 19 12ZM17.6 12C17.6 15.0928 15.0928 17.6 12 17.6C8.9072 17.6 6.4 15.0928 6.4 12C6.4 8.9072 8.9072 6.4 12 6.4C15.0928 6.4 17.6 8.9072 17.6 12Z" fill="#DBB582"/>
</svg>
