<svg width="20" height="16" viewBox="0 0 20 16" fill="none" xmlns="http://www.w3.org/2000/svg">
<path d="M14.1424 13.321V15.6626C14.1424 15.7213 14.1586 15.779 14.1894 15.83C14.2202 15.881 14.2645 15.9235 14.318 15.9533C14.3714 15.9831 14.4322 15.9992 14.4942 16C14.5563 16.0007 14.6175 15.9862 14.6718 15.9577L15.3544 15.6001C15.4337 15.5585 15.5228 15.5367 15.6135 15.5367C15.7041 15.5367 15.7933 15.5585 15.8726 15.6001L16.5548 15.9577C16.6091 15.9862 16.6703 16.0008 16.7324 16C16.7944 15.9992 16.8552 15.9831 16.9087 15.9533C16.9622 15.9235 17.0065 15.881 17.0373 15.83C17.0681 15.779 17.0843 15.7213 17.0843 15.6626V13.3212C16.6253 13.5301 16.1226 13.6386 15.6133 13.6385C15.104 13.6385 14.6013 13.53 14.1424 13.321ZM20 0.337411V13.2771C20 13.3666 19.9624 13.4524 19.8955 13.5157C19.8287 13.579 19.738 13.6145 19.6434 13.6145H18.1526V12.5685C18.7292 11.9738 19.0487 11.1959 19.0478 10.3889C19.0492 9.86061 18.9144 9.33999 18.6552 8.87212C18.3959 8.40425 18.02 8.00323 17.56 7.70382C17.1 7.40441 16.5697 7.21562 16.0152 7.15383C15.4607 7.09203 14.8986 7.15908 14.3776 7.34917C13.8566 7.53926 13.3925 7.84665 13.0255 8.24473C12.6584 8.6428 12.3995 9.11954 12.2711 9.63366C12.1427 10.1478 12.1487 10.6837 12.2887 11.1951C12.4286 11.7066 12.6982 12.178 13.0742 12.5685V13.6145H0.356633C0.262048 13.6145 0.171337 13.579 0.104456 13.5157C0.0375738 13.4524 0 13.3666 0 13.2771V0.337411C0 0.247924 0.0375738 0.162102 0.104456 0.0988252C0.171337 0.0355484 0.262048 0 0.356633 0H19.6434C19.738 0 19.8287 0.0355484 19.8955 0.0988252C19.9624 0.162102 20 0.247924 20 0.337411ZM6.20185 2.7229C6.20176 2.78939 6.21553 2.85525 6.24238 2.91669C6.26923 2.97814 6.30864 3.03396 6.35833 3.08098C6.40802 3.12799 6.46703 3.16527 6.53198 3.19068C6.59692 3.21608 6.66653 3.22911 6.7368 3.22902H13.2632C13.4051 3.22902 13.5411 3.1757 13.6415 3.08078C13.7418 2.98587 13.7981 2.85713 13.7981 2.7229C13.7981 2.58867 13.7418 2.45994 13.6415 2.36503C13.5411 2.27011 13.4051 2.21679 13.2632 2.21679H6.7368C6.66653 2.2167 6.59692 2.22973 6.53198 2.25513C6.46703 2.28054 6.40802 2.31781 6.35833 2.36483C6.30864 2.41184 6.26923 2.46767 6.24238 2.52912C6.21553 2.59056 6.20176 2.65641 6.20185 2.7229ZM11.0485 9.61958C11.0486 9.55309 11.0348 9.48724 11.008 9.42579C10.9811 9.36434 10.9417 9.30852 10.892 9.2615C10.8423 9.21449 10.7833 9.17721 10.7184 9.15181C10.6534 9.1264 10.5838 9.11337 10.5136 9.11346H2.5214C2.37952 9.11346 2.24345 9.16678 2.14313 9.2617C2.04281 9.35661 1.98645 9.48535 1.98645 9.61958C1.98645 9.75381 2.04281 9.88254 2.14313 9.97746C2.24345 10.0724 2.37952 10.1257 2.5214 10.1257H10.5136C10.5838 10.1258 10.6534 10.1128 10.7184 10.0873C10.7833 10.0619 10.8423 10.0247 10.892 9.97765C10.9417 9.93064 10.9811 9.87481 11.008 9.81336C11.0348 9.75192 11.0486 9.68607 11.0485 9.61958ZM11.7796 7.32181C11.7797 7.25532 11.7659 7.18947 11.7391 7.12802C11.7122 7.06658 11.6728 7.01075 11.6231 6.96373C11.5734 6.91672 11.5144 6.87944 11.4495 6.85404C11.3845 6.82864 11.3149 6.81561 11.2447 6.81569H2.5214C2.37952 6.81569 2.24345 6.86902 2.14313 6.96393C2.04281 7.05885 1.98645 7.18758 1.98645 7.32181C1.98645 7.45604 2.04281 7.58477 2.14313 7.67969C2.24345 7.7746 2.37952 7.82793 2.5214 7.82793H11.2447C11.3149 7.82802 11.3845 7.81498 11.4495 7.78958C11.5144 7.76418 11.5734 7.7269 11.6231 7.67989C11.6728 7.63287 11.7122 7.57704 11.7391 7.5156C11.7659 7.45415 11.7797 7.3883 11.7796 7.32181ZM18.0136 5.02067C18.0131 4.88656 17.9566 4.75806 17.8564 4.66322C17.7562 4.56839 17.6204 4.51495 17.4786 4.51455H2.5214C2.37952 4.51455 2.24345 4.56788 2.14313 4.66279C2.04281 4.75771 1.98645 4.88644 1.98645 5.02067C1.98645 5.1549 2.04281 5.28363 2.14313 5.37855C2.24345 5.47346 2.37952 5.52679 2.5214 5.52679H17.4786C17.5489 5.52687 17.6185 5.51384 17.6834 5.48844C17.7484 5.46304 17.8074 5.42576 17.8571 5.37875C17.9068 5.33173 17.9462 5.2759 17.973 5.21446C17.9999 5.15301 18.0136 5.08716 18.0136 5.02067Z" fill="white"/>
</svg>
