<svg width="18" height="18" viewBox="0 0 18 18" fill="none" xmlns="http://www.w3.org/2000/svg">
<path fill-rule="evenodd" clip-rule="evenodd" d="M14.9927 8.39706L2.39274 9.83018C1.02937 9.98525 0 11.1312 0 12.4938V12.6593L0.00453623 12.8152C0.06745 13.8934 0.77869 14.7989 1.75692 15.153L1.9233 15.2064L1.96872 15.339C2.35373 16.3789 3.34597 17.1001 4.5 17.1001L4.65865 17.0955C5.69977 17.0356 6.58263 16.39 6.97796 15.4855L7.0461 15.3127H10.9584L10.9679 15.339C11.3529 16.3789 12.3451 17.1001 13.5 17.1001L13.6586 17.0955C14.761 17.0321 15.6859 16.312 16.0426 15.3232L16.0857 15.1912L16.2264 15.1452C17.2737 14.7629 18 13.7776 18 12.6317V11.0607C18 10.9588 17.9941 10.8569 17.9825 10.7556C17.8128 9.28451 16.4742 8.22856 14.9927 8.39706ZM15.1976 10.1728C15.6914 10.1166 16.1376 10.4686 16.1942 10.959C16.198 10.9928 16.2 11.0267 16.2 11.0607V12.6317C16.2 13.1002 15.8351 13.4887 15.3681 13.5229L15.2669 13.5259C14.8176 13.5423 14.4552 13.8838 14.4058 14.3174L14.4 14.419C14.4 14.8773 14.0526 15.2551 13.6043 15.3067L13.4992 15.3127C13.0273 15.3127 12.6361 14.9504 12.6017 14.4867L12.5986 14.3862C12.5808 13.9057 12.1834 13.5253 11.6992 13.5253H6.3C5.83845 13.5253 5.45804 13.8703 5.40605 14.3148L5.4 14.419C5.4 14.9126 4.99706 15.3127 4.5 15.3127C4.02811 15.3127 3.63695 14.9504 3.6025 14.4867L3.59939 14.3862C3.58288 13.9401 3.23903 13.5802 2.80232 13.5311L2.6722 13.5253C2.1905 13.5253 1.8 13.1376 1.8 12.6593V12.4938C1.8 12.0396 2.14312 11.6576 2.59758 11.6059L15.1976 10.1728Z" fill="white"/>
<path fill-rule="evenodd" clip-rule="evenodd" d="M10.7234 0.103847C12.106 -0.288407 13.5449 0.464155 14.0133 1.79499L14.0613 1.94521L15.2654 6.13023C15.402 6.60481 15.1252 7.09945 14.6473 7.23505C14.2035 7.36096 13.7423 7.133 13.5693 6.71982L13.5347 6.62126L12.3305 2.43624C12.194 1.96166 11.6958 1.68686 11.2179 1.82245L11.1389 1.84886L11.0626 1.88241L9.40254 2.70665C8.95796 2.92738 8.41736 2.74844 8.19507 2.30698C7.98865 1.89705 8.12929 1.4049 8.50639 1.15996L8.59756 1.10797L10.2577 0.283738C10.407 0.209607 10.5629 0.149385 10.7234 0.103847Z" fill="white" fill-opacity="0.6"/>
</svg>
