<svg width="18" height="18" viewBox="0 0 18 18" fill="none" xmlns="http://www.w3.org/2000/svg">
    <path d="M17.9945 5.39992C17.9945 5.18812 17.8877 4.98713 17.6975 4.87913L9.2976 0.0791988C9.1128 -0.0263996 8.8866 -0.0263996 8.7024 0.0791988L0.30253 4.87913C0.112333 4.98773 0.00613432 5.18812 0.00553432 5.39992H0.000134439V7.79988C0.000134439 8.13168 0.26893 8.39987 0.600125 8.39987H17.3999C17.7311 8.39987 17.9999 8.13168 17.9999 7.79988V5.39992H17.9945ZM9 1.29058L15.1403 4.79993H2.85969L9 1.29058ZM1.20012 7.19989V5.99991H16.7999V7.19989H1.20012ZM17.3999 13.7998H13.1999C12.8687 13.7998 12.5999 14.068 12.5999 14.3998C12.5999 14.7316 12.8687 14.9998 13.1999 14.9998H16.7999V16.1998H1.20012V14.9998H4.80006C5.13126 14.9998 5.40005 14.7316 5.40005 14.3998C5.40005 14.068 5.13126 13.7998 4.80006 13.7998H0.600125C0.26893 13.7998 0.000134439 14.068 0.000134439 14.3998V16.7997C0.000134439 17.1315 0.26893 17.3997 0.600125 17.3997H17.3999C17.7311 17.3997 17.9999 17.1315 17.9999 16.7997V14.3998C17.9999 14.068 17.7311 13.7998 17.3999 13.7998ZM1.80011 11.3998C2.3941 11.3998 3.17469 11.0914 3.51848 10.5022C3.59828 10.3648 3.91988 10.1998 4.20007 10.1998C4.48027 10.1998 4.80186 10.3648 4.88166 10.5022C5.22546 11.0914 6.00604 11.3998 6.60004 11.3998C7.19403 11.3998 7.97462 11.0914 8.31841 10.5022C8.39821 10.3648 8.7198 10.1998 9 10.1998C9.2802 10.1998 9.60179 10.3648 9.68159 10.5022C10.0254 11.0914 10.806 11.3998 11.4 11.3998C11.994 11.3998 12.7745 11.0914 13.1183 10.5022C13.1981 10.3648 13.5197 10.1998 13.7999 10.1998C14.0801 10.1998 14.4017 10.3648 14.4815 10.5022C14.8253 11.0914 15.6059 11.3998 16.1999 11.3998C16.7939 11.3998 17.5745 11.0914 17.9183 10.5022C18.0851 10.2154 17.9885 9.84825 17.7023 9.68145C17.4155 9.51586 17.0483 9.61186 16.8815 9.89745C16.8017 10.0349 16.4801 10.1998 16.1999 10.1998C15.9197 10.1998 15.5981 10.0349 15.5183 9.89745C15.1745 9.30826 14.3939 8.99987 13.7999 8.99987C13.2059 8.99987 12.4253 9.30826 12.0816 9.89745C12.0018 10.0349 11.6802 10.1998 11.4 10.1998C11.1198 10.1998 10.7982 10.0349 10.7184 9.89745C10.3746 9.30826 9.59399 8.99987 9 8.99987C8.40601 8.99987 7.62542 9.30826 7.28163 9.89745C7.20183 10.0349 6.88023 10.1998 6.60004 10.1998C6.31984 10.1998 5.99824 10.0349 5.91845 9.89745C5.57465 9.30826 4.79406 8.99987 4.20007 8.99987C3.60608 8.99987 2.82549 9.30826 2.4817 9.89745C2.4019 10.0349 2.0803 10.1998 1.80011 10.1998C1.51991 10.1998 1.19832 10.0349 1.11852 9.89745C0.95232 9.61126 0.585126 9.51526 0.29773 9.68145C0.0115343 9.84825 -0.0850643 10.216 0.0817332 10.5022C0.425528 11.0914 1.20612 11.3998 1.80011 11.3998Z"
          fill="white"/>
    <path d="M17.3999 11.9998H12.5999C12.4818 11.9998 12.3654 12.0352 12.267 12.1006L9 14.2786L5.73305 12.1006C5.63465 12.0352 5.51825 11.9998 5.40006 11.9998H0.600128C0.268933 11.9998 0.000137329 12.268 0.000137329 12.5998C0.000137329 12.9316 0.268933 13.1998 0.600128 13.1998H5.21826L8.66701 15.499C8.76781 15.5662 8.8842 15.5998 9 15.5998C9.1158 15.5998 9.2322 15.5662 9.333 15.499L12.7817 13.1998H17.3999C17.7311 13.1998 17.9999 12.9316 17.9999 12.5998C17.9999 12.268 17.7311 11.9998 17.3999 11.9998Z"
          fill="white" fill-opacity="0.6"/>
</svg>
